<?xml version="1.0" encoding="UTF-8"?>
<svg width="13px" height="13px" viewBox="0 0 13 13" version="1.1" xmlns="http://www.w3.org/2000/svg" xmlns:xlink="http://www.w3.org/1999/xlink">
    <!-- Generator: Sketch 55.2 (78181) - https://sketchapp.com -->
    <title>Group 6</title>
    <desc>Created with Sketch.</desc>
    <defs>
        <polygon id="path-1" points="0 0 13 0 13 12.9997636 0 12.9997636"></polygon>
    </defs>
    <g id="TorThings" stroke="none" stroke-width="1" fill="none" fill-rule="evenodd">
        <g id="Immediate-TorWeak-Index-Fix-Logout" transform="translate(-476.000000, -185.000000)">
            <g id="But_Tor" transform="translate(114.000000, 176.000000)">
                <g id="Group-8" transform="translate(47.000000, 8.000000)">
                    <g id="Group-6" transform="translate(315.000000, 1.000000)">
                        <g id="Group-3">
                            <mask id="mask-2" fill="white">
                                <use xlink:href="#path-1"></use>
                            </mask>
                            <g id="Clip-2"></g>
                            <path d="M11.117925,4.42921818 C12.321725,5.38826364 13.000325,6.73021818 13.000325,8.12949091 C13.000325,9.52935455 12.277525,10.8908091 11.030175,11.7919455 C9.870575,12.6357636 8.251425,12.9997636 6.697925,12.9997636 C5.735275,12.9997636 4.859725,12.9619455 3.919175,12.6930818 C1.752725,12.0608091 0.155025,10.4499909 0.023725,8.51358182 C-0.107575,7.0174 0.286325,5.86749091 1.621425,4.65908182 C2.300025,4.02621818 3.700125,3.29762727 4.662775,2.72267273 C5.144425,2.4544 5.647525,1.64899091 4.684875,0.1339 L4.881825,-0.000236363636 L7.748325,1.03562727 C7.354425,2.14771818 8.492575,2.93362727 8.864375,3.10617273 C9.695725,3.50858182 10.483525,3.93049091 11.117925,4.42921818 M5.376475,3.71008182 C5.123625,3.86135455 4.146675,4.42271818 4.148625,4.42153636 C3.850925,4.59467273 3.612375,4.73767273 3.399175,4.8724 C3.007875,5.11880909 2.723825,5.32444545 2.538575,5.49699091 C1.526525,6.41230909 1.212575,7.20117273 1.321125,8.4409 C1.415375,9.82599091 2.588625,11.0633545 4.307875,11.5656273 C4.981925,11.7576727 5.620875,11.8179455 6.697925,11.8179455 C8.097375,11.8179455 9.379825,11.4793545 10.221575,10.8665818 C11.154325,10.1929455 11.700325,9.17421818 11.700325,8.12949091 C11.700325,7.07176364 11.184875,6.05480909 10.265125,5.3209 C9.790625,4.94862727 9.172475,4.59408182 8.273525,4.15858182 C7.459075,3.78099091 6.742125,3.10971818 6.471725,2.26530909 C6.333925,2.88162727 5.958875,3.38567273 5.376475,3.71008182" id="Fill-1" fill="#000000" mask="url(#mask-2)"></path>
                        </g>
                        <path d="M7,3.71428571 C7.22338462,4.34514286 7.75876923,4.84571429 8.36369231,5.132 C9.05538462,5.47371429 9.53046154,5.752 9.896,6.044 C10.6030769,6.62 11,7.41771429 11,8.24857143 C11,9.068 10.5796923,9.868 9.86215385,10.396 C9.21538462,10.8771429 8.22769231,11.1428571 7.15138462,11.1428571 C7.09969231,11.1428571 7.04923077,11.1428571 7,11.1422857 L7,3.71428571 Z" id="Fill-4" fill="#000000"></path>
                    </g>
                </g>
            </g>
        </g>
    </g>
</svg>