<?xml version="1.0" encoding="UTF-8"?>
<svg width="12px" height="13px" viewBox="0 0 12 13" version="1.1" xmlns="http://www.w3.org/2000/svg" xmlns:xlink="http://www.w3.org/1999/xlink">
    <!-- Generator: Sketch 55.2 (78181) - https://sketchapp.com -->
    <title>Fill 1</title>
    <desc>Created with Sketch.</desc>
    <g id="TorThings" stroke="none" stroke-width="1" fill="none" fill-rule="evenodd">
        <g id="Immediate-Submit-Confirm-Torweak" transform="translate(-653.000000, -112.000000)" fill="#303030">
            <path d="M654.44022,116.047166 C654.600404,119.85643 656.862239,122.548025 658.988771,123.484541 C660.554716,122.789561 663.383083,120.399548 663.56011,116.047279 L659,113.520388 L654.44022,116.047166 Z M658.988991,125 C658.858642,125 658.728404,124.965076 658.572734,124.895229 C658.551376,124.885653 658.525835,124.87405 658.494569,124.860756 C655.848183,123.732611 653,120.358316 653,115.615916 L653,115.179709 L658.494459,112.139328 L658.559853,112.110939 C658.897064,111.96302 659.102826,111.96302 659.440147,112.110939 L659.570936,112.17121 L665,115.179709 L665,115.615916 C665,117.95929 664.317761,120.134467 663.026826,121.906445 C662.07145,123.217657 660.746826,124.322144 659.483303,124.860756 C659.452147,124.87405 659.426606,124.885541 659.405248,124.895229 C659.249688,124.965076 659.119229,125 658.988991,125 L658.988991,125 Z" id="Fill-1"></path>
        </g>
    </g>
</svg>