<?xml version="1.0" encoding="UTF-8" standalone="no"?>
<!-- Generator: Adobe Illustrator 21.1.0, SVG Export Plug-In . SVG Version: 6.00 Build 0)  -->

<svg
   version="1.1"
   id="Layer_1"
   x="0px"
   y="0px"
   viewBox="0 0 128 128"
   xml:space="preserve"
   sodipodi:docname="SD Desktop Icon Inkscape New-Colors.svg"
   width="128"
   height="128"
   inkscape:export-filename="securedrop-128x128.png"
   inkscape:export-xdpi="96"
   inkscape:export-ydpi="96"
   inkscape:version="1.2.1 (9c6d41e410, 2022-07-14)"
   xmlns:inkscape="http://www.inkscape.org/namespaces/inkscape"
   xmlns:sodipodi="http://sodipodi.sourceforge.net/DTD/sodipodi-0.dtd"
   xmlns="http://www.w3.org/2000/svg"
   xmlns:svg="http://www.w3.org/2000/svg"><defs
     id="defs56" /><sodipodi:namedview
     id="namedview54"
     pagecolor="#ffffff"
     bordercolor="#666666"
     borderopacity="1.0"
     inkscape:showpageshadow="2"
     inkscape:pageopacity="0.0"
     inkscape:pagecheckerboard="0"
     inkscape:deskcolor="#d1d1d1"
     showgrid="false"
     inkscape:zoom="5.6568543"
     inkscape:cx="88.653512"
     inkscape:cy="71.594561"
     inkscape:window-width="1920"
     inkscape:window-height="1011"
     inkscape:window-x="0"
     inkscape:window-y="0"
     inkscape:window-maximized="1"
     inkscape:current-layer="g8003"
     showguides="true" /><g
     id="g8003"><path
       id="path37-1-0"
       style="fill:#2d99ff;fill-opacity:1"
       d="m 63.94688,6.0002 -50.20506,29 v 1.1836 l 50.20506,29 50.24417,-28.99805 V 35.0002 Z" /><path
       id="rect844-2-9-6"
       style="fill:#045fb4"
       d="m 114.25818,34.99978 -50.24414,29 h -0.98047 v 57.43359 l 0.98047,0.56641 50.24414,-29 z" /><path
       d="m 13.74182,92.99993 50.20541,28.99986 V 64.00008 L 13.74182,35.00023 Z"
       id="path41"
       style="fill:#000c6c;fill-opacity:1" /><path
       id="path6016-3"
       style="fill:#ffffff"
       d="M 25.58464,55.35604 V 75.41659 L 43.16081,85.5787 v 3.7832 L 25.58464,79.19784 v 8.2539 l 25.71289,14.82422 v -20.25 L 32.57683,71.21346 V 67.3912 l 18.7207,10.81445 v -8.02539 z" /><path
       id="path35-6"
       style="fill:#ffffff"
       d="m 101.7228,55.14608 c -0.64953,0 -1.29992,0.19238 -1.87304,0.49805 L 76.81069,68.97811 v 33.50781 l 24.83399,-14.36523 c 2.36889,-1.37549 3.82226,-3.89662 3.82226,-6.60938 V 58.92928 c 0,-2.06322 -1.68091,-3.7832 -3.74414,-3.7832 z m -4.74804,11.44531 c 0.52722,0.0448 1.02203,0.34271 1.30859,0.82031 0.15283,0.22925 0.19031,0.49622 0.22852,0.76368 V 79.066 c 0,1.60473 -0.87842,3.09327 -2.25391,3.85742 l -11.61523,6.4961 -0.0371,-16.04688 11.42383,-6.57226 c 0.30088,-0.17194 0.62898,-0.23585 0.94531,-0.20899 z" /><path
       id="rect844-9"
       style="fill:#ffffff"
       d="m 57.90355,24.60858 c -0.70685,0 -1.39791,0.0419 -2.06446,0.11914 -0.66655,0.0772 -1.30935,0.19133 -1.92187,0.33789 -0.61252,0.14656 -1.19352,0.32522 -1.73828,0.5332 -0.54476,0.20798 -1.05236,0.44555 -1.51563,0.70703 -0.46327,0.26149 -0.88195,0.54644 -1.25,0.85352 -0.36805,0.30708 -0.68621,0.6357 -0.94531,0.98047 -0.2591,0.34477 -0.45929,0.70553 -0.5957,1.08007 -0.13642,0.37455 -0.20899,0.7618 -0.20899,1.15821 0,0.39641 0.0726,0.78561 0.20899,1.16016 0.13641,0.37454 0.3366,0.73531 0.5957,1.08007 0.2591,0.34477 0.57726,0.67339 0.94531,0.98047 0.36805,0.30708 0.78673,0.59203 1.25,0.85352 0.46327,0.26148 0.97087,0.49905 1.51563,0.70703 0.54476,0.20798 1.12576,0.38664 1.73828,0.5332 0.61252,0.14657 1.25532,0.26066 1.92187,0.33789 0.66655,0.0772 1.35761,0.11719 2.06446,0.11719 0.76416,0 1.49084,-0.0369 2.21679,-0.11328 l 9.39844,9.39844 15.16797,-8.5586 -17.04101,-4.69921 c 0.17193,-0.26746 0.29771,-0.56348 0.3789,-0.86915 0.0812,-0.30566 0.11914,-0.62207 0.11914,-0.92773 0,-0.39163 -0.0726,-0.77456 -0.20898,-1.14648 -0.13642,-0.37193 -0.33661,-0.7323 -0.59571,-1.07618 -0.25909,-0.34387 -0.57726,-0.67106 -0.94531,-0.97851 -0.36805,-0.30746 -0.78673,-0.59475 -1.25,-0.85743 -0.46327,-0.26268 -0.97086,-0.50138 -1.51562,-0.71093 -0.54477,-0.20955 -1.12576,-0.39101 -1.73828,-0.53907 -0.61253,-0.14805 -1.25533,-0.26163 -1.92188,-0.33984 -0.66655,-0.0782 -1.35761,-0.12109 -2.06445,-0.12109 z" /></g></svg>
