<?xml version="1.0" encoding="UTF-8"?>
<svg version="1.1" viewBox="0 0 128 128" xmlns="http://www.w3.org/2000/svg">
<g transform="translate(-82.206 -70.837)">
<path d="m146.14 76.454-50.192 24.768v62.381l50.586 29.617 49.93-30.404v-61.199z"/>
<path d="m139.72 92.835c5.8973 0 10.746 2.753 10.746 6.0293 0 0.65525-0.13224 1.3098-0.52539 1.834l17.824 4.9805-15.857 9.041-9.8301-9.959c-0.78631 0.13105-1.5711 0.13086-2.3574 0.13086-5.8973 0-10.746-2.7511-10.746-6.0273-0.13105-3.2763 4.7178-6.0293 10.746-6.0293z" fill="#fff"/>
<path d="m99.354 105.28 47.31 25.949 46.393-25.818v55.566l-46.393 28.045-47.31-27.258z" fill="#fff"/>
<path d="m180.08 123.5c-0.65525 0-1.4424 0.26133-2.0976 0.52344l-25.031 14.416v36.432l26.998-15.594c2.621-1.4416 4.1934-4.1948 4.1934-7.209v-24.506c0-2.0968-1.8346-4.0625-4.0625-4.0625zm-5.1934 12.475c0.61024 0.0293 1.1794 0.37657 1.5234 0.89258 0.13105 0.2621 0.26172 0.52501 0.26172 0.78711v11.793h-0.13086c0 1.7037-0.91764 3.409-2.4902 4.1953l-12.58 7.0762v-17.43l12.449-7.0762c0.22934-0.13105 0.46764-0.20589 0.70312-0.23046 0.0883-9e-3 0.1765-0.012 0.26367-8e-3z"/>
<path d="m109.58 121.67v22.408l19.658 11.402v4.1934l-19.658-11.4v9.3047l28.83 16.643v-22.672l-20.967-12.188v-4.3242l20.967 12.188v-9.043z"/>
</g>
</svg>
