<?xml version="1.0" encoding="UTF-8"?>
<svg version="1.1" viewBox="0 0 128 128" xmlns="http://www.w3.org/2000/svg">
<g transform="translate(-82.206 -70.837)">
<path d="m146.21 78.054-50.259 26.195v58.347l50.259 29.025 50.257-29.025v-58.049z"/>
<g fill="#fff">
<path d="m146.21 83.508-41.492 21.817 41.492 23.96 41.492-23.96zm-5.6499 13.052c5.0647 0 9.1563 2.3362 9.1563 5.2582 0 0.58439-2e-3 0.97526-0.39137 1.5596l15.389 4.2856-13.636 7.7904-8.5712-8.5712c-0.5844 0.1948-1.3627 0.19569-1.9471 0.19569-5.0647 0-9.1563-2.3382-9.1563-5.2601 0-2.922 4.0916-5.2582 9.1563-5.2582z"/>
<path d="m183.8 120.32c-0.77919 0-1.5593 0.19552-2.3385 0.58511l-27.856 16.168v40.518l29.999-17.336c2.922-1.5584 4.675-4.6765 4.675-7.9881v-27.271c0-2.5324-1.947-4.675-4.4794-4.675zm-6.0272 13.945c0.74546-9e-3 1.4738 0.38515 1.7416 1.0548 0.1948 0.3896 0.19374 0.58495 0.19374 0.97454v13.246c0 1.948-0.97279 3.701-2.726 4.675l-14.025 7.7904v-19.479l13.829-7.9861c0.30437-0.18263 0.64742-0.27165 0.98628-0.27592z"/>
<path d="m137.64 146.43-22.596-13.051v5.6491l22.596 13.051v24.544l-31.168-17.921v-9.9346l21.819 13.051v-5.6491l-21.82-13.246v-24.35l31.168 17.921z"/>
</g>
</g>
</svg>
