<?xml version="1.0" encoding="UTF-8"?>
<svg version="1.1" viewBox="0 0 128 128" xmlns="http://www.w3.org/2000/svg">
<g transform="translate(-82.206 -70.837)">
<path d="m146.21 78.045-50.259 26.301 9.72e-4 58.248 50.257 29.035 50.258-29.034v-58.288z"/>
<g fill="#fff">
<path class="st0" d="m192.38 105.01-46.178-24.128-46.18 24.127 46.18 26.684zm-52.678 2.1419c-5.6687 0-10.3-2.627-10.3-5.7378 0-3.18 4.5626-5.7379 10.3-5.7379 5.6687 0 10.3 2.627 10.3 5.7379 0 0.62217-0.13821 1.2444-0.48392 1.7974l17.075 4.7009-15.209 8.5722-9.4018-9.4709c-0.82957 0.13827-1.5209 0.13827-2.2813 0.13827z"/>
<polygon class="st0" transform="matrix(.69131 0 0 .69131 -66.716 -50.952)" points="283 306.3 255 290.1 255 303.3 296 326.9 296 294.6 266.1 277.4 266.1 271.3 296 288.5 296 275.8 255 252.1 255 284.1 283 300.3"/>
<path class="st0" d="m182.64 123.95c-0.6913 0-1.4517 0.20737-2.0739 0.55304l-25.371 14.725v36.916l27.376-15.831c2.627-1.5209 4.217-4.2861 4.217-7.2587v-24.887c-0.0692-2.2813-1.8665-4.217-4.1478-4.217zm-3.5257 26.408c0 1.7974-0.96783 3.3874-2.4887 4.217l-12.789 7.1896-0.0692-17.697 12.582-7.2587c0.89871-0.48391 2.0048-0.13827 2.4887 0.69131 0.13822 0.27652 0.20746 0.55305 0.27654 0.82957z"/>
</g>
</g>
</svg>
