<?xml version="1.0" encoding="UTF-8" standalone="no"?>
<!-- Created with Inkscape (http://www.inkscape.org/) -->

<svg
   width="128"
   height="128"
   viewBox="0 0 128 128"
   version="1.1"
   id="svg668"
   inkscape:version="1.2.2 (b0a8486541, 2022-12-01)"
   sodipodi:docname="SD monochrome Desktop Icon Small Clean Inkscape.svg"
   xmlns:inkscape="http://www.inkscape.org/namespaces/inkscape"
   xmlns:sodipodi="http://sodipodi.sourceforge.net/DTD/sodipodi-0.dtd"
   xmlns="http://www.w3.org/2000/svg"
   xmlns:svg="http://www.w3.org/2000/svg">
  <sodipodi:namedview
     id="namedview670"
     pagecolor="#ffffff"
     bordercolor="#666666"
     borderopacity="1.0"
     inkscape:showpageshadow="2"
     inkscape:pageopacity="0.0"
     inkscape:pagecheckerboard="0"
     inkscape:deskcolor="#d1d1d1"
     inkscape:document-units="px"
     showgrid="false"
     inkscape:zoom="6.0553841"
     inkscape:cx="69.277191"
     inkscape:cy="13.046241"
     inkscape:window-width="1920"
     inkscape:window-height="1011"
     inkscape:window-x="0"
     inkscape:window-y="0"
     inkscape:window-maximized="1"
     inkscape:current-layer="layer1" />
  <defs
     id="defs665">
	
	
	
	
	
	

	
	
	
</defs>
  <g
     inkscape:label="Layer 1"
     inkscape:groupmode="layer"
     id="layer1"
     transform="translate(-82.205889,-70.837011)">
    <path
       id="path1967"
       style="stroke-width:1.94797"
       d="m 146.20686,78.05374 -50.25897,26.19501 v 58.34684 l 50.25897,29.02469 50.25703,-29.02469 v -58.04938 z"
       sodipodi:nodetypes="ccccccc" />
    <path
       id="path1882"
       style="fill:#ffffff;stroke-width:1.94797"
       d="m 146.20666,83.507612 -41.49242,21.817438 41.49207,23.96025 41.49208,-23.96025 z m -5.64991,13.0525 c 5.06472,0 9.15632,2.336226 9.15632,5.258178 0,0.58439 -0.002,0.97526 -0.39137,1.55965 l 15.38903,4.28561 -13.63565,7.7904 -8.57121,-8.57121 c -0.5844,0.1948 -1.36272,0.19569 -1.94712,0.19569 -5.06471,0 -9.15631,-2.33819 -9.15631,-5.26014 0,-2.921952 4.0916,-5.258178 9.15631,-5.258178 z"
       sodipodi:nodetypes="cccccssccccsss" />
    <path
       id="path88"
       style="fill:#ffffff;stroke-width:1.94797"
       d="m 183.80276,120.32467 c -0.77919,0 -1.55929,0.19552 -2.33848,0.58511 l -27.85643,16.16788 v 40.51754 l 29.99923,-17.33614 c 2.92195,-1.55839 4.67503,-4.67651 4.67503,-7.98806 v -27.27131 c 0,-2.53237 -1.94698,-4.67502 -4.47935,-4.67502 z m -6.02723,13.94485 c 0.74546,-0.009 1.47379,0.38515 1.74163,1.05476 0.1948,0.3896 0.19374,0.58495 0.19374,0.97454 v 13.24623 c 0,1.94797 -0.97279,3.70105 -2.72597,4.67502 l -14.02507,7.79041 v -19.47895 l 13.82939,-7.98609 c 0.30437,-0.18263 0.64742,-0.27165 0.98628,-0.27592 z" />
    <path
       d="m 137.63535,146.42749 -22.59647,-13.05141 v 5.64912 l 22.59647,13.05141 v 24.54443 L 106.46781,158.6997 v -9.93465 l 21.81914,13.05141 v -5.64912 l -21.81969,-13.2462 V 118.5715 l 31.16809,17.92133 z"
       id="path1884"
       style="fill:#ffffff;stroke-width:1.94797"
       sodipodi:nodetypes="ccccccccccccc" />
  </g>
</svg>
