<?xml version="1.0" encoding="UTF-8" standalone="no"?>
<!-- Created with Inkscape (http://www.inkscape.org/) -->

<svg
   width="128"
   height="128"
   viewBox="0 0 128 128"
   version="1.1"
   id="svg668"
   inkscape:version="1.2.2 (b0a8486541, 2022-12-01)"
   sodipodi:docname="SD monochrome alt Desktop Icon Small Clean Inkscape.svg"
   xmlns:inkscape="http://www.inkscape.org/namespaces/inkscape"
   xmlns:sodipodi="http://sodipodi.sourceforge.net/DTD/sodipodi-0.dtd"
   xmlns="http://www.w3.org/2000/svg"
   xmlns:svg="http://www.w3.org/2000/svg">
  <sodipodi:namedview
     id="namedview670"
     pagecolor="#ffffff"
     bordercolor="#666666"
     borderopacity="1.0"
     inkscape:showpageshadow="2"
     inkscape:pageopacity="0.0"
     inkscape:pagecheckerboard="0"
     inkscape:deskcolor="#d1d1d1"
     inkscape:document-units="px"
     showgrid="false"
     inkscape:zoom="5.6568543"
     inkscape:cx="85.117979"
     inkscape:cy="68.589358"
     inkscape:window-width="1920"
     inkscape:window-height="1011"
     inkscape:window-x="0"
     inkscape:window-y="0"
     inkscape:window-maximized="1"
     inkscape:current-layer="layer1" />
  <defs
     id="defs665">
	
	
	
	
	
	

	
	
	

	
	

		
		
	</defs>
  <g
     inkscape:label="Layer 1"
     inkscape:groupmode="layer"
     id="layer1"
     transform="translate(-82.205889,-70.837011)">
    <path
       style="fill:#000000;stroke-width:1.31051"
       d="M 146.1398,76.454199 95.947982,101.22178 v 62.38086 l 50.585938,29.61718 49.92988,-30.40429 v -61.19922 z"
       id="path180"
       sodipodi:nodetypes="ccccccc" />
    <path
       style="fill:#ffffff;stroke-width:1.31051"
       d="m 139.71947,92.835058 c 5.89728,0 10.74609,2.753029 10.74609,6.029297 0,0.655253 -0.13224,1.309785 -0.52539,1.833985 l 17.82422,4.98047 -15.85742,9.04101 -9.83008,-9.95898 c -0.78631,0.13105 -1.57111,0.13086 -2.35742,0.13086 -5.89728,0 -10.74609,-2.75108 -10.74609,-6.027345 -0.13105,-3.276268 4.71776,-6.029297 10.74609,-6.029297 z"
       id="path2080" />
    <path
       style="fill:#ffffff;stroke-width:1.31051"
       d="m 99.354327,105.28428 47.310283,25.94922 46.39284,-25.81836 v 55.5664 l -46.39284,28.04492 -47.310283,-27.25781 z"
       id="path2082"
       sodipodi:nodetypes="ccccccc" />
    <path
       id="path2088"
       style="fill:#000000;stroke-width:1.31051"
       d="m 180.08284,123.50107 c -0.65525,0 -1.4424,0.26133 -2.09765,0.52344 l -25.03125,14.41602 v 36.43164 l 26.99804,-15.59375 c 2.62102,-1.44156 4.19336,-4.19482 4.19336,-7.20899 v -24.50586 c 0,-2.0968 -1.83463,-4.0625 -4.0625,-4.0625 z m -5.19336,12.47461 c 0.61024,0.0293 1.17943,0.37657 1.52344,0.89258 0.13105,0.2621 0.26172,0.52501 0.26172,0.78711 v 11.79297 h -0.13086 c 0,1.70366 -0.91764,3.409 -2.49023,4.19531 l -12.58008,7.07617 v -17.42968 l 12.44922,-7.07618 c 0.22934,-0.13105 0.46764,-0.20589 0.70312,-0.23046 0.0883,-0.009 0.1765,-0.012 0.26367,-0.008 z" />
    <path
       style="fill:#000000;stroke-width:1.31051"
       d="m 109.57698,121.66709 v 22.4082 l 19.65821,11.40235 v 4.19336 l -19.65821,-11.40039 v 9.30468 l 28.83008,16.64258 V 151.546 l -20.9668,-12.1875 v -4.32422 l 20.9668,12.1875 v -9.04297 z"
       id="path2084" />
  </g>
</svg>
