<?xml version="1.0" encoding="UTF-8"?>
<svg enable-background="new 0 0 489.8 447.4" version="1.1" viewBox="0 0 489.8 447.4" xmlns="http://www.w3.org/2000/svg">
<style type="text/css">.st0{fill:#034482;}
	.st1{fill:#2E8AE8;}
	.st2{fill:#045FB4;}
	.st3{fill:none;}</style>
<path class="st0" d="m31.9 341.93c2.3 1 4.3 2.3 6 4s3 3.7 4 6 1.5 4.7 1.5 7.3v5.7c0 1.4-0.6 2.3-1.9 2.7l-13.6 3.6c-1.3 0.4-1.9-0.1-1.9-1.5v-9.7c0-1-0.4-1.8-1-2.5-0.7-0.7-1.5-1-2.5-1h-1.2c-1 0-1.8 0.4-2.5 1-0.7 0.7-1 1.6-1 2.5v13.6c0.1 1.1 0.3 2 0.6 2.8s0.8 1.6 1.6 2.4l19.4 14.8c1.6 1.4 2.6 2.8 3.1 4.3 0.5 1.4 0.8 3.1 1 4.9v25.8c0 2.6-0.5 5-1.5 7.3s-2.3 4.3-4 6-3.7 3-6 4-4.7 1.5-7.3 1.5h-5.7c-2.6 0-5-0.5-7.3-1.5s-4.3-2.3-6-4-3-3.7-4-6-1.5-4.7-1.5-7.3v-14.4c0-1.4 0.6-2.3 1.9-2.7l13.6-3.6c1.3-0.4 1.9 0.1 1.9 1.5v18.4c0 1 0.3 1.8 1 2.5s1.5 1 2.5 1h1.2c1 0 1.8-0.3 2.5-1s1-1.5 1-2.5v-19.8c-0.1-1.3-0.3-2.4-0.6-3.4s-0.9-1.9-1.8-2.7l-19.2-14.9c-1.5-1.4-2.6-2.8-3.2-4.2-0.7-1.4-1-3.2-1-5.5v-18c0-2.6 0.5-5 1.5-7.3s2.3-4.3 4-6 3.7-3 6-4 4.7-1.5 7.3-1.5h5.7c2.7-0.1 5.1 0.4 7.4 1.4"/>
<path class="st0" d="m87.3 430.9v13.3c0 1.4-0.7 2.1-2.1 2.1h-32.5c-1.4 0-2.1-0.7-2.1-2.1v-100.6c0-1.4 0.7-2.1 2.1-2.1h32.5c1.4 0 2.1 0.7 2.1 2.1v13.3c0 1.4-0.7 2.1-2.1 2.1h-17v21.6h14.8c1.4 0 2.1 0.7 2.1 2.1v13.3c0 1.4-0.7 2.1-2.1 2.1h-14.8v30.7h17.1c1.3 0.1 2 0.8 2 2.1"/>
<path class="st0" d="m126.4 341.93c2.3 1 4.3 2.3 6 4s3 3.7 4 6 1.5 4.7 1.5 7.3v12c0 1.4-0.7 2.3-1.9 2.7l-13.6 2.1c-1.3 0.4-1.9-0.1-1.9-1.5v-14.5c0-1-0.4-1.8-1.1-2.5s-1.6-1-2.5-1h-1.2c-1 0-1.8 0.4-2.5 1-0.7 0.7-1 1.6-1 2.5v67.7c0 1 0.3 1.8 1 2.5s1.5 1 2.5 1h1.2c1 0 1.8-0.3 2.5-1s1.1-1.5 1.1-2.5v-21c0-1.4 0.6-1.9 1.9-1.5l13.6 1.8c1.3 0.4 1.9 1.3 1.9 2.7v18.7c0 2.6-0.5 5-1.5 7.3s-2.4 4.3-4 6c-1.7 1.7-3.7 3-6 4s-4.7 1.5-7.3 1.5h-5.7c-2.6 0-5-0.5-7.3-1.5s-4.3-2.3-6-4-3-3.7-4-6-1.5-4.7-1.5-7.3v-69.2c0-2.6 0.5-5 1.5-7.3s2.3-4.3 4-6 3.7-3 6-4 4.7-1.5 7.3-1.5h5.7c2.6 0 5.1 0.5 7.3 1.5"/>
<path class="st0" d="m187.1 343.6v85c0 2.6-0.5 5-1.5 7.3s-2.3 4.3-4 6-3.7 3-6 4-4.7 1.5-7.3 1.5h-5.7c-2.6 0-5-0.5-7.3-1.5s-4.3-2.3-6-4-3-3.7-4-6-1.5-4.7-1.5-7.3v-85c0-1.4 0.7-2.1 2.1-2.1h13.3c1.4 0 2.1 0.7 2.1 2.1v84.2c0 1 0.3 1.8 1 2.5s1.5 1 2.5 1h1.2c1 0 1.8-0.3 2.5-1s1-1.5 1-2.5v-84.2c0-1.4 0.7-2.1 2.1-2.1h13.4c1.4 0 2.1 0.7 2.1 2.1"/>
<path class="st0" d="m212.6 387.6h4.8c1 0 1.8-0.3 2.5-1s1-1.5 1-2.5v-22.9c0-1-0.4-1.8-1-2.5-0.7-0.7-1.6-1.1-2.5-1.1h-4.8zm28.9 56.7c0.3 1.4-0.2 2.1-1.5 2.1h-13.6c-0.6 0-1.2-0.2-1.7-0.6-0.6-0.4-0.9-0.9-1.1-1.5l-10.9-36.7v38.8l-0.2-1.5c-0.2 1-0.8 1.5-1.9 1.5h-13.3c-1.4 0-2.1-0.7-2.1-2.1v-100.7c0-1.4 0.7-2.1 2.1-2.1h22.5c2.6 0 5 0.5 7.3 1.5s4.3 2.3 6 4 3 3.7 4 6 1.5 4.7 1.5 7.3v24.4c0 3.7-1 7-2.8 10-1.9 2.9-4.4 5.2-7.5 6.8z"/>
<path class="st0" d="m284.1 430.9v13.3c0 1.4-0.7 2.1-2.1 2.1h-32.5c-1.4 0-2.1-0.7-2.1-2.1v-100.6c0-1.4 0.7-2.1 2.1-2.1h32.5c1.4 0 2.1 0.7 2.1 2.1v13.3c0 1.4-0.7 2.1-2.1 2.1h-17.1v21.6h14.8c1.4 0 2.1 0.7 2.1 2.1v13.3c0 1.4-0.7 2.1-2.1 2.1h-14.8v30.7h17.1c1.4 0.1 2.1 0.8 2.1 2.1"/>
<path id="Fill-15_12_" class="st1" d="m318.7 361.1c0-1-0.4-1.8-1.1-2.5s-1.5-1.1-2.5-1.1h-4.8v72.8h4.8c1 0 1.8-0.4 2.5-1 0.7-0.7 1.1-1.5 1.1-2.5zm-1.4-19.6c2.6 0 5 0.5 7.3 1.5s4.3 2.4 6 4c1.7 1.7 3 3.7 4 6s1.5 4.7 1.5 7.3v67.1c0 2.6-0.5 5-1.5 7.3s-2.3 4.3-4 6-3.7 3-6 4-4.7 1.5-7.3 1.5h-22.5c-1.4 0-2.1-0.7-2.1-2.1v-100.5c0-1.4 0.7-2.1 2.1-2.1z"/>
<path id="Fill-17_12_" class="st1" d="m361.7 387.6h4.8c1 0 1.8-0.3 2.5-1s1-1.5 1-2.5v-22.9c0-1-0.4-1.8-1-2.5-0.7-0.7-1.6-1.1-2.5-1.1h-4.8zm28.9 56.7c0.3 1.4-0.2 2.1-1.5 2.1h-13.6c-0.6 0-1.2-0.2-1.7-0.6-0.6-0.4-0.9-0.9-1.1-1.5l-10.9-36.7v38.8l-0.2-1.5c-0.2 1-0.8 1.5-1.9 1.5h-13.3c-1.4 0-2.1-0.7-2.1-2.1v-100.7c0-1.4 0.7-2.1 2.1-2.1h22.5c2.6 0 5 0.5 7.3 1.5s4.3 2.3 6 4 3 3.7 4 6 1.5 4.7 1.5 7.3v24.4c0 3.7-1 7-2.8 10-1.9 2.9-4.4 5.2-7.5 6.8z"/>
<path id="Fill-19_12_" class="st1" d="m420.8 360.1c0-1-0.4-1.8-1-2.5-0.7-0.7-1.5-1-2.5-1h-1.2c-1 0-1.8 0.4-2.5 1-0.7 0.7-1 1.6-1 2.5v67.7c0 1 0.3 1.8 1 2.5s1.5 1 2.5 1h1.2c1 0 1.8-0.3 2.5-1s1-1.5 1-2.5zm17.6 68.5c0 2.6-0.5 5-1.5 7.3s-2.3 4.3-4 6-3.7 3-6 4-4.7 1.5-7.3 1.5h-5.7c-2.6 0-5-0.5-7.3-1.5s-4.3-2.3-6-4-3-3.7-4-6-1.5-4.7-1.5-7.3v-69.2c0-2.6 0.5-5 1.5-7.3s2.3-4.3 4-6 3.7-3 6-4 4.7-1.5 7.3-1.5h5.7c2.6 0 5 0.5 7.3 1.5s4.3 2.3 6 4 3 3.7 4 6 1.5 4.7 1.5 7.3z"/>
<path id="Fill-21_12_" class="st1" d="m472.2 361.1c0-1-0.4-1.8-1-2.5-0.7-0.7-1.6-1.1-2.5-1.1h-4.8v30.1h4.8c1 0 1.8-0.3 2.5-1s1-1.5 1-2.5zm-1.3-19.6c2.6 0 5 0.5 7.3 1.5s4.3 2.4 6 4c1.7 1.7 3 3.7 4 6s1.5 4.7 1.5 7.3v24.4c0 2.6-0.5 5-1.5 7.3s-2.3 4.3-4 6-3.7 3-6 4-4.7 1.5-7.3 1.5h-7v40.6c0 1.4-0.7 2.1-2.1 2.1h-13.3c-1.4 0-2.1-0.7-2.1-2.1v-100.5c0-1.4 0.7-2.1 2.1-2.1z"/>
<g stroke-width="2.6155">
<path d="m240.61-3.0108e-7 -131.31 75.849v3.0957l131.31 75.849 131.41-75.844v-3.1008z" fill="#2e8ae8"/>
<path d="m372.2 75.848-131.41 75.849h-2.5644v150.22l2.5644 1.4814 131.41-75.849z" fill="#045fb4"/>
<path d="m109.3 227.55 131.31 75.849v-151.7l-131.31-75.849z" fill="#034482"/>
<g fill="#fff">
<path d="m140.27 129.09v52.468l45.97 26.579v9.8949l-45.97-26.584v21.588l67.252 38.773v-52.964l-48.964-28.28v-9.9971l48.964 28.285v-20.99z"/>
<path d="m339.41 128.54c-1.6988 0-3.3999 0.50317-4.8989 1.3026l-60.259 34.875v87.64l64.953-37.572c6.1958-3.5976 9.9971-10.192 9.9971-17.287v-59.063c0-5.3963-4.3964-9.8949-9.7928-9.8949zm-12.418 29.935c1.3789 0.11717 2.6731 0.89636 3.4226 2.1455 0.39972 0.5996 0.49775 1.2979 0.59769 1.9974v28.484c0 4.1972-2.2975 8.0904-5.8951 10.089l-30.38 16.991-0.097-41.971 29.879-17.19c0.78695-0.44971 1.6451-0.61686 2.4724-0.54661z"/>
<path d="m224.8 48.67c-1.8488 0-3.6562 0.10959-5.3996 0.31161-1.7434 0.20192-3.4246 0.50042-5.0266 0.88375-1.602 0.38333-3.1216 0.85061-4.5465 1.3946-1.4248 0.54397-2.7524 1.1653-3.9641 1.8492-1.2117 0.68393-2.3067 1.4292-3.2694 2.2324-0.96263 0.80317-1.7948 1.6627-2.4724 2.5644-0.67768 0.90174-1.2013 1.8453-1.558 2.8249-0.35681 0.97963-0.54662 1.9925-0.54662 3.0293 0 1.0368 0.18989 2.0548 0.54662 3.0344 0.35678 0.97961 0.88037 1.9232 1.558 2.8249 0.67767 0.90174 1.5098 1.7612 2.4724 2.5644s2.0577 1.5485 3.2694 2.2324c1.2117 0.6839 2.5393 1.3053 3.9641 1.8492 1.4248 0.54397 2.9444 1.0113 4.5465 1.3946 1.602 0.38335 3.2833 0.68176 5.0266 0.88375 1.7434 0.20192 3.5508 0.30651 5.3996 0.30651 1.9986 0 3.8993-0.09651 5.798-0.29628l24.582 24.582 39.672-22.385-44.571-12.291c0.44968-0.69954 0.77866-1.4738 0.99101-2.2733 0.21238-0.79945 0.31161-1.627 0.31161-2.4265 0-1.0243-0.18988-2.0259-0.54658-2.9986-0.35681-0.97278-0.88041-1.9153-1.5581-2.8147-0.67765-0.89939-1.5098-1.7552-2.4724-2.5593-0.96264-0.80416-2.0577-1.5556-3.2694-2.2426s-2.5393-1.3114-3.9641-1.8594c-1.4248-0.54808-2.9444-1.0227-4.5465-1.4099-1.6021-0.38722-3.2833-0.68429-5.0267-0.88885-1.7434-0.20453-3.5508-0.31671-5.3996-0.31671z"/>
</g>
</g>
</svg>
