<?xml version="1.0" encoding="UTF-8" standalone="no"?>
<!-- Generator: Adobe Illustrator 21.1.0, SVG Export Plug-In . SVG Version: 6.00 Build 0)  -->

<svg
   version="1.1"
   id="Layer_1"
   x="0px"
   y="0px"
   viewBox="0 0 489.8 447.4"
   style="enable-background:new 0 0 489.8 447.4;"
   xml:space="preserve"
   sodipodi:docname="SecureDrop_LOGO2019-inkscape.svg"
   inkscape:version="1.2.1 (9c6d41e410, 2022-07-14)"
   xmlns:inkscape="http://www.inkscape.org/namespaces/inkscape"
   xmlns:sodipodi="http://sodipodi.sourceforge.net/DTD/sodipodi-0.dtd"
   xmlns="http://www.w3.org/2000/svg"
   xmlns:svg="http://www.w3.org/2000/svg"><defs
   id="defs7878">
	
	

		
	
			
			
		
								
							
								
							
									
								
								
							
									
								
								
							
								
							
									
								
								
							
							
							
							
							
							
							
							
							
							
							
						
						
					
				
			
					
				</defs><sodipodi:namedview
   id="namedview7876"
   pagecolor="#ffffff"
   bordercolor="#666666"
   borderopacity="1.0"
   inkscape:showpageshadow="2"
   inkscape:pageopacity="0.0"
   inkscape:pagecheckerboard="0"
   inkscape:deskcolor="#d1d1d1"
   showgrid="false"
   inkscape:zoom="1.7478766"
   inkscape:cx="245.44066"
   inkscape:cy="223.7"
   inkscape:window-width="1920"
   inkscape:window-height="1011"
   inkscape:window-x="0"
   inkscape:window-y="0"
   inkscape:window-maximized="1"
   inkscape:current-layer="Layer_1" />
<style
   type="text/css"
   id="style7824">
	.st0{fill:#034482;}
	.st1{fill:#2E8AE8;}
	.st2{fill:#045FB4;}
	.st3{fill:none;}
</style>
<g
   id="g8233"><g
     id="g8247"><path
       class="st0"
       d="m 31.9,341.9334 c 2.3,1 4.3,2.3 6,4 1.7,1.7 3,3.7 4,6 1,2.3 1.5,4.7 1.5,7.3 v 5.7 c 0,1.4 -0.6,2.3 -1.9,2.7 l -13.6,3.6 c -1.3,0.4 -1.9,-0.1 -1.9,-1.5 v -9.7 c 0,-1 -0.4,-1.8 -1,-2.5 -0.7,-0.7 -1.5,-1 -2.5,-1 h -1.2 c -1,0 -1.8,0.4 -2.5,1 -0.7,0.7 -1,1.6 -1,2.5 v 13.6 c 0.1,1.1 0.3,2 0.6,2.8 0.3,0.8 0.8,1.6 1.6,2.4 l 19.4,14.8 c 1.6,1.4 2.6,2.8 3.1,4.3 0.5,1.4 0.8,3.1 1,4.9 v 25.8 c 0,2.6 -0.5,5 -1.5,7.3 -1,2.3 -2.3,4.3 -4,6 -1.7,1.7 -3.7,3 -6,4 -2.3,1 -4.7,1.5 -7.3,1.5 H 19 c -2.6,0 -5,-0.5 -7.3,-1.5 -2.3,-1 -4.3,-2.3 -6,-4 -1.7,-1.7 -3,-3.7 -4,-6 -1,-2.3 -1.5,-4.7 -1.5,-7.3 v -14.4 c 0,-1.4 0.6,-2.3 1.9,-2.7 l 13.6,-3.6 c 1.3,-0.4 1.9,0.1 1.9,1.5 v 18.4 c 0,1 0.3,1.8 1,2.5 0.7,0.7 1.5,1 2.5,1 h 1.2 c 1,0 1.8,-0.3 2.5,-1 0.7,-0.7 1,-1.5 1,-2.5 v -19.8 c -0.1,-1.3 -0.3,-2.4 -0.6,-3.4 -0.3,-1 -0.9,-1.9 -1.8,-2.7 l -19.2,-14.9 c -1.5,-1.4 -2.6,-2.8 -3.2,-4.2 -0.7,-1.4 -1,-3.2 -1,-5.5 v -18 c 0,-2.6 0.5,-5 1.5,-7.3 1,-2.3 2.3,-4.3 4,-6 1.7,-1.7 3.7,-3 6,-4 2.3,-1 4.7,-1.5 7.3,-1.5 h 5.7 c 2.7,-0.1 5.1,0.4 7.4,1.4"
       id="path7826" /><path
       class="st0"
       d="m 87.3,430.9 v 13.3 c 0,1.4 -0.7,2.1 -2.1,2.1 H 52.7 c -1.4,0 -2.1,-0.7 -2.1,-2.1 V 343.6 c 0,-1.4 0.7,-2.1 2.1,-2.1 h 32.5 c 1.4,0 2.1,0.7 2.1,2.1 v 13.3 c 0,1.4 -0.7,2.1 -2.1,2.1 h -17 v 21.6 H 83 c 1.4,0 2.1,0.7 2.1,2.1 V 396 c 0,1.4 -0.7,2.1 -2.1,2.1 H 68.2 v 30.7 h 17.1 c 1.3,0.1 2,0.8 2,2.1"
       id="path7830" /><path
       class="st0"
       d="m 126.4,341.9334 c 2.3,1 4.3,2.3 6,4 1.7,1.7 3,3.7 4,6 1,2.3 1.5,4.7 1.5,7.3 v 12 c 0,1.4 -0.7,2.3 -1.9,2.7 l -13.6,2.1 c -1.3,0.4 -1.9,-0.1 -1.9,-1.5 v -14.5 c 0,-1 -0.4,-1.8 -1.1,-2.5 -0.7,-0.7 -1.6,-1 -2.5,-1 h -1.2 c -1,0 -1.8,0.4 -2.5,1 -0.7,0.7 -1,1.6 -1,2.5 v 67.7 c 0,1 0.3,1.8 1,2.5 0.7,0.7 1.5,1 2.5,1 h 1.2 c 1,0 1.8,-0.3 2.5,-1 0.7,-0.7 1.1,-1.5 1.1,-2.5 v -21 c 0,-1.4 0.6,-1.9 1.9,-1.5 l 13.6,1.8 c 1.3,0.4 1.9,1.3 1.9,2.7 v 18.7 c 0,2.6 -0.5,5 -1.5,7.3 -1,2.3 -2.4,4.3 -4,6 -1.7,1.7 -3.7,3 -6,4 -2.3,1 -4.7,1.5 -7.3,1.5 h -5.7 c -2.6,0 -5,-0.5 -7.3,-1.5 -2.3,-1 -4.3,-2.3 -6,-4 -1.7,-1.7 -3,-3.7 -4,-6 -1,-2.3 -1.5,-4.7 -1.5,-7.3 v -69.2 c 0,-2.6 0.5,-5 1.5,-7.3 1,-2.3 2.3,-4.3 4,-6 1.7,-1.7 3.7,-3 6,-4 2.3,-1 4.7,-1.5 7.3,-1.5 h 5.7 c 2.6,0 5.1,0.5 7.3,1.5"
       id="path7833" /><path
       class="st0"
       d="m 187.1,343.6 v 85 c 0,2.6 -0.5,5 -1.5,7.3 -1,2.3 -2.3,4.3 -4,6 -1.7,1.7 -3.7,3 -6,4 -2.3,1 -4.7,1.5 -7.3,1.5 h -5.7 c -2.6,0 -5,-0.5 -7.3,-1.5 -2.3,-1 -4.3,-2.3 -6,-4 -1.7,-1.7 -3,-3.7 -4,-6 -1,-2.3 -1.5,-4.7 -1.5,-7.3 v -85 c 0,-1.4 0.7,-2.1 2.1,-2.1 h 13.3 c 1.4,0 2.1,0.7 2.1,2.1 v 84.2 c 0,1 0.3,1.8 1,2.5 0.7,0.7 1.5,1 2.5,1 h 1.2 c 1,0 1.8,-0.3 2.5,-1 0.7,-0.7 1,-1.5 1,-2.5 v -84.2 c 0,-1.4 0.7,-2.1 2.1,-2.1 H 185 c 1.4,0 2.1,0.7 2.1,2.1"
       id="path7837" /><path
       class="st0"
       d="m 212.6,387.6 h 4.8 c 1,0 1.8,-0.3 2.5,-1 0.7,-0.7 1,-1.5 1,-2.5 v -22.9 c 0,-1 -0.4,-1.8 -1,-2.5 -0.7,-0.7 -1.6,-1.1 -2.5,-1.1 h -4.8 z m 28.9,56.7 c 0.3,1.4 -0.2,2.1 -1.5,2.1 h -13.6 c -0.6,0 -1.2,-0.2 -1.7,-0.6 -0.6,-0.4 -0.9,-0.9 -1.1,-1.5 l -10.9,-36.7 v 38.8 l -0.2,-1.5 c -0.2,1 -0.8,1.5 -1.9,1.5 h -13.3 c -1.4,0 -2.1,-0.7 -2.1,-2.1 V 343.6 c 0,-1.4 0.7,-2.1 2.1,-2.1 h 22.5 c 2.6,0 5,0.5 7.3,1.5 2.3,1 4.3,2.3 6,4 1.7,1.7 3,3.7 4,6 1,2.3 1.5,4.7 1.5,7.3 v 24.4 c 0,3.7 -1,7 -2.8,10 -1.9,2.9 -4.4,5.2 -7.5,6.8 z"
       id="path7840" /><path
       class="st0"
       d="m 284.1,430.9 v 13.3 c 0,1.4 -0.7,2.1 -2.1,2.1 h -32.5 c -1.4,0 -2.1,-0.7 -2.1,-2.1 V 343.6 c 0,-1.4 0.7,-2.1 2.1,-2.1 H 282 c 1.4,0 2.1,0.7 2.1,2.1 v 13.3 c 0,1.4 -0.7,2.1 -2.1,2.1 h -17.1 v 21.6 h 14.8 c 1.4,0 2.1,0.7 2.1,2.1 V 396 c 0,1.4 -0.7,2.1 -2.1,2.1 h -14.8 v 30.7 H 282 c 1.4,0.1 2.1,0.8 2.1,2.1"
       id="path7845" /></g><g
     id="g8239"><path
       id="Fill-15_12_"
       class="st1"
       d="m 318.7,361.1 c 0,-1 -0.4,-1.8 -1.1,-2.5 -0.7,-0.7 -1.5,-1.1 -2.5,-1.1 h -4.8 v 72.8 h 4.8 c 1,0 1.8,-0.4 2.5,-1 0.7,-0.7 1.1,-1.5 1.1,-2.5 z m -1.4,-19.6 c 2.6,0 5,0.5 7.3,1.5 2.3,1 4.3,2.4 6,4 1.7,1.7 3,3.7 4,6 1,2.3 1.5,4.7 1.5,7.3 v 67.1 c 0,2.6 -0.5,5 -1.5,7.3 -1,2.3 -2.3,4.3 -4,6 -1.7,1.7 -3.7,3 -6,4 -2.3,1 -4.7,1.5 -7.3,1.5 h -22.5 c -1.4,0 -2.1,-0.7 -2.1,-2.1 V 343.6 c 0,-1.4 0.7,-2.1 2.1,-2.1 z" /><path
       id="Fill-17_12_"
       class="st1"
       d="m 361.7,387.6 h 4.8 c 1,0 1.8,-0.3 2.5,-1 0.7,-0.7 1,-1.5 1,-2.5 v -22.9 c 0,-1 -0.4,-1.8 -1,-2.5 -0.7,-0.7 -1.6,-1.1 -2.5,-1.1 h -4.8 z m 28.9,56.7 c 0.3,1.4 -0.2,2.1 -1.5,2.1 h -13.6 c -0.6,0 -1.2,-0.2 -1.7,-0.6 -0.6,-0.4 -0.9,-0.9 -1.1,-1.5 l -10.9,-36.7 v 38.8 l -0.2,-1.5 c -0.2,1 -0.8,1.5 -1.9,1.5 h -13.3 c -1.4,0 -2.1,-0.7 -2.1,-2.1 V 343.6 c 0,-1.4 0.7,-2.1 2.1,-2.1 h 22.5 c 2.6,0 5,0.5 7.3,1.5 2.3,1 4.3,2.3 6,4 1.7,1.7 3,3.7 4,6 1,2.3 1.5,4.7 1.5,7.3 v 24.4 c 0,3.7 -1,7 -2.8,10 -1.9,2.9 -4.4,5.2 -7.5,6.8 z" /><path
       id="Fill-19_12_"
       class="st1"
       d="m 420.8,360.1 c 0,-1 -0.4,-1.8 -1,-2.5 -0.7,-0.7 -1.5,-1 -2.5,-1 h -1.2 c -1,0 -1.8,0.4 -2.5,1 -0.7,0.7 -1,1.6 -1,2.5 v 67.7 c 0,1 0.3,1.8 1,2.5 0.7,0.7 1.5,1 2.5,1 h 1.2 c 1,0 1.8,-0.3 2.5,-1 0.7,-0.7 1,-1.5 1,-2.5 z m 17.6,68.5 c 0,2.6 -0.5,5 -1.5,7.3 -1,2.3 -2.3,4.3 -4,6 -1.7,1.7 -3.7,3 -6,4 -2.3,1 -4.7,1.5 -7.3,1.5 h -5.7 c -2.6,0 -5,-0.5 -7.3,-1.5 -2.3,-1 -4.3,-2.3 -6,-4 -1.7,-1.7 -3,-3.7 -4,-6 -1,-2.3 -1.5,-4.7 -1.5,-7.3 v -69.2 c 0,-2.6 0.5,-5 1.5,-7.3 1,-2.3 2.3,-4.3 4,-6 1.7,-1.7 3.7,-3 6,-4 2.3,-1 4.7,-1.5 7.3,-1.5 h 5.7 c 2.6,0 5,0.5 7.3,1.5 2.3,1 4.3,2.3 6,4 1.7,1.7 3,3.7 4,6 1,2.3 1.5,4.7 1.5,7.3 z" /><path
       id="Fill-21_12_"
       class="st1"
       d="m 472.2,361.1 c 0,-1 -0.4,-1.8 -1,-2.5 -0.7,-0.7 -1.6,-1.1 -2.5,-1.1 h -4.8 v 30.1 h 4.8 c 1,0 1.8,-0.3 2.5,-1 0.7,-0.7 1,-1.5 1,-2.5 z m -1.3,-19.6 c 2.6,0 5,0.5 7.3,1.5 2.3,1 4.3,2.4 6,4 1.7,1.7 3,3.7 4,6 1,2.3 1.5,4.7 1.5,7.3 v 24.4 c 0,2.6 -0.5,5 -1.5,7.3 -1,2.3 -2.3,4.3 -4,6 -1.7,1.7 -3.7,3 -6,4 -2.3,1 -4.7,1.5 -7.3,1.5 h -7 v 40.6 c 0,1.4 -0.7,2.1 -2.1,2.1 h -13.3 c -1.4,0 -2.1,-0.7 -2.1,-2.1 V 343.6 c 0,-1.4 0.7,-2.1 2.1,-2.1 z" /></g></g>

<g
   id="g8221"><path
     id="path37-1-0"
     style="fill:#2e8ae8;stroke-width:2.61549"
     d="M 240.61106,-3.0108e-7 109.3,75.849343 v 3.0957 L 240.61106,154.79439 372.02442,78.950143 v -3.1008 z" /><path
     id="rect844-2-9-6"
     style="fill:#045fb4;stroke-width:2.61549"
     d="M 372.2,75.848245 240.78672,151.69759 h -2.56441 v 150.21724 l 2.56441,1.48144 L 372.2,227.54693 Z" /><path
     d="M 109.3,227.54732 240.61198,303.3963 V 151.69837 L 109.3,75.849422 Z"
     id="path41"
     style="fill:#034482;stroke-width:2.61549" /><path
     id="path6016-3"
     style="fill:#ffffff;stroke-width:2.61549"
     d="m 140.27483,129.08993 v 52.46826 l 45.97038,26.57895 v 9.89494 l -45.97038,-26.58405 v 21.58803 l 67.25193,38.77267 v -52.96377 l -48.96389,-28.28003 v -9.9971 l 48.96389,28.28513 V 167.8626 Z" /><path
     id="path35-6"
     style="fill:#ffffff;stroke-width:2.61549"
     d="m 339.41378,128.54078 c -1.69884,0 -3.39994,0.50317 -4.89893,1.30265 l -60.25856,34.87495 v 87.6395 l 64.95317,-37.57218 c 6.19581,-3.59759 9.9971,-10.19159 9.9971,-17.2868 v -59.06318 c 0,-5.39634 -4.39641,-9.89494 -9.79278,-9.89494 z m -12.41847,29.93515 c 1.37894,0.11717 2.67311,0.89636 3.42261,2.14552 0.39972,0.5996 0.49775,1.29786 0.59769,1.9974 v 28.48436 c 0,4.19716 -2.2975,8.09043 -5.89509,10.08906 l -30.37957,16.99051 -0.097,-41.97053 29.87897,-17.18971 c 0.78695,-0.44971 1.64509,-0.61686 2.47245,-0.54661 z" /><path
     id="rect844-9"
     style="fill:#ffffff;stroke-width:2.61549"
     d="m 224.80477,48.670117 c -1.84877,0 -3.65623,0.109589 -5.39959,0.31161 -1.74336,0.201916 -3.4246,0.500423 -5.02664,0.88375 -1.60204,0.383326 -3.12164,0.850611 -4.54646,1.394581 -1.42482,0.543971 -2.75244,1.165334 -3.96412,1.849233 -1.21168,0.683926 -2.30674,1.429211 -3.26937,2.232377 -0.96263,0.803167 -1.79478,1.66267 -2.47245,2.564414 -0.67768,0.901744 -1.20127,1.84531 -1.55805,2.824918 -0.35681,0.979633 -0.54662,1.992483 -0.54662,3.029292 0,1.036808 0.18989,2.054758 0.54662,3.034392 0.35678,0.979607 0.88037,1.923199 1.55805,2.824917 0.67767,0.901744 1.50982,1.761248 2.47245,2.564414 0.96263,0.803166 2.05769,1.548451 3.26937,2.232377 1.21168,0.6839 2.5393,1.305263 3.96412,1.849233 1.42482,0.543971 2.94442,1.011255 4.54646,1.394582 1.60204,0.383353 3.28328,0.681755 5.02664,0.883749 1.74336,0.201917 3.55082,0.30651 5.39959,0.30651 1.99865,0 3.89928,-0.09651 5.798,-0.296283 l 24.58157,24.581567 39.67174,-22.38497 -44.57067,-12.290758 c 0.44968,-0.699541 0.77866,-1.473779 0.99101,-2.273258 0.21238,-0.799452 0.31161,-1.62702 0.31161,-2.426472 0,-1.024306 -0.18988,-2.025858 -0.54658,-2.998613 -0.35681,-0.97278 -0.88041,-1.915326 -1.55808,-2.814743 -0.67765,-0.89939 -1.50982,-1.755153 -2.47245,-2.559287 -0.96264,-0.80416 -2.05769,-1.555566 -3.26937,-2.242604 -1.21168,-0.687038 -2.53928,-1.311356 -3.9641,-1.859433 -1.42484,-0.548077 -2.94442,-1.022685 -4.54646,-1.409935 -1.60207,-0.387224 -3.28331,-0.684292 -5.02667,-0.88885 -1.74335,-0.204531 -3.55082,-0.31671 -5.39955,-0.31671 z" /></g></svg>
