<?xml version="1.0" encoding="utf-8"?>
<!-- Generator: Adobe Illustrator 21.1.0, SVG Export Plug-In . SVG Version: 6.00 Build 0)  -->
<svg version="1.1" id="Layer_1" xmlns="http://www.w3.org/2000/svg" xmlns:xlink="http://www.w3.org/1999/xlink" x="0px" y="0px"
	 viewBox="0 0 612 792" style="enable-background:new 0 0 612 792;" xml:space="preserve">
<style type="text/css">
	.st0{fill:none;}
	.st1{fill:#000C6C;}
	.st2{fill:#FFFFFF;}
	.st3{fill:none;stroke:#E700C7;stroke-width:0.7;stroke-miterlimit:10;}
	.st4{fill:none;stroke:#E700C7;stroke-width:0.7;stroke-miterlimit:10;stroke-dasharray:1.4102,2.1153;}
	.st5{fill:none;stroke:#E700C7;stroke-width:0.7;stroke-miterlimit:10;stroke-dasharray:1.4102,2.1153,1.4102,2.1153;}
	.st6{fill:#E700C7;}
	.st7{font-family:'Verdana';}
	.st8{font-size:8.4px;}
	.st9{fill:none;stroke:#EC008C;stroke-width:0.5989;stroke-miterlimit:10;}
	.st10{fill:none;stroke:#EC008C;stroke-width:0.6039;stroke-miterlimit:10;}
	.st11{fill:none;stroke:#EC008C;stroke-width:0.7754;stroke-miterlimit:10;}
	.st12{fill:none;stroke:#EC008C;stroke-width:0.7754;stroke-miterlimit:10;stroke-dasharray:0.6,1.8;}
	.st13{fill:none;stroke:#EC008C;stroke-width:0.7754;stroke-miterlimit:10;stroke-dasharray:0.596,1.7881;}
	.st14{opacity:0.61;}
	.st15{fill:#EC008C;}
	.st16{font-family:'Verdana-Bold';}
	.st17{font-size:8px;}
</style>
<g>
	<polygon class="st0" points="232.5,263.1 260.5,279.3 260.5,285.3 232.5,269.1 232.5,282.3 273.5,305.9 273.5,273.6 243.7,256.4 
		243.7,250.3 273.5,267.5 273.5,254.8 232.5,231.1 	"/>
	<path class="st0" d="M352.4,204.6l-66.8-34.9l-66.8,34.9l66.8,38.6L352.4,204.6z M276.2,207.7c-8.2,0-14.9-3.8-14.9-8.3
		s6.6-8.3,14.9-8.3c8.2,0,14.9,3.8,14.9,8.3c0,0.9-0.2,1.8-0.7,2.6l24.7,6.8l-22,12.4l-13.6-13.7
		C278.3,207.7,277.3,207.7,276.2,207.7z"/>
	<path class="st0" d="M338.2,232c-1,0-2.1,0.3-3,0.8l-36.7,21.2v53.4l39.6-22.9c3.8-2.2,6.1-6.2,6.1-10.5v-36
		C344.1,234.8,341.5,232,338.2,232z M333.1,270.2c0,2.6-1.4,4.9-3.6,6.1L311,286.7l-0.1-25.6l18.2-10.5c1.3-0.7,2.9-0.2,3.6,1
		c0.2,0.4,0.3,0.8,0.4,1.2V270.2z"/>
	<path class="st1" d="M329.1,250.6l-18.2,10.5l0.1,25.6l18.5-10.4c2.2-1.2,3.6-3.6,3.6-6.1v-17.4c-0.1-0.4-0.1-0.9-0.4-1.2
		C332,250.4,330.4,249.9,329.1,250.6z"/>
	<path class="st1" d="M358.3,204l0.3-0.2l-73.1-38.2l-73,38.2l0.3,0.2v83.9l72.7,42v0l0,0l0,0v0l72.7-42V204z M285.6,169.6
		l66.8,34.9l-66.8,38.6l-66.8-38.6L285.6,169.6z M273.5,267.5l-29.8-17.2v6.1l29.8,17.2v32.3l-41-23.6v-13.2l28,16.2v-6l-28-16.2
		v-32l41,23.6V267.5z M344.1,274.1c0,4.3-2.3,8.3-6.1,10.5l-39.6,22.9v-53.4l36.7-21.2c0.9-0.5,1.9-0.8,3-0.8c3.3,0,6,2.7,6,6V274.1
		z"/>
	<path class="st1" d="M315,208.8l-24.7-6.8c0.5-0.8,0.7-1.7,0.7-2.6c0-4.6-6.6-8.3-14.9-8.3c-8.2,0-14.9,3.8-14.9,8.3
		s6.6,8.3,14.9,8.3c1.1,0,2.1-0.1,3.2-0.2l13.6,13.7L315,208.8z"/>
</g>
<g>
	<g>
		<g id="Symbols_8_">
			<g>
				<g id="Logo_x2F_White-Text_8_">
					<g id="SD-Logo_8_">
						<g id="Group-3_8_" transform="translate(0.000000, 0.633400)">
							<g id="Fill-1_8_">
								<path class="st1" d="M217.8,383.1c1.3,0.6,2.4,1.3,3.3,2.2s1.7,2,2.2,3.3s0.8,2.6,0.8,4v3.1c0,0.8-0.3,1.3-1,1.5l-7.5,2
									c-0.7,0.2-1-0.1-1-0.8v-5.4c0-0.6-0.2-1-0.6-1.4c-0.4-0.4-0.8-0.6-1.4-0.6h-0.7c-0.6,0-1,0.2-1.4,0.6
									c-0.4,0.4-0.6,0.9-0.6,1.4v7.5c0.1,0.6,0.2,1.1,0.3,1.5c0.2,0.4,0.4,0.9,0.9,1.3l10.7,8.2c0.9,0.8,1.4,1.5,1.7,2.4
									c0.3,0.8,0.4,1.7,0.6,2.7V431c0,1.4-0.3,2.8-0.8,4c-0.6,1.3-1.3,2.4-2.2,3.3s-2,1.7-3.3,2.2c-1.3,0.6-2.6,0.8-4,0.8h-3.1
									c-1.4,0-2.8-0.3-4-0.8c-1.3-0.6-2.4-1.3-3.3-2.2c-0.9-0.9-1.7-2-2.2-3.3c-0.6-1.3-0.8-2.6-0.8-4v-8c0-0.8,0.3-1.3,1-1.5
									l7.5-2c0.7-0.2,1,0.1,1,0.8v10.2c0,0.6,0.2,1,0.6,1.4s0.8,0.6,1.4,0.6h0.7c0.6,0,1-0.2,1.4-0.6c0.4-0.4,0.6-0.8,0.6-1.4
									v-10.9c-0.1-0.7-0.2-1.3-0.3-1.9c-0.2-0.6-0.5-1-1-1.5l-10.6-8.2c-0.8-0.8-1.4-1.5-1.8-2.3c-0.4-0.8-0.6-1.8-0.6-3v-9.9
									c0-1.4,0.3-2.8,0.8-4c0.6-1.3,1.3-2.4,2.2-3.3c0.9-0.9,2-1.7,3.3-2.2c1.3-0.6,2.6-0.8,4-0.8h3.1
									C215.2,382.3,216.5,382.6,217.8,383.1"/>
							</g>
						</g>
						<g id="Fill-4_8_">
							<path class="st1" d="M248.4,432.9v7.3c0,0.8-0.4,1.2-1.2,1.2h-17.9c-0.8,0-1.2-0.4-1.2-1.2v-55.5c0-0.8,0.4-1.2,1.2-1.2h17.9
								c0.8,0,1.2,0.4,1.2,1.2v7.3c0,0.8-0.4,1.2-1.2,1.2h-9.4v11.9h8.2c0.8,0,1.2,0.4,1.2,1.2v7.3c0,0.8-0.4,1.2-1.2,1.2h-8.2v17
								h9.4C248,431.8,248.4,432.2,248.4,432.9"/>
						</g>
						<g id="Group-8_8_" transform="translate(61.000000, 0.633400)">
							<g id="Fill-6_8_">
								<path class="st1" d="M209,383.1c1.3,0.6,2.4,1.3,3.3,2.2c0.9,0.9,1.7,2,2.2,3.3s0.8,2.6,0.8,4v6.6c0,0.8-0.4,1.3-1,1.5
									l-7.5,1.2c-0.7,0.2-1-0.1-1-0.8v-8c0-0.6-0.2-1-0.6-1.4c-0.4-0.4-0.9-0.6-1.4-0.6h-0.7c-0.6,0-1,0.2-1.4,0.6
									c-0.4,0.4-0.6,0.9-0.6,1.4v37.4c0,0.6,0.2,1,0.6,1.4c0.4,0.4,0.8,0.6,1.4,0.6h0.7c0.6,0,1-0.2,1.4-0.6
									c0.4-0.4,0.6-0.8,0.6-1.4v-11.6c0-0.8,0.3-1,1-0.8l7.5,1c0.7,0.2,1,0.7,1,1.5v10.3c0,1.4-0.3,2.8-0.8,4
									c-0.6,1.3-1.3,2.4-2.2,3.3c-0.9,0.9-2,1.7-3.3,2.2c-1.3,0.6-2.6,0.8-4,0.8h-3.1c-1.4,0-2.8-0.3-4-0.8
									c-1.3-0.6-2.4-1.3-3.3-2.2c-0.9-0.9-1.7-2-2.2-3.3c-0.6-1.3-0.8-2.6-0.8-4v-38.2c0-1.4,0.3-2.8,0.8-4s1.3-2.4,2.2-3.3
									s2-1.7,3.3-2.2c1.3-0.6,2.6-0.8,4-0.8h3.1C206.4,382.3,207.8,382.6,209,383.1"/>
							</g>
						</g>
						<g id="Fill-9_8_">
							<path class="st1" d="M303.5,384.7v46.9c0,1.4-0.3,2.8-0.8,4c-0.6,1.3-1.3,2.4-2.2,3.3c-0.9,0.9-2,1.7-3.3,2.2
								c-1.3,0.6-2.6,0.8-4,0.8H290c-1.4,0-2.8-0.3-4-0.8c-1.3-0.6-2.4-1.3-3.3-2.2c-0.9-0.9-1.7-2-2.2-3.3c-0.6-1.3-0.8-2.6-0.8-4
								v-46.9c0-0.8,0.4-1.2,1.2-1.2h7.3c0.8,0,1.2,0.4,1.2,1.2v46.5c0,0.6,0.2,1,0.6,1.4c0.4,0.4,0.8,0.6,1.4,0.6h0.7
								c0.6,0,1-0.2,1.4-0.6c0.4-0.4,0.6-0.8,0.6-1.4v-46.5c0-0.8,0.4-1.2,1.2-1.2h7.4C303.1,383.5,303.5,383.9,303.5,384.7"/>
						</g>
						<g id="Fill-11_8_">
							<g>
								<path class="st1" d="M317.6,409h2.7c0.6,0,1-0.2,1.4-0.6c0.4-0.4,0.6-0.8,0.6-1.4v-12.6c0-0.6-0.2-1-0.6-1.4
									c-0.4-0.4-0.9-0.6-1.4-0.6h-2.7V409z M333.5,440.3c0.2,0.8-0.1,1.2-0.8,1.2h-7.5c-0.3,0-0.7-0.1-0.9-0.3
									c-0.3-0.2-0.5-0.5-0.6-0.8l-6-20.3v21.4l-0.1-0.8c-0.1,0.6-0.4,0.8-1,0.8h-7.3c-0.8,0-1.2-0.4-1.2-1.2v-55.6
									c0-0.8,0.4-1.2,1.2-1.2h12.4c1.4,0,2.8,0.3,4,0.8c1.3,0.6,2.4,1.3,3.3,2.2c0.9,0.9,1.7,2,2.2,3.3c0.6,1.3,0.8,2.6,0.8,4
									v13.5c0,2-0.6,3.9-1.5,5.5c-1,1.6-2.4,2.9-4.1,3.8L333.5,440.3z"/>
							</g>
						</g>
						<g id="Fill-13_8_">
							<path class="st1" d="M357.1,432.9v7.3c0,0.8-0.4,1.2-1.2,1.2h-17.9c-0.8,0-1.2-0.4-1.2-1.2v-55.5c0-0.8,0.4-1.2,1.2-1.2h17.9
								c0.8,0,1.2,0.4,1.2,1.2v7.3c0,0.8-0.4,1.2-1.2,1.2h-9.4v11.9h8.2c0.8,0,1.2,0.4,1.2,1.2v7.3c0,0.8-0.4,1.2-1.2,1.2h-8.2v17
								h9.4C356.7,431.8,357.1,432.2,357.1,432.9"/>
						</g>
						<path id="Fill-15_8_" class="st1" d="M376.2,394.3c0-0.6-0.2-1-0.6-1.4c-0.4-0.4-0.8-0.6-1.4-0.6h-2.7v40.2h2.7
							c0.6,0,1-0.2,1.4-0.6c0.4-0.4,0.6-0.8,0.6-1.4V394.3z M375.4,383.5c1.4,0,2.8,0.3,4,0.8c1.3,0.6,2.4,1.3,3.3,2.2
							c0.9,0.9,1.7,2,2.2,3.3c0.6,1.3,0.8,2.6,0.8,4v37.1c0,1.4-0.3,2.8-0.8,4c-0.6,1.3-1.3,2.4-2.2,3.3c-0.9,0.9-2,1.7-3.3,2.2
							c-1.3,0.6-2.6,0.8-4,0.8H363c-0.8,0-1.2-0.4-1.2-1.2v-55.5c0-0.8,0.4-1.2,1.2-1.2H375.4z"/>
						<path id="Fill-17_8_" class="st1" d="M399.9,409h2.7c0.6,0,1-0.2,1.4-0.6c0.4-0.4,0.6-0.8,0.6-1.4v-12.6c0-0.6-0.2-1-0.6-1.4
							c-0.4-0.4-0.9-0.6-1.4-0.6h-2.7V409z M415.9,440.3c0.2,0.8-0.1,1.2-0.8,1.2h-7.5c-0.3,0-0.7-0.1-0.9-0.3
							c-0.3-0.2-0.5-0.5-0.6-0.8l-6-20.3v21.4l-0.1-0.8c-0.1,0.6-0.4,0.8-1,0.8h-7.3c-0.8,0-1.2-0.4-1.2-1.2v-55.6
							c0-0.8,0.4-1.2,1.2-1.2h12.4c1.4,0,2.8,0.3,4,0.8c1.3,0.6,2.4,1.3,3.3,2.2s1.7,2,2.2,3.3c0.6,1.3,0.8,2.6,0.8,4v13.5
							c0,2-0.6,3.9-1.5,5.5c-1,1.6-2.4,2.9-4.1,3.8L415.9,440.3z"/>
						<path id="Fill-19_8_" class="st1" d="M432.5,393.8c0-0.6-0.2-1-0.6-1.4c-0.4-0.4-0.8-0.6-1.4-0.6h-0.7c-0.6,0-1,0.2-1.4,0.6
							c-0.4,0.4-0.6,0.9-0.6,1.4v37.4c0,0.6,0.2,1,0.6,1.4c0.4,0.4,0.8,0.6,1.4,0.6h0.7c0.6,0,1-0.2,1.4-0.6
							c0.4-0.4,0.6-0.8,0.6-1.4V393.8z M442.3,431.6c0,1.4-0.3,2.8-0.8,4c-0.6,1.3-1.3,2.4-2.2,3.3c-0.9,0.9-2,1.7-3.3,2.2
							c-1.3,0.6-2.6,0.8-4,0.8h-3.1c-1.4,0-2.8-0.3-4-0.8c-1.3-0.6-2.4-1.3-3.3-2.2c-0.9-0.9-1.7-2-2.2-3.3c-0.6-1.3-0.8-2.6-0.8-4
							v-38.2c0-1.4,0.3-2.8,0.8-4c0.6-1.3,1.3-2.4,2.2-3.3c0.9-0.9,2-1.7,3.3-2.2c1.3-0.6,2.6-0.8,4-0.8h3.1c1.4,0,2.8,0.3,4,0.8
							c1.3,0.6,2.4,1.3,3.3,2.2c0.9,0.9,1.7,2,2.2,3.3c0.6,1.3,0.8,2.6,0.8,4V431.6z"/>
						<path id="Fill-21_8_" class="st1" d="M460.9,394.3c0-0.6-0.2-1-0.6-1.4c-0.4-0.4-0.9-0.6-1.4-0.6h-2.7V409h2.7
							c0.6,0,1-0.2,1.4-0.6c0.4-0.4,0.6-0.8,0.6-1.4V394.3z M460.2,383.5c1.4,0,2.8,0.3,4,0.8c1.3,0.6,2.4,1.3,3.3,2.2
							c0.9,0.9,1.7,2,2.2,3.3c0.6,1.3,0.8,2.6,0.8,4v13.5c0,1.4-0.3,2.8-0.8,4c-0.6,1.3-1.3,2.4-2.2,3.3s-2,1.7-3.3,2.2
							c-1.3,0.6-2.6,0.8-4,0.8h-3.9v22.4c0,0.8-0.4,1.2-1.2,1.2h-7.3c-0.8,0-1.2-0.4-1.2-1.2v-55.5c0-0.8,0.4-1.2,1.2-1.2H460.2z"/>
					</g>
				</g>
			</g>
		</g>
	</g>
	<g>
		<g>
			<path class="st1" d="M170.2,406.1c-0.5,0-1.1,0.2-1.6,0.4l-19.1,11v27.8l20.6-11.9c2-1.1,3.2-3.2,3.2-5.5v-18.7
				C173.3,407.5,171.9,406.1,170.2,406.1z M167.6,425.9c0,1.3-0.7,2.6-1.9,3.2l-9.6,5.4l0-13.3l9.5-5.4c0.7-0.4,1.5-0.1,1.9,0.5
				c0.1,0.2,0.2,0.4,0.2,0.6V425.9z"/>
			<polygon class="st1" points="116.5,421.7 131.5,430.4 131.5,433.7 116.5,425 116.5,432 138.4,444.7 138.4,427.4 122.4,418.2 
				122.4,414.9 138.4,424.1 138.4,417.3 116.5,404.6 			"/>
		</g>
		<path class="st1" d="M182.7,389.4L182.7,389.4l-38.2-20.2l-38.3,19.9v46.6l38.6,22.6l38.1-23.2L182.7,389.4z M139,382.2
			c4.3,0,7.7,2,7.7,4.3c0,0.5-0.1,0.9-0.4,1.4l12.8,3.5l-11.4,6.4l-7.1-7.1c-0.6,0.1-1.1,0.1-1.7,0.1c-4.3,0-7.7-2-7.7-4.3
			C131.3,384.1,134.7,382.2,139,382.2z M144.8,455l-36.1-20.8v-42.1l35.8,19.8l35.7-19.7l0.1,41.4L144.8,455z"/>
	</g>
</g>
<rect x="200.7" y="692" class="st1" width="207.6" height="59.5"/>
<g>
	<g>
		<g id="Symbols_10_">
			<g>
				<g id="Logo_x2F_White-Text_10_">
					<g id="SD-Logo_10_">
						<g id="Group-3_10_" transform="translate(0.000000, 0.633400)">
							<g id="Fill-1_10_">
								<path class="st1" d="M276,650c0.5,0.2,0.9,0.5,1.2,0.8c0.3,0.3,0.6,0.7,0.8,1.2s0.3,0.9,0.3,1.5v1.2c0,0.3-0.1,0.5-0.4,0.5
									l-2.7,0.7c-0.3,0.1-0.4,0-0.4-0.3v-2c0-0.2-0.1-0.4-0.2-0.5c-0.1-0.1-0.3-0.2-0.5-0.2h-0.2c-0.2,0-0.4,0.1-0.5,0.2
									c-0.1,0.1-0.2,0.3-0.2,0.5v2.7c0,0.2,0.1,0.4,0.1,0.6c0.1,0.2,0.2,0.3,0.3,0.5l3.9,3c0.3,0.3,0.5,0.6,0.6,0.9
									c0.1,0.3,0.2,0.6,0.2,1v5.2c0,0.5-0.1,1-0.3,1.5s-0.5,0.9-0.8,1.2s-0.7,0.6-1.2,0.8c-0.5,0.2-0.9,0.3-1.5,0.3h-1.2
									c-0.5,0-1-0.1-1.5-0.3c-0.5-0.2-0.9-0.5-1.2-0.8s-0.6-0.7-0.8-1.2s-0.3-0.9-0.3-1.5v-2.9c0-0.3,0.1-0.5,0.4-0.5l2.7-0.7
									c0.3-0.1,0.4,0,0.4,0.3v3.7c0,0.2,0.1,0.4,0.2,0.5c0.1,0.1,0.3,0.2,0.5,0.2h0.2c0.2,0,0.4-0.1,0.5-0.2
									c0.1-0.1,0.2-0.3,0.2-0.5v-4c0-0.3-0.1-0.5-0.1-0.7c-0.1-0.2-0.2-0.4-0.4-0.5l-3.9-3c-0.3-0.3-0.5-0.6-0.6-0.8
									c-0.1-0.3-0.2-0.6-0.2-1.1v-3.6c0-0.5,0.1-1,0.3-1.5s0.5-0.9,0.8-1.2c0.3-0.3,0.7-0.6,1.2-0.8s0.9-0.3,1.5-0.3h1.2
									C275.1,649.7,275.6,649.8,276,650"/>
							</g>
						</g>
						<g id="Fill-4_10_">
							<path class="st1" d="M287.9,668.6v2.7c0,0.3-0.1,0.4-0.4,0.4h-6.6c-0.3,0-0.4-0.1-0.4-0.4V651c0-0.3,0.1-0.4,0.4-0.4h6.6
								c0.3,0,0.4,0.1,0.4,0.4v2.7c0,0.3-0.1,0.4-0.4,0.4h-3.4v4.4h3c0.3,0,0.4,0.1,0.4,0.4v2.7c0,0.3-0.1,0.4-0.4,0.4h-3v6.2h3.5
								C287.8,668.2,287.9,668.4,287.9,668.6"/>
						</g>
						<g id="Group-8_10_" transform="translate(61.000000, 0.633400)">
							<g id="Fill-6_10_">
								<path class="st1" d="M235.5,650c0.5,0.2,0.9,0.5,1.2,0.8c0.3,0.3,0.6,0.7,0.8,1.2c0.2,0.5,0.3,0.9,0.3,1.5v2.4
									c0,0.3-0.1,0.5-0.4,0.5l-2.7,0.4c-0.3,0.1-0.4,0-0.4-0.3v-2.9c0-0.2-0.1-0.4-0.2-0.5c-0.1-0.1-0.3-0.2-0.5-0.2h-0.2
									c-0.2,0-0.4,0.1-0.5,0.2c-0.1,0.1-0.2,0.3-0.2,0.5v13.7c0,0.2,0.1,0.4,0.2,0.5c0.1,0.1,0.3,0.2,0.5,0.2h0.2
									c0.2,0,0.4-0.1,0.5-0.2c0.1-0.1,0.2-0.3,0.2-0.5v-4.2c0-0.3,0.1-0.4,0.4-0.3l2.7,0.4c0.3,0.1,0.4,0.3,0.4,0.5v3.8
									c0,0.5-0.1,1-0.3,1.5c-0.2,0.5-0.5,0.9-0.8,1.2c-0.3,0.3-0.7,0.6-1.2,0.8s-0.9,0.3-1.5,0.3h-1.2c-0.5,0-1-0.1-1.5-0.3
									s-0.9-0.5-1.2-0.8c-0.3-0.3-0.6-0.7-0.8-1.2c-0.2-0.5-0.3-0.9-0.3-1.5v-14c0-0.5,0.1-1,0.3-1.5c0.2-0.5,0.5-0.9,0.8-1.2
									c0.3-0.3,0.7-0.6,1.2-0.8s0.9-0.3,1.5-0.3h1.2C234.6,649.7,235.1,649.8,235.5,650"/>
							</g>
						</g>
						<g id="Fill-9_10_">
							<path class="st1" d="M309.5,651v17.2c0,0.5-0.1,1-0.3,1.5c-0.2,0.5-0.5,0.9-0.8,1.2c-0.3,0.3-0.7,0.6-1.2,0.8
								c-0.5,0.2-0.9,0.3-1.5,0.3h-1.2c-0.5,0-1-0.1-1.5-0.3c-0.5-0.2-0.9-0.5-1.2-0.8c-0.3-0.3-0.6-0.7-0.8-1.2
								c-0.2-0.5-0.3-0.9-0.3-1.5V651c0-0.3,0.1-0.4,0.4-0.4h2.7c0.3,0,0.4,0.1,0.4,0.4v17c0,0.2,0.1,0.4,0.2,0.5
								c0.1,0.1,0.3,0.2,0.5,0.2h0.2c0.2,0,0.4-0.1,0.5-0.2c0.1-0.1,0.2-0.3,0.2-0.5v-17c0-0.3,0.1-0.4,0.4-0.4h2.7
								C309.3,650.5,309.5,650.7,309.5,651"/>
						</g>
						<g id="Fill-11_10_">
							<g>
								<path class="st1" d="M315.3,659.9h1c0.2,0,0.4-0.1,0.5-0.2c0.1-0.1,0.2-0.3,0.2-0.5v-4.6c0-0.2-0.1-0.4-0.2-0.5
									c-0.1-0.1-0.3-0.2-0.5-0.2h-1V659.9z M321.2,671.3c0.1,0.3,0,0.4-0.3,0.4h-2.7c-0.1,0-0.2,0-0.3-0.1
									c-0.1-0.1-0.2-0.2-0.2-0.3l-2.2-7.4v7.8l0-0.3c0,0.2-0.2,0.3-0.4,0.3h-2.7c-0.3,0-0.4-0.1-0.4-0.4V651
									c0-0.3,0.1-0.4,0.4-0.4h4.5c0.5,0,1,0.1,1.5,0.3s0.9,0.5,1.2,0.8c0.3,0.3,0.6,0.7,0.8,1.2s0.3,0.9,0.3,1.5v4.9
									c0,0.7-0.2,1.4-0.6,2c-0.4,0.6-0.9,1.1-1.5,1.4L321.2,671.3z"/>
							</g>
						</g>
						<g id="Fill-13_10_">
							<path class="st1" d="M329.8,668.6v2.7c0,0.3-0.1,0.4-0.4,0.4h-6.6c-0.3,0-0.4-0.1-0.4-0.4V651c0-0.3,0.1-0.4,0.4-0.4h6.6
								c0.3,0,0.4,0.1,0.4,0.4v2.7c0,0.3-0.1,0.4-0.4,0.4h-3.5v4.4h3c0.3,0,0.4,0.1,0.4,0.4v2.7c0,0.3-0.1,0.4-0.4,0.4h-3v6.2h3.5
								C329.6,668.2,329.8,668.4,329.8,668.6"/>
						</g>
						<path id="Fill-15_10_" class="st1" d="M336.8,654.5c0-0.2-0.1-0.4-0.2-0.5c-0.1-0.1-0.3-0.2-0.5-0.2h-1v14.7h1
							c0.2,0,0.4-0.1,0.5-0.2c0.1-0.1,0.2-0.3,0.2-0.5V654.5z M336.5,650.5c0.5,0,1,0.1,1.5,0.3s0.9,0.5,1.2,0.8
							c0.3,0.3,0.6,0.7,0.8,1.2s0.3,0.9,0.3,1.5v13.6c0,0.5-0.1,1-0.3,1.5s-0.5,0.9-0.8,1.2s-0.7,0.6-1.2,0.8
							c-0.5,0.2-0.9,0.3-1.5,0.3H332c-0.3,0-0.4-0.1-0.4-0.4V651c0-0.3,0.1-0.4,0.4-0.4H336.5z"/>
						<path id="Fill-17_10_" class="st1" d="M346.2,659.9h1c0.2,0,0.4-0.1,0.5-0.2c0.1-0.1,0.2-0.3,0.2-0.5v-4.6
							c0-0.2-0.1-0.4-0.2-0.5c-0.1-0.1-0.3-0.2-0.5-0.2h-1V659.9z M352,671.3c0.1,0.3,0,0.4-0.3,0.4H349c-0.1,0-0.2,0-0.3-0.1
							c-0.1-0.1-0.2-0.2-0.2-0.3l-2.2-7.4v7.8l0-0.3c0,0.2-0.2,0.3-0.4,0.3h-2.7c-0.3,0-0.4-0.1-0.4-0.4V651c0-0.3,0.1-0.4,0.4-0.4
							h4.5c0.5,0,1,0.1,1.5,0.3s0.9,0.5,1.2,0.8c0.3,0.3,0.6,0.7,0.8,1.2s0.3,0.9,0.3,1.5v4.9c0,0.7-0.2,1.4-0.6,2
							c-0.4,0.6-0.9,1.1-1.5,1.4L352,671.3z"/>
						<path id="Fill-19_10_" class="st1" d="M358.8,654.3c0-0.2-0.1-0.4-0.2-0.5c-0.1-0.1-0.3-0.2-0.5-0.2h-0.2
							c-0.2,0-0.4,0.1-0.5,0.2c-0.1,0.1-0.2,0.3-0.2,0.5V668c0,0.2,0.1,0.4,0.2,0.5s0.3,0.2,0.5,0.2h0.2c0.2,0,0.4-0.1,0.5-0.2
							s0.2-0.3,0.2-0.5V654.3z M362.4,668.2c0,0.5-0.1,1-0.3,1.5s-0.5,0.9-0.8,1.2c-0.3,0.3-0.7,0.6-1.2,0.8
							c-0.5,0.2-0.9,0.3-1.5,0.3h-1.2c-0.5,0-1-0.1-1.5-0.3c-0.5-0.2-0.9-0.5-1.2-0.8c-0.3-0.3-0.6-0.7-0.8-1.2
							c-0.2-0.5-0.3-0.9-0.3-1.5v-14c0-0.5,0.1-1,0.3-1.5c0.2-0.5,0.5-0.9,0.8-1.2s0.7-0.6,1.2-0.8c0.5-0.2,0.9-0.3,1.5-0.3h1.2
							c0.5,0,1,0.1,1.5,0.3c0.5,0.2,0.9,0.5,1.2,0.8s0.6,0.7,0.8,1.2s0.3,0.9,0.3,1.5V668.2z"/>
						<path id="Fill-21_10_" class="st1" d="M369.9,654.5c0-0.2-0.1-0.4-0.2-0.5c-0.1-0.1-0.3-0.2-0.5-0.2h-1v6.1h1
							c0.2,0,0.4-0.1,0.5-0.2c0.1-0.1,0.2-0.3,0.2-0.5V654.5z M369.6,650.5c0.5,0,1,0.1,1.5,0.3s0.9,0.5,1.2,0.8
							c0.3,0.3,0.6,0.7,0.8,1.2s0.3,0.9,0.3,1.5v4.9c0,0.5-0.1,1-0.3,1.5s-0.5,0.9-0.8,1.2c-0.3,0.3-0.7,0.6-1.2,0.8
							s-0.9,0.3-1.5,0.3h-1.4v8.2c0,0.3-0.1,0.4-0.4,0.4h-2.7c-0.3,0-0.4-0.1-0.4-0.4V651c0-0.3,0.1-0.4,0.4-0.4H369.6z"/>
					</g>
				</g>
			</g>
		</g>
	</g>
	<g>
		<polygon class="st0" points="237.1,664.2 242.6,667.4 242.6,668.6 237.1,665.4 237.1,668 245.2,672.6 245.2,666.3 239.3,662.9 
			239.3,661.7 245.2,665.1 245.2,662.6 237.1,658 		"/>
		<path class="st0" d="M260.6,652.8l-13.1-6.8l-13.1,6.8l13.1,7.6L260.6,652.8z M245.7,653.4c-1.6,0-2.9-0.7-2.9-1.6
			s1.3-1.6,2.9-1.6s2.9,0.7,2.9,1.6c0,0.2,0,0.4-0.1,0.5l4.8,1.3L249,656l-2.7-2.7C246.1,653.4,245.9,653.4,245.7,653.4z"/>
		<path class="st0" d="M257.9,658.1c-0.2,0-0.4,0.1-0.6,0.2l-7.2,4.2v10.5l7.8-4.5c0.7-0.4,1.2-1.2,1.2-2.1v-7.1
			C259,658.7,258.5,658.1,257.9,658.1z M256.8,665.6c0,0.5-0.3,1-0.7,1.2l-3.6,2l0-5l3.6-2.1c0.3-0.1,0.6,0,0.7,0.2
			c0,0.1,0.1,0.2,0.1,0.2V665.6z"/>
		<path class="st1" d="M256.1,661.8l-3.6,2.1l0,5l3.6-2c0.4-0.2,0.7-0.7,0.7-1.2v-3.4c0-0.1,0-0.2-0.1-0.2
			C256.6,661.7,256.3,661.6,256.1,661.8z"/>
		<path class="st1" d="M261.8,652.7L261.8,652.7l-14.3-7.5l-14.3,7.5l0.1,0v16.4l14.3,8.2v0l0,0l0,0v0l14.3-8.2V652.7z M247.5,646.7
			l11.8,6.2l-11.8,6.8l-11.8-6.8L247.5,646.7z M245.2,665.1l-5.8-3.4v1.2l5.8,3.4v6.3l-8-4.6v-2.6l5.5,3.2v-1.2l-5.5-3.2V658l8,4.6
			V665.1z M259,666.4c0,0.8-0.5,1.6-1.2,2.1l-7.8,4.5v-10.5l7.2-4.2c0.2-0.1,0.4-0.2,0.6-0.2c0.6,0,1.2,0.5,1.2,1.2V666.4z"/>
		<path class="st1" d="M252.8,653.5l-4.4-1.2c0.1-0.1,0.1-0.3,0.1-0.5c0-0.8-1.2-1.5-2.6-1.5c-1.4,0-2.6,0.7-2.6,1.5
			s1.2,1.5,2.6,1.5c0.2,0,0.4,0,0.6,0l2.4,2.4L252.8,653.5z"/>
	</g>
</g>
<g>
	<g>
		<g>
			<g id="Symbols_9_">
				<g>
					<g id="Logo_x2F_White-Text_9_">
						<g id="SD-Logo_9_">
							<g id="Group-3_9_" transform="translate(0.000000, 0.633400)">
								<g id="Fill-1_9_">
									<path class="st2" d="M278.4,708c0.5,0.2,0.9,0.5,1.2,0.8c0.3,0.3,0.6,0.7,0.8,1.2s0.3,0.9,0.3,1.5v1.2
										c0,0.3-0.1,0.5-0.4,0.5l-2.7,0.7c-0.3,0.1-0.4,0-0.4-0.3v-2c0-0.2-0.1-0.4-0.2-0.5c-0.1-0.1-0.3-0.2-0.5-0.2h-0.2
										c-0.2,0-0.4,0.1-0.5,0.2c-0.1,0.1-0.2,0.3-0.2,0.5v2.7c0,0.2,0.1,0.4,0.1,0.6c0.1,0.2,0.2,0.3,0.3,0.5l3.9,3
										c0.3,0.3,0.5,0.6,0.6,0.9c0.1,0.3,0.2,0.6,0.2,1v5.2c0,0.5-0.1,1-0.3,1.5s-0.5,0.9-0.8,1.2c-0.3,0.3-0.7,0.6-1.2,0.8
										s-0.9,0.3-1.5,0.3h-1.2c-0.5,0-1-0.1-1.5-0.3s-0.9-0.5-1.2-0.8c-0.3-0.3-0.6-0.7-0.8-1.2c-0.2-0.5-0.3-0.9-0.3-1.5v-2.9
										c0-0.3,0.1-0.5,0.4-0.5l2.7-0.7c0.3-0.1,0.4,0,0.4,0.3v3.7c0,0.2,0.1,0.4,0.2,0.5c0.1,0.1,0.3,0.2,0.5,0.2h0.2
										c0.2,0,0.4-0.1,0.5-0.2c0.1-0.1,0.2-0.3,0.2-0.5v-4c0-0.3-0.1-0.5-0.1-0.7c-0.1-0.2-0.2-0.4-0.4-0.5l-3.9-3
										c-0.3-0.3-0.5-0.6-0.6-0.8c-0.1-0.3-0.2-0.6-0.2-1.1v-3.6c0-0.5,0.1-1,0.3-1.5s0.5-0.9,0.8-1.2c0.3-0.3,0.7-0.6,1.2-0.8
										s0.9-0.3,1.5-0.3h1.2C277.4,707.7,277.9,707.8,278.4,708"/>
								</g>
							</g>
							<g id="Fill-4_9_">
								<path class="st2" d="M290.3,726.6v2.7c0,0.3-0.1,0.4-0.4,0.4h-6.6c-0.3,0-0.4-0.1-0.4-0.4V709c0-0.3,0.1-0.4,0.4-0.4h6.6
									c0.3,0,0.4,0.1,0.4,0.4v2.7c0,0.3-0.1,0.4-0.4,0.4h-3.4v4.4h3c0.3,0,0.4,0.1,0.4,0.4v2.7c0,0.3-0.1,0.4-0.4,0.4h-3v6.2h3.5
									C290.1,726.2,290.3,726.3,290.3,726.6"/>
							</g>
							<g id="Group-8_9_" transform="translate(61.000000, 0.633400)">
								<g id="Fill-6_9_">
									<path class="st2" d="M237.9,708c0.5,0.2,0.9,0.5,1.2,0.8c0.3,0.3,0.6,0.7,0.8,1.2c0.2,0.5,0.3,0.9,0.3,1.5v2.4
										c0,0.3-0.1,0.5-0.4,0.5l-2.7,0.4c-0.3,0.1-0.4,0-0.4-0.3v-2.9c0-0.2-0.1-0.4-0.2-0.5c-0.1-0.1-0.3-0.2-0.5-0.2h-0.2
										c-0.2,0-0.4,0.1-0.5,0.2c-0.1,0.1-0.2,0.3-0.2,0.5v13.7c0,0.2,0.1,0.4,0.2,0.5c0.1,0.1,0.3,0.2,0.5,0.2h0.2
										c0.2,0,0.4-0.1,0.5-0.2c0.1-0.1,0.2-0.3,0.2-0.5v-4.2c0-0.3,0.1-0.4,0.4-0.3l2.7,0.4c0.3,0.1,0.4,0.3,0.4,0.5v3.8
										c0,0.5-0.1,1-0.3,1.5c-0.2,0.5-0.5,0.9-0.8,1.2c-0.3,0.3-0.7,0.6-1.2,0.8s-0.9,0.3-1.5,0.3h-1.2c-0.5,0-1-0.1-1.5-0.3
										s-0.9-0.5-1.2-0.8c-0.3-0.3-0.6-0.7-0.8-1.2c-0.2-0.5-0.3-0.9-0.3-1.5v-14c0-0.5,0.1-1,0.3-1.5c0.2-0.5,0.5-0.9,0.8-1.2
										c0.3-0.3,0.7-0.6,1.2-0.8s0.9-0.3,1.5-0.3h1.2C236.9,707.7,237.4,707.8,237.9,708"/>
								</g>
							</g>
							<g id="Fill-9_9_">
								<path class="st2" d="M311.8,709v17.2c0,0.5-0.1,1-0.3,1.5c-0.2,0.5-0.5,0.9-0.8,1.2c-0.3,0.3-0.7,0.6-1.2,0.8
									s-0.9,0.3-1.5,0.3h-1.2c-0.5,0-1-0.1-1.5-0.3s-0.9-0.5-1.2-0.8c-0.3-0.3-0.6-0.7-0.8-1.2c-0.2-0.5-0.3-0.9-0.3-1.5V709
									c0-0.3,0.1-0.4,0.4-0.4h2.7c0.3,0,0.4,0.1,0.4,0.4v17c0,0.2,0.1,0.4,0.2,0.5c0.1,0.1,0.3,0.2,0.5,0.2h0.2
									c0.2,0,0.4-0.1,0.5-0.2c0.1-0.1,0.2-0.3,0.2-0.5v-17c0-0.3,0.1-0.4,0.4-0.4h2.7C311.7,708.5,311.8,708.7,311.8,709"/>
							</g>
							<g id="Fill-11_9_">
								<g>
									<path class="st2" d="M317.7,717.9h1c0.2,0,0.4-0.1,0.5-0.2s0.2-0.3,0.2-0.5v-4.6c0-0.2-0.1-0.4-0.2-0.5
										c-0.1-0.1-0.3-0.2-0.5-0.2h-1V717.9z M323.5,729.3c0.1,0.3,0,0.4-0.3,0.4h-2.7c-0.1,0-0.2,0-0.3-0.1
										c-0.1-0.1-0.2-0.2-0.2-0.3l-2.2-7.4v7.8l0-0.3c0,0.2-0.2,0.3-0.4,0.3h-2.7c-0.3,0-0.4-0.1-0.4-0.4V709
										c0-0.3,0.1-0.4,0.4-0.4h4.5c0.5,0,1,0.1,1.5,0.3c0.5,0.2,0.9,0.5,1.2,0.8c0.3,0.3,0.6,0.7,0.8,1.2s0.3,0.9,0.3,1.5v4.9
										c0,0.7-0.2,1.4-0.6,2c-0.4,0.6-0.9,1.1-1.5,1.4L323.5,729.3z"/>
								</g>
							</g>
							<g id="Fill-13_9_">
								<path class="st2" d="M332.1,726.6v2.7c0,0.3-0.1,0.4-0.4,0.4h-6.6c-0.3,0-0.4-0.1-0.4-0.4V709c0-0.3,0.1-0.4,0.4-0.4h6.6
									c0.3,0,0.4,0.1,0.4,0.4v2.7c0,0.3-0.1,0.4-0.4,0.4h-3.5v4.4h3c0.3,0,0.4,0.1,0.4,0.4v2.7c0,0.3-0.1,0.4-0.4,0.4h-3v6.2h3.5
									C332,726.2,332.1,726.3,332.1,726.6"/>
							</g>
							<path id="Fill-15_9_" class="st2" d="M339.1,712.5c0-0.2-0.1-0.4-0.2-0.5c-0.1-0.1-0.3-0.2-0.5-0.2h-1v14.7h1
								c0.2,0,0.4-0.1,0.5-0.2c0.1-0.1,0.2-0.3,0.2-0.5V712.5z M338.9,708.5c0.5,0,1,0.1,1.5,0.3s0.9,0.5,1.2,0.8
								c0.3,0.3,0.6,0.7,0.8,1.2c0.2,0.5,0.3,0.9,0.3,1.5v13.6c0,0.5-0.1,1-0.3,1.5c-0.2,0.5-0.5,0.9-0.8,1.2
								c-0.3,0.3-0.7,0.6-1.2,0.8s-0.9,0.3-1.5,0.3h-4.5c-0.3,0-0.4-0.1-0.4-0.4V709c0-0.3,0.1-0.4,0.4-0.4H338.9z"/>
							<path id="Fill-17_9_" class="st2" d="M348.5,717.9h1c0.2,0,0.4-0.1,0.5-0.2s0.2-0.3,0.2-0.5v-4.6c0-0.2-0.1-0.4-0.2-0.5
								c-0.1-0.1-0.3-0.2-0.5-0.2h-1V717.9z M354.4,729.3c0.1,0.3,0,0.4-0.3,0.4h-2.7c-0.1,0-0.2,0-0.3-0.1
								c-0.1-0.1-0.2-0.2-0.2-0.3l-2.2-7.4v7.8l0-0.3c0,0.2-0.2,0.3-0.4,0.3h-2.7c-0.3,0-0.4-0.1-0.4-0.4V709c0-0.3,0.1-0.4,0.4-0.4
								h4.5c0.5,0,1,0.1,1.5,0.3s0.9,0.5,1.2,0.8c0.3,0.3,0.6,0.7,0.8,1.2s0.3,0.9,0.3,1.5v4.9c0,0.7-0.2,1.4-0.6,2
								c-0.4,0.6-0.9,1.1-1.5,1.4L354.4,729.3z"/>
							<path id="Fill-19_9_" class="st2" d="M361.2,712.3c0-0.2-0.1-0.4-0.2-0.5c-0.1-0.1-0.3-0.2-0.5-0.2h-0.2
								c-0.2,0-0.4,0.1-0.5,0.2c-0.1,0.1-0.2,0.3-0.2,0.5V726c0,0.2,0.1,0.4,0.2,0.5c0.1,0.1,0.3,0.2,0.5,0.2h0.2
								c0.2,0,0.4-0.1,0.5-0.2c0.1-0.1,0.2-0.3,0.2-0.5V712.3z M364.7,726.1c0,0.5-0.1,1-0.3,1.5s-0.5,0.9-0.8,1.2
								c-0.3,0.3-0.7,0.6-1.2,0.8s-0.9,0.3-1.5,0.3h-1.2c-0.5,0-1-0.1-1.5-0.3s-0.9-0.5-1.2-0.8c-0.3-0.3-0.6-0.7-0.8-1.2
								c-0.2-0.5-0.3-0.9-0.3-1.5v-14c0-0.5,0.1-1,0.3-1.5c0.2-0.5,0.5-0.9,0.8-1.2c0.3-0.3,0.7-0.6,1.2-0.8s0.9-0.3,1.5-0.3h1.2
								c0.5,0,1,0.1,1.5,0.3s0.9,0.5,1.2,0.8c0.3,0.3,0.6,0.7,0.8,1.2s0.3,0.9,0.3,1.5V726.1z"/>
							<path id="Fill-21_9_" class="st2" d="M372.3,712.8c0-0.2-0.1-0.4-0.2-0.5c-0.1-0.1-0.3-0.2-0.5-0.2h-1v6.1h1
								c0.2,0,0.4-0.1,0.5-0.2c0.1-0.1,0.2-0.3,0.2-0.5V712.8z M372,708.5c0.5,0,1,0.1,1.5,0.3s0.9,0.5,1.2,0.8
								c0.3,0.3,0.6,0.7,0.8,1.2c0.2,0.5,0.3,0.9,0.3,1.5v4.9c0,0.5-0.1,1-0.3,1.5c-0.2,0.5-0.5,0.9-0.8,1.2s-0.7,0.6-1.2,0.8
								c-0.5,0.2-0.9,0.3-1.5,0.3h-1.4v8.2c0,0.3-0.1,0.4-0.4,0.4h-2.7c-0.3,0-0.4-0.1-0.4-0.4V709c0-0.3,0.1-0.4,0.4-0.4H372z"/>
						</g>
					</g>
				</g>
			</g>
		</g>
		<g>
			<polygon class="st2" points="239.5,722.2 245,725.4 245,726.6 239.5,723.4 239.5,726 247.5,730.6 247.5,724.3 241.7,720.9 
				241.7,719.7 247.5,723.1 247.5,720.6 239.5,716 			"/>
			<path class="st2" d="M263,710.8l-13.1-6.8l-13.1,6.8l13.1,7.6L263,710.8z"/>
			<path class="st2" d="M260.2,716.1c-0.2,0-0.4,0.1-0.6,0.2l-7.2,4.2v10.5l7.8-4.5c0.7-0.4,1.2-1.2,1.2-2.1v-7.1
				C261.4,716.7,260.9,716.1,260.2,716.1z M259.2,723.6c0,0.5-0.3,1-0.7,1.2l-3.6,2l0-5l3.6-2.1c0.3-0.1,0.6,0,0.7,0.2
				c0,0.1,0.1,0.2,0.1,0.2V723.6z"/>
			<path class="st2" d="M258.4,719.8l-3.6,2.1l0,5l3.6-2c0.4-0.2,0.7-0.7,0.7-1.2v-3.4c0-0.1,0-0.2-0.1-0.2
				C259,719.7,258.7,719.6,258.4,719.8z"/>
			<path class="st2" d="M264.2,710.7L264.2,710.7l-14.3-7.5l-14.3,7.5l0.1,0v16.4l14.3,8.2v0l0,0l0,0v0l14.3-8.2V710.7z
				 M249.9,704.7l11.8,6.2l-11.8,6.8l-11.8-6.8L249.9,704.7z M247.5,723.1l-5.8-3.4v1.2l5.8,3.4v6.3l-8-4.6v-2.6l5.5,3.2v-1.2
				l-5.5-3.2V716l8,4.6V723.1z M261.4,724.4c0,0.8-0.5,1.6-1.2,2.1l-7.8,4.5v-10.5l7.2-4.2c0.2-0.1,0.4-0.2,0.6-0.2
				c0.6,0,1.2,0.5,1.2,1.2V724.4z"/>
		</g>
	</g>
	<g>
		<polygon class="st1" points="250,704.8 261.8,711 250,717.8 238.2,711 		"/>
		<path class="st2" d="M255.2,711.6l-4.4-1.2c0.1-0.1,0.1-0.3,0.1-0.5c0-0.8-1.2-1.5-2.6-1.5c-1.4,0-2.6,0.7-2.6,1.5
			s1.2,1.5,2.6,1.5c0.2,0,0.4,0,0.6,0l2.4,2.4L255.2,711.6z"/>
	</g>
	<polygon class="st1" points="247.5,722.3 241.6,719 241.6,720.1 247.5,723.5 247.5,729.8 239.5,725.2 239.5,722.6 245,725.8 
		245,724.6 239.5,721.5 239.5,715.2 247.5,719.8 	"/>
	<path class="st1" d="M258.9,719.6c0,0.1,0.1,0.2,0.1,0.2v3.4c0,0.5-0.3,1-0.7,1.2l-3.6,2l0-5l3.6-2.1
		C258.4,719.2,258.8,719.3,258.9,719.6z M261.1,716.8c0-0.6-0.5-1.2-1.2-1.2c-0.2,0-0.4,0.1-0.6,0.2l-7.2,4.2v10.5l7.8-4.5
		c0.7-0.4,1.2-1.2,1.2-2.1V716.8z"/>
</g>
<g>
	<g>
		<g>
			<line class="st3" x1="59.8" y1="345.3" x2="60.5" y2="345.3"/>
			<line class="st4" x1="62.6" y1="345.3" x2="65.1" y2="345.3"/>
			<line class="st5" x1="66.2" y1="345.3" x2="537.5" y2="345.3"/>
			<line class="st3" x1="538.6" y1="345.3" x2="539.3" y2="345.3"/>
		</g>
	</g>
	<text transform="matrix(1 0 0 1 59.8312 338.9594)" class="st6 st7 st8">Mark Only</text>
</g>
<g>
	<g>
		<g>
			<line class="st3" x1="54.9" y1="624.6" x2="55.6" y2="624.6"/>
			<line class="st4" x1="57.7" y1="624.6" x2="60.2" y2="624.6"/>
			<line class="st5" x1="61.3" y1="624.6" x2="532.6" y2="624.6"/>
			<line class="st3" x1="533.7" y1="624.6" x2="534.4" y2="624.6"/>
		</g>
	</g>
	<text transform="matrix(1 0 0 1 54.9274 618.2533)" class="st6 st7 st8">Larger than 50px</text>
</g>
<rect x="55" y="475.9" class="st1" width="477.8" height="115.4"/>
<g>
	<g>
		<g id="Symbols_11_">
			<g>
				<g id="Logo_x2F_White-Text_11_">
					<g id="SD-Logo_11_">
						<g id="Group-3_11_" transform="translate(0.000000, 0.633400)">
							<g id="Fill-1_11_">
								<path class="st2" d="M218.3,503.2c1.3,0.6,2.4,1.3,3.3,2.2s1.7,2,2.2,3.3s0.8,2.6,0.8,4v3.1c0,0.8-0.3,1.3-1,1.5l-7.5,2
									c-0.7,0.2-1-0.1-1-0.8v-5.4c0-0.6-0.2-1-0.6-1.4c-0.4-0.4-0.8-0.6-1.4-0.6h-0.7c-0.6,0-1,0.2-1.4,0.6
									c-0.4,0.4-0.6,0.9-0.6,1.4v7.5c0.1,0.6,0.2,1.1,0.3,1.5c0.2,0.4,0.4,0.9,0.9,1.3l10.7,8.2c0.9,0.8,1.4,1.5,1.7,2.4
									c0.3,0.8,0.4,1.7,0.6,2.7v14.2c0,1.4-0.3,2.8-0.8,4c-0.6,1.3-1.3,2.4-2.2,3.3c-0.9,0.9-2,1.7-3.3,2.2s-2.6,0.8-4,0.8h-3.1
									c-1.4,0-2.8-0.3-4-0.8s-2.4-1.3-3.3-2.2c-0.9-0.9-1.7-2-2.2-3.3c-0.6-1.3-0.8-2.6-0.8-4v-8c0-0.8,0.3-1.3,1-1.5l7.5-2
									c0.7-0.2,1,0.1,1,0.8v10.2c0,0.6,0.2,1,0.6,1.4c0.4,0.4,0.8,0.6,1.4,0.6h0.7c0.6,0,1-0.2,1.4-0.6s0.6-0.8,0.6-1.4v-10.9
									c-0.1-0.7-0.2-1.3-0.3-1.9c-0.2-0.6-0.5-1-1-1.5l-10.6-8.2c-0.8-0.8-1.4-1.5-1.8-2.3c-0.4-0.8-0.6-1.8-0.6-3v-9.9
									c0-1.4,0.3-2.8,0.8-4c0.6-1.3,1.3-2.4,2.2-3.3c0.9-0.9,2-1.7,3.3-2.2c1.3-0.6,2.6-0.8,4-0.8h3.1
									C215.7,502.3,217,502.6,218.3,503.2"/>
							</g>
						</g>
						<g id="Fill-4_11_">
							<path class="st2" d="M248.8,552.9v7.3c0,0.8-0.4,1.2-1.2,1.2h-17.9c-0.8,0-1.2-0.4-1.2-1.2v-55.5c0-0.8,0.4-1.2,1.2-1.2h17.9
								c0.8,0,1.2,0.4,1.2,1.2v7.3c0,0.8-0.4,1.2-1.2,1.2h-9.4v11.9h8.2c0.8,0,1.2,0.4,1.2,1.2v7.3c0,0.8-0.4,1.2-1.2,1.2h-8.2v17
								h9.4C248.5,551.8,248.8,552.2,248.8,552.9"/>
						</g>
						<g id="Group-8_11_" transform="translate(61.000000, 0.633400)">
							<g id="Fill-6_11_">
								<path class="st2" d="M209.4,503.2c1.3,0.6,2.4,1.3,3.3,2.2s1.7,2,2.2,3.3s0.8,2.6,0.8,4v6.6c0,0.8-0.4,1.3-1,1.5l-7.5,1.2
									c-0.7,0.2-1-0.1-1-0.8v-8c0-0.6-0.2-1-0.6-1.4c-0.4-0.4-0.9-0.6-1.4-0.6h-0.7c-0.6,0-1,0.2-1.4,0.6
									c-0.4,0.4-0.6,0.9-0.6,1.4v37.4c0,0.6,0.2,1,0.6,1.4s0.8,0.6,1.4,0.6h0.7c0.6,0,1-0.2,1.4-0.6c0.4-0.4,0.6-0.8,0.6-1.4V539
									c0-0.8,0.3-1,1-0.8l7.5,1c0.7,0.2,1,0.7,1,1.5v10.3c0,1.4-0.3,2.8-0.8,4c-0.6,1.3-1.3,2.4-2.2,3.3c-0.9,0.9-2,1.7-3.3,2.2
									c-1.3,0.6-2.6,0.8-4,0.8h-3.1c-1.4,0-2.8-0.3-4-0.8c-1.3-0.6-2.4-1.3-3.3-2.2c-0.9-0.9-1.7-2-2.2-3.3
									c-0.6-1.3-0.8-2.6-0.8-4v-38.2c0-1.4,0.3-2.8,0.8-4s1.3-2.4,2.2-3.3s2-1.7,3.3-2.2c1.3-0.6,2.6-0.8,4-0.8h3.1
									C206.8,502.3,208.2,502.6,209.4,503.2"/>
							</g>
						</g>
						<g id="Fill-9_11_">
							<path class="st2" d="M304,504.7v46.9c0,1.4-0.3,2.8-0.8,4c-0.6,1.3-1.3,2.4-2.2,3.3c-0.9,0.9-2,1.7-3.3,2.2
								c-1.3,0.6-2.6,0.8-4,0.8h-3.1c-1.4,0-2.8-0.3-4-0.8c-1.3-0.6-2.4-1.3-3.3-2.2c-0.9-0.9-1.7-2-2.2-3.3c-0.6-1.3-0.8-2.6-0.8-4
								v-46.9c0-0.8,0.4-1.2,1.2-1.2h7.3c0.8,0,1.2,0.4,1.2,1.2v46.5c0,0.6,0.2,1,0.6,1.4c0.4,0.4,0.8,0.6,1.4,0.6h0.7
								c0.6,0,1-0.2,1.4-0.6c0.4-0.4,0.6-0.8,0.6-1.4v-46.5c0-0.8,0.4-1.2,1.2-1.2h7.4C303.6,503.6,304,504,304,504.7"/>
						</g>
						<g id="Fill-11_11_">
							<g>
								<path class="st2" d="M318,529h2.7c0.6,0,1-0.2,1.4-0.6c0.4-0.4,0.6-0.8,0.6-1.4v-12.6c0-0.6-0.2-1-0.6-1.4
									c-0.4-0.4-0.9-0.6-1.4-0.6H318V529z M334,560.3c0.2,0.8-0.1,1.2-0.8,1.2h-7.5c-0.3,0-0.7-0.1-0.9-0.3
									c-0.3-0.2-0.5-0.5-0.6-0.8l-6-20.3v21.4l-0.1-0.8c-0.1,0.6-0.4,0.8-1,0.8h-7.3c-0.8,0-1.2-0.4-1.2-1.2v-55.6
									c0-0.8,0.4-1.2,1.2-1.2H322c1.4,0,2.8,0.3,4,0.8s2.4,1.3,3.3,2.2s1.7,2,2.2,3.3c0.6,1.3,0.8,2.6,0.8,4v13.5
									c0,2-0.6,3.9-1.5,5.5c-1,1.6-2.4,2.9-4.1,3.8L334,560.3z"/>
							</g>
						</g>
						<g id="Fill-13_11_">
							<path class="st2" d="M357.5,552.9v7.3c0,0.8-0.4,1.2-1.2,1.2h-17.9c-0.8,0-1.2-0.4-1.2-1.2v-55.5c0-0.8,0.4-1.2,1.2-1.2h17.9
								c0.8,0,1.2,0.4,1.2,1.2v7.3c0,0.8-0.4,1.2-1.2,1.2h-9.4v11.9h8.2c0.8,0,1.2,0.4,1.2,1.2v7.3c0,0.8-0.4,1.2-1.2,1.2h-8.2v17
								h9.4C357.1,551.8,357.5,552.2,357.5,552.9"/>
						</g>
						<path id="Fill-15_11_" class="st2" d="M376.6,514.4c0-0.6-0.2-1-0.6-1.4c-0.4-0.4-0.8-0.6-1.4-0.6H372v40.2h2.7
							c0.6,0,1-0.2,1.4-0.6c0.4-0.4,0.6-0.8,0.6-1.4V514.4z M375.8,503.6c1.4,0,2.8,0.3,4,0.8s2.4,1.3,3.3,2.2
							c0.9,0.9,1.7,2,2.2,3.3c0.6,1.3,0.8,2.6,0.8,4V551c0,1.4-0.3,2.8-0.8,4c-0.6,1.3-1.3,2.4-2.2,3.3c-0.9,0.9-2,1.7-3.3,2.2
							c-1.3,0.6-2.6,0.8-4,0.8h-12.4c-0.8,0-1.2-0.4-1.2-1.2v-55.5c0-0.8,0.4-1.2,1.2-1.2H375.8z"/>
						<path id="Fill-17_11_" class="st2" d="M400.4,529h2.7c0.6,0,1-0.2,1.4-0.6c0.4-0.4,0.6-0.8,0.6-1.4v-12.6c0-0.6-0.2-1-0.6-1.4
							c-0.4-0.4-0.9-0.6-1.4-0.6h-2.7V529z M416.3,560.3c0.2,0.8-0.1,1.2-0.8,1.2H408c-0.3,0-0.7-0.1-0.9-0.3
							c-0.3-0.2-0.5-0.5-0.6-0.8l-6-20.3v21.4l-0.1-0.8c-0.1,0.6-0.4,0.8-1,0.8h-7.3c-0.8,0-1.2-0.4-1.2-1.2v-55.6
							c0-0.8,0.4-1.2,1.2-1.2h12.4c1.4,0,2.8,0.3,4,0.8s2.4,1.3,3.3,2.2s1.7,2,2.2,3.3c0.6,1.3,0.8,2.6,0.8,4v13.5
							c0,2-0.6,3.9-1.5,5.5c-1,1.6-2.4,2.9-4.1,3.8L416.3,560.3z"/>
						<path id="Fill-19_11_" class="st2" d="M433,513.8c0-0.6-0.2-1-0.6-1.4c-0.4-0.4-0.8-0.6-1.4-0.6h-0.7c-0.6,0-1,0.2-1.4,0.6
							c-0.4,0.4-0.6,0.9-0.6,1.4v37.4c0,0.6,0.2,1,0.6,1.4c0.4,0.4,0.8,0.6,1.4,0.6h0.7c0.6,0,1-0.2,1.4-0.6
							c0.4-0.4,0.6-0.8,0.6-1.4V513.8z M442.7,551.7c0,1.4-0.3,2.8-0.8,4c-0.6,1.3-1.3,2.4-2.2,3.3c-0.9,0.9-2,1.7-3.3,2.2
							c-1.3,0.6-2.6,0.8-4,0.8h-3.1c-1.4,0-2.8-0.3-4-0.8c-1.3-0.6-2.4-1.3-3.3-2.2c-0.9-0.9-1.7-2-2.2-3.3c-0.6-1.3-0.8-2.6-0.8-4
							v-38.2c0-1.4,0.3-2.8,0.8-4c0.6-1.3,1.3-2.4,2.2-3.3c0.9-0.9,2-1.7,3.3-2.2c1.3-0.6,2.6-0.8,4-0.8h3.1c1.4,0,2.8,0.3,4,0.8
							c1.3,0.6,2.4,1.3,3.3,2.2c0.9,0.9,1.7,2,2.2,3.3c0.6,1.3,0.8,2.6,0.8,4V551.7z"/>
						<path id="Fill-21_11_" class="st2" d="M461.4,514.4c0-0.6-0.2-1-0.6-1.4c-0.4-0.4-0.9-0.6-1.4-0.6h-2.7V529h2.7
							c0.6,0,1-0.2,1.4-0.6c0.4-0.4,0.6-0.8,0.6-1.4V514.4z M460.7,503.6c1.4,0,2.8,0.3,4,0.8s2.4,1.3,3.3,2.2
							c0.9,0.9,1.7,2,2.2,3.3c0.6,1.3,0.8,2.6,0.8,4v13.5c0,1.4-0.3,2.8-0.8,4c-0.6,1.3-1.3,2.4-2.2,3.3c-0.9,0.9-2,1.7-3.3,2.2
							c-1.3,0.6-2.6,0.8-4,0.8h-3.9v22.4c0,0.8-0.4,1.2-1.2,1.2h-7.3c-0.8,0-1.2-0.4-1.2-1.2v-55.5c0-0.8,0.4-1.2,1.2-1.2H460.7z"/>
					</g>
				</g>
			</g>
		</g>
	</g>
	<g>
		<g>
			<path class="st2" d="M170.7,525.1c-0.5,0-1.1,0.2-1.6,0.4l-19.1,11v27.8l20.6-11.9c2-1.1,3.2-3.2,3.2-5.5v-18.7
				C173.8,526.6,172.4,525.1,170.7,525.1z M168,544.9c0,1.3-0.7,2.6-1.9,3.2l-9.6,5.4l0-13.3l9.5-5.4c0.7-0.4,1.5-0.1,1.9,0.5
				c0.1,0.2,0.2,0.4,0.2,0.6V544.9z"/>
			<polygon class="st2" points="116.9,540.8 131.9,549.5 131.9,552.7 116.9,544 116.9,551.1 138.9,563.8 138.9,546.5 122.9,537.2 
				122.9,533.9 138.9,543.2 138.9,536.3 116.9,523.7 			"/>
		</g>
		<path class="st2" d="M183.2,508.4L183.2,508.4L145,489.3l-38.3,18.9v47.6l38.6,22.6l38.1-23.2L183.2,508.4z M140.1,501.7
			c4.5,0,8.2,2.1,8.2,4.6c0,0.5-0.1,1-0.4,1.4l13.6,3.8l-12.1,6.9l-7.5-7.6c-0.6,0.1-1.2,0.1-1.8,0.1c-4.5,0-8.2-2.1-8.2-4.6
			C131.8,503.8,135.5,501.7,140.1,501.7z M145.2,575.1l-36.1-20.8v-43.1L145,531l35.7-19.7l0.1,42.4L145.2,575.1z"/>
	</g>
</g>
<g>
	<g>
		<g>
			<line class="st3" x1="58.4" y1="763.2" x2="59.1" y2="763.2"/>
			<line class="st4" x1="61.2" y1="763.2" x2="63.7" y2="763.2"/>
			<line class="st5" x1="64.8" y1="763.2" x2="536.1" y2="763.2"/>
			<line class="st3" x1="537.2" y1="763.2" x2="537.9" y2="763.2"/>
		</g>
	</g>
	<text transform="matrix(1 0 0 1 58.4274 756.9407)" class="st6 st7 st8">Smaller than 50px</text>
</g>
<g>
	<g>
		<rect x="104.7" y="41.2" class="st9" width="181.9" height="73.4"/>
		<rect x="41.7" y="41.2" class="st10" width="63" height="73.4"/>
		<g>
			<g>
				<polyline class="st11" points="293.1,121.1 293.1,121.4 292.8,121.4 				"/>
				<line class="st12" x1="291" y1="121.4" x2="37.5" y2="121.4"/>
				<polyline class="st11" points="36.6,121.4 36.3,121.4 36.3,121.1 				"/>
				<line class="st13" x1="36.3" y1="119.3" x2="36.3" y2="31.9"/>
				<polyline class="st11" points="36.3,31.1 36.3,30.8 36.6,30.8 				"/>
				<line class="st12" x1="38.4" y1="30.8" x2="291.9" y2="30.8"/>
				<polyline class="st11" points="292.8,30.8 293.1,30.8 293.1,31.1 				"/>
				<line class="st13" x1="293.1" y1="32.8" x2="293.1" y2="120.2"/>
			</g>
		</g>
		<g class="st14">
			<g id="Symbols_7_">
				<g>
					<g id="Logo_x2F_White-Text_7_">
						<g id="SD-Logo_7_">
							<g id="Group-3_7_" transform="translate(0.000000, 0.633400)">
								<g id="Fill-1_7_">
									<path d="M121.5,57.8c0.8,0.3,1.4,0.8,2,1.3c0.6,0.6,1,1.2,1.3,2c0.3,0.8,0.5,1.6,0.5,2.4v1.9c0,0.5-0.2,0.8-0.6,0.9
										l-4.5,1.2c-0.4,0.1-0.6,0-0.6-0.5v-3.2c0-0.3-0.1-0.6-0.3-0.8c-0.2-0.2-0.5-0.3-0.8-0.3H118c-0.3,0-0.6,0.1-0.8,0.3
										c-0.2,0.2-0.3,0.5-0.3,0.8v4.5c0,0.4,0.1,0.7,0.2,0.9c0.1,0.3,0.3,0.5,0.5,0.8l6.4,4.9c0.5,0.5,0.9,0.9,1,1.4
										c0.2,0.5,0.3,1,0.3,1.6v8.5c0,0.9-0.2,1.7-0.5,2.4c-0.3,0.8-0.8,1.4-1.3,2c-0.6,0.6-1.2,1-2,1.3c-0.8,0.3-1.6,0.5-2.4,0.5
										h-1.9c-0.9,0-1.7-0.2-2.4-0.5c-0.8-0.3-1.4-0.8-2-1.3c-0.6-0.6-1-1.2-1.3-2c-0.3-0.8-0.5-1.6-0.5-2.4v-4.8
										c0-0.5,0.2-0.8,0.6-0.9l4.5-1.2c0.4-0.1,0.6,0,0.6,0.5v6.1c0,0.3,0.1,0.6,0.3,0.8c0.2,0.2,0.5,0.3,0.8,0.3h0.4
										c0.3,0,0.6-0.1,0.8-0.3c0.2-0.2,0.3-0.5,0.3-0.8v-6.5c0-0.4-0.1-0.8-0.2-1.1c-0.1-0.3-0.3-0.6-0.6-0.9l-6.3-4.9
										c-0.5-0.5-0.9-0.9-1.1-1.4c-0.2-0.5-0.3-1.1-0.3-1.8v-5.9c0-0.9,0.2-1.7,0.5-2.4c0.3-0.8,0.8-1.4,1.3-2
										c0.6-0.6,1.2-1,2-1.3c0.8-0.3,1.6-0.5,2.4-0.5h1.9C120,57.3,120.8,57.5,121.5,57.8"/>
								</g>
							</g>
							<g id="Fill-4_7_">
								<path d="M139.8,87.8v4.4c0,0.5-0.2,0.7-0.7,0.7h-10.7c-0.5,0-0.7-0.2-0.7-0.7V59c0-0.5,0.2-0.7,0.7-0.7h10.7
									c0.5,0,0.7,0.2,0.7,0.7v4.4c0,0.5-0.2,0.7-0.7,0.7h-5.6v7.1h4.9c0.5,0,0.7,0.2,0.7,0.7v4.4c0,0.5-0.2,0.7-0.7,0.7h-4.9v10.1
									h5.6C139.6,87.1,139.8,87.4,139.8,87.8"/>
							</g>
							<g id="Group-8_7_" transform="translate(61.000000, 0.633400)">
								<g id="Fill-6_7_">
									<path d="M91.7,57.8c0.8,0.3,1.4,0.8,2,1.3c0.6,0.6,1,1.2,1.3,2c0.3,0.8,0.5,1.6,0.5,2.4v4c0,0.5-0.2,0.8-0.6,0.9l-4.5,0.7
										c-0.4,0.1-0.6,0-0.6-0.5v-4.8c0-0.3-0.1-0.6-0.4-0.8c-0.2-0.2-0.5-0.3-0.8-0.3h-0.4c-0.3,0-0.6,0.1-0.8,0.3
										c-0.2,0.2-0.3,0.5-0.3,0.8v22.3c0,0.3,0.1,0.6,0.3,0.8c0.2,0.2,0.5,0.3,0.8,0.3h0.4c0.3,0,0.6-0.1,0.8-0.3
										c0.2-0.2,0.4-0.5,0.4-0.8v-6.9c0-0.5,0.2-0.6,0.6-0.5l4.5,0.6c0.4,0.1,0.6,0.4,0.6,0.9v6.2c0,0.9-0.2,1.7-0.5,2.4
										c-0.3,0.8-0.8,1.4-1.3,2c-0.6,0.6-1.2,1-2,1.3c-0.8,0.3-1.6,0.5-2.4,0.5h-1.9c-0.9,0-1.7-0.2-2.4-0.5
										c-0.8-0.3-1.4-0.8-2-1.3s-1-1.2-1.3-2c-0.3-0.8-0.5-1.6-0.5-2.4V63.5c0-0.9,0.2-1.7,0.5-2.4c0.3-0.8,0.8-1.4,1.3-2
										c0.6-0.6,1.2-1,2-1.3s1.6-0.5,2.4-0.5h1.9C90.2,57.3,91,57.5,91.7,57.8"/>
								</g>
							</g>
							<g id="Fill-9_7_">
								<path d="M172.7,59V87c0,0.9-0.2,1.7-0.5,2.4c-0.3,0.8-0.8,1.4-1.3,2c-0.6,0.6-1.2,1-2,1.3c-0.8,0.3-1.6,0.5-2.4,0.5h-1.9
									c-0.9,0-1.7-0.2-2.4-0.5c-0.8-0.3-1.4-0.8-2-1.3c-0.6-0.6-1-1.2-1.3-2c-0.3-0.8-0.5-1.6-0.5-2.4V59c0-0.5,0.2-0.7,0.7-0.7
									h4.4c0.5,0,0.7,0.2,0.7,0.7v27.8c0,0.3,0.1,0.6,0.3,0.8s0.5,0.3,0.8,0.3h0.4c0.3,0,0.6-0.1,0.8-0.3s0.3-0.5,0.3-0.8V59
									c0-0.5,0.2-0.7,0.7-0.7h4.4C172.5,58.3,172.7,58.5,172.7,59"/>
							</g>
							<g id="Fill-11_7_">
								<g>
									<path d="M181.2,73.5h1.6c0.3,0,0.6-0.1,0.8-0.3c0.2-0.2,0.3-0.5,0.3-0.8v-7.6c0-0.3-0.1-0.6-0.3-0.8
										c-0.2-0.2-0.5-0.4-0.8-0.4h-1.6V73.5z M190.7,92.2c0.1,0.5-0.1,0.7-0.5,0.7h-4.5c-0.2,0-0.4-0.1-0.6-0.2
										c-0.2-0.1-0.3-0.3-0.4-0.5l-3.6-12.1v12.8l-0.1-0.5c-0.1,0.3-0.3,0.5-0.6,0.5h-4.4c-0.5,0-0.7-0.2-0.7-0.7V59
										c0-0.5,0.2-0.7,0.7-0.7h7.4c0.9,0,1.7,0.2,2.4,0.5c0.8,0.3,1.4,0.8,2,1.3c0.6,0.6,1,1.2,1.3,2c0.3,0.8,0.5,1.6,0.5,2.4v8.1
										c0,1.2-0.3,2.3-0.9,3.3c-0.6,1-1.5,1.7-2.5,2.2L190.7,92.2z"/>
								</g>
							</g>
							<g id="Fill-13_7_">
								<path d="M204.7,87.8v4.4c0,0.5-0.2,0.7-0.7,0.7h-10.7c-0.5,0-0.7-0.2-0.7-0.7V59c0-0.5,0.2-0.7,0.7-0.7h10.7
									c0.5,0,0.7,0.2,0.7,0.7v4.4c0,0.5-0.2,0.7-0.7,0.7h-5.6v7.1h4.9c0.5,0,0.7,0.2,0.7,0.7v4.4c0,0.5-0.2,0.7-0.7,0.7h-4.9v10.1
									h5.6C204.5,87.1,204.7,87.4,204.7,87.8"/>
							</g>
							<path id="Fill-15_7_" d="M216.2,64.8c0-0.3-0.1-0.6-0.4-0.8c-0.2-0.2-0.5-0.4-0.8-0.4h-1.6v24h1.6c0.3,0,0.6-0.1,0.8-0.3
								c0.2-0.2,0.4-0.5,0.4-0.8V64.8z M215.7,58.3c0.9,0,1.7,0.2,2.4,0.5c0.8,0.3,1.4,0.8,2,1.3c0.6,0.6,1,1.2,1.3,2
								c0.3,0.8,0.5,1.6,0.5,2.4v22.1c0,0.9-0.2,1.7-0.5,2.4c-0.3,0.8-0.8,1.4-1.3,2s-1.2,1-2,1.3c-0.8,0.3-1.6,0.5-2.4,0.5h-7.4
								c-0.5,0-0.7-0.2-0.7-0.7V59c0-0.5,0.2-0.7,0.7-0.7H215.7z"/>
							<path id="Fill-17_7_" d="M230.4,73.5h1.6c0.3,0,0.6-0.1,0.8-0.3c0.2-0.2,0.3-0.5,0.3-0.8v-7.6c0-0.3-0.1-0.6-0.3-0.8
								c-0.2-0.2-0.5-0.4-0.8-0.4h-1.6V73.5z M239.9,92.2c0.1,0.5-0.1,0.7-0.5,0.7h-4.5c-0.2,0-0.4-0.1-0.6-0.2
								c-0.2-0.1-0.3-0.3-0.4-0.5l-3.6-12.1v12.8l-0.1-0.5c-0.1,0.3-0.3,0.5-0.6,0.5h-4.4c-0.5,0-0.7-0.2-0.7-0.7V59
								c0-0.5,0.2-0.7,0.7-0.7h7.4c0.9,0,1.7,0.2,2.4,0.5c0.8,0.3,1.4,0.8,2,1.3s1,1.2,1.3,2c0.3,0.8,0.5,1.6,0.5,2.4v8.1
								c0,1.2-0.3,2.3-0.9,3.3c-0.6,1-1.5,1.7-2.5,2.2L239.9,92.2z"/>
							<path id="Fill-19_7_" d="M249.9,64.4c0-0.3-0.1-0.6-0.3-0.8c-0.2-0.2-0.5-0.3-0.8-0.3h-0.4c-0.3,0-0.6,0.1-0.8,0.3
								c-0.2,0.2-0.3,0.5-0.3,0.8v22.3c0,0.3,0.1,0.6,0.3,0.8s0.5,0.3,0.8,0.3h0.4c0.3,0,0.6-0.1,0.8-0.3c0.2-0.2,0.3-0.5,0.3-0.8
								V64.4z M255.7,87c0,0.9-0.2,1.7-0.5,2.4c-0.3,0.8-0.8,1.4-1.3,2c-0.6,0.6-1.2,1-2,1.3c-0.8,0.3-1.6,0.5-2.4,0.5h-1.9
								c-0.9,0-1.7-0.2-2.4-0.5c-0.8-0.3-1.4-0.8-2-1.3c-0.6-0.6-1-1.2-1.3-2c-0.3-0.8-0.5-1.6-0.5-2.4V64.2c0-0.9,0.2-1.7,0.5-2.4
								c0.3-0.8,0.8-1.4,1.3-2c0.6-0.6,1.2-1,2-1.3c0.8-0.3,1.6-0.5,2.4-0.5h1.9c0.9,0,1.7,0.2,2.4,0.5c0.8,0.3,1.4,0.8,2,1.3
								c0.6,0.6,1,1.2,1.3,2c0.3,0.8,0.5,1.6,0.5,2.4V87z"/>
							<path id="Fill-21_7_" d="M266.8,64.8c0-0.3-0.1-0.6-0.3-0.8c-0.2-0.2-0.5-0.4-0.8-0.4h-1.6v9.9h1.6c0.3,0,0.6-0.1,0.8-0.3
								c0.2-0.2,0.3-0.5,0.3-0.8V64.8z M266.4,58.3c0.9,0,1.7,0.2,2.4,0.5c0.8,0.3,1.4,0.8,2,1.3c0.6,0.6,1,1.2,1.3,2
								c0.3,0.8,0.5,1.6,0.5,2.4v8.1c0,0.9-0.2,1.7-0.5,2.4c-0.3,0.8-0.8,1.4-1.3,2c-0.6,0.6-1.2,1-2,1.3c-0.8,0.3-1.6,0.5-2.4,0.5
								h-2.3v13.4c0,0.5-0.2,0.7-0.7,0.7H259c-0.5,0-0.7-0.2-0.7-0.7V59c0-0.5,0.2-0.7,0.7-0.7H266.4z"/>
						</g>
					</g>
				</g>
			</g>
		</g>
		<g class="st14">
			<polygon class="st0" points="56.9,80.6 65.8,85.8 65.8,87.7 56.9,82.6 56.9,86.8 70,94.3 70,84 60.4,78.5 60.4,76.5 70,82.1 
				70,78 56.9,70.4 			"/>
			<path class="st0" d="M95.3,61.9L73.9,50.7L52.5,61.9l21.4,12.3L95.3,61.9z M70.9,62.9c-2.6,0-4.8-1.2-4.8-2.7
				c0-1.5,2.1-2.7,4.8-2.7s4.8,1.2,4.8,2.7c0,0.3-0.1,0.6-0.2,0.8l7.9,2.2l-7,4l-4.4-4.4C71.5,62.9,71.2,62.9,70.9,62.9z"/>
			<path class="st0" d="M90.7,70.7c-0.3,0-0.7,0.1-1,0.3L78,77.8v17.1l12.7-7.3c1.2-0.7,1.9-2,1.9-3.4V72.6
				C92.6,71.6,91.7,70.7,90.7,70.7z M89.1,82.9c0,0.8-0.4,1.6-1.1,2L82,88.2l0-8.2l5.8-3.4c0.4-0.2,0.9-0.1,1.1,0.3
				c0.1,0.1,0.1,0.3,0.1,0.4V82.9z"/>
			<path d="M87.8,76.6L82,80l0,8.2l5.9-3.3c0.7-0.4,1.1-1.1,1.1-2v-5.6c0-0.1,0-0.3-0.1-0.4C88.7,76.6,88.2,76.4,87.8,76.6z"/>
			<path d="M97.1,61.7L97.1,61.7L73.9,49.5L50.5,61.7l0.1,0v26.8L73.9,102v0l0,0l0,0v0l23.3-13.4V61.7z M73.9,50.7l21.4,11.2
				L73.9,74.3L52.5,61.9L73.9,50.7z M70,82.1l-9.5-5.5v1.9L70,84v10.3l-13.1-7.6v-4.2l9,5.2v-1.9l-9-5.2V70.4L70,78V82.1z
				 M92.6,84.1c0,1.4-0.7,2.7-1.9,3.4L78,94.8V77.8L89.7,71c0.3-0.2,0.6-0.3,1-0.3c1.1,0,1.9,0.9,1.9,1.9V84.1z"/>
			<path d="M83.3,63.3l-7.9-2.2c0.2-0.3,0.2-0.5,0.2-0.8c0-1.5-2.1-2.7-4.8-2.7s-4.8,1.2-4.8,2.7c0,1.5,2.1,2.7,4.8,2.7
				c0.4,0,0.7,0,1-0.1l4.4,4.4L83.3,63.3z"/>
		</g>
		<circle class="st15" cx="57.2" cy="42.2" r="7.8"/>
		<circle class="st15" cx="120.2" cy="41" r="7.8"/>
		<circle class="st15" cx="159.2" cy="30.2" r="7.8"/>
		<text transform="matrix(1 0 0 1 54.1179 45.0521)" class="st2 st16 st8">A</text>
		<text transform="matrix(1 0 0 1 117.1179 43.8519)" class="st2 st16 st8">B</text>
		<text transform="matrix(1 0 0 1 156.1179 33.0526)" class="st2 st16 st8">C</text>
	</g>
	<text transform="matrix(1 0 0 1 324.8758 30.3255)"><tspan x="0" y="0" class="st15 st16 st17">A. Logo-Mark</tspan><tspan x="0" y="18.6" class="st15 st16 st17">B. Logo-Type</tspan><tspan x="0" y="37.2" class="st15 st16 st17">C. </tspan><tspan x="11.9" y="37.2" class="st15 st16 st17">Lockup</tspan><tspan x="0" y="49.8" class="st15 st7 st17">    The logo-mark and logo-type together, as shown. </tspan><tspan x="0" y="62.4" class="st15 st7 st17">    The logo-type before the logo-mark would not qualify as an</tspan><tspan x="0" y="75" class="st15 st7 st17">    official “lockup.” We do not allow the SecureDrop logo-mark</tspan><tspan x="0" y="87.6" class="st15 st7 st17">    and logo-type to be paired by customers in any manner other </tspan><tspan x="0" y="100.2" class="st15 st7 st17">    then as shown, here.</tspan></text>
</g>
</svg>
