<?xml version="1.0" encoding="utf-8"?>
<!-- Generator: Adobe Illustrator 21.1.0, SVG Export Plug-In . SVG Version: 6.00 Build 0)  -->
<svg version="1.1" id="Layer_1" xmlns="http://www.w3.org/2000/svg" xmlns:xlink="http://www.w3.org/1999/xlink" x="0px" y="0px"
	 viewBox="0 0 612 928" style="enable-background:new 0 0 612 928;" xml:space="preserve">
<style type="text/css">
	.st0{fill:none;stroke:#E700C7;stroke-width:0.7;stroke-miterlimit:10;}
	.st1{fill:none;stroke:#E700C7;stroke-width:0.7;stroke-miterlimit:10;stroke-dasharray:1.4084,2.1126;}
	.st2{fill:none;stroke:#E700C7;stroke-width:0.7;stroke-miterlimit:10;stroke-dasharray:1.4084,2.1126,1.4084,2.1126;}
	.st3{fill:#EC008C;}
	.st4{font-family:'Verdana';}
	.st5{font-size:8.4px;}
	.st6{fill:none;stroke:#EC008C;stroke-width:0.5989;stroke-miterlimit:10;}
	.st7{fill:none;stroke:#EC008C;stroke-width:0.6039;stroke-miterlimit:10;}
	.st8{fill:none;stroke:#EC008C;stroke-width:0.7754;stroke-miterlimit:10;}
	.st9{fill:none;stroke:#EC008C;stroke-width:0.7754;stroke-miterlimit:10;stroke-dasharray:0.6,1.8;}
	.st10{fill:none;stroke:#EC008C;stroke-width:0.7754;stroke-miterlimit:10;stroke-dasharray:0.596,1.7881;}
	.st11{opacity:0.61;}
	.st12{fill:none;}
	.st13{fill:#FFFFFF;}
	.st14{font-family:'Verdana-Bold';}
	.st15{font-size:8px;}
	.st16{font-family:'Verdana-Italic';}
	.st17{fill:#045FB4;}
	.st18{fill:#2E8AE8;}
	.st19{fill:#093D70;}
</style>
<g>
	<g>
		<g>
			<line class="st0" x1="42.8" y1="176.3" x2="43.5" y2="176.3"/>
			<line class="st1" x1="45.6" y1="176.3" x2="48.1" y2="176.3"/>
			<line class="st2" x1="49.2" y1="176.3" x2="569.2" y2="176.3"/>
			<line class="st0" x1="570.3" y1="176.3" x2="571" y2="176.3"/>
		</g>
	</g>
	<text transform="matrix(1 0 0 1 42.8312 169.9583)" class="st3 st4 st5">Mark only</text>
</g>
<g>
	<g>
		<rect x="104.7" y="50.3" class="st6" width="181.9" height="73.4"/>
		<rect x="41.7" y="50.3" class="st7" width="63" height="73.4"/>
		<g>
			<g>
				<polyline class="st8" points="293.1,130.1 293.1,130.4 292.8,130.4 				"/>
				<line class="st9" x1="291" y1="130.4" x2="37.5" y2="130.4"/>
				<polyline class="st8" points="36.6,130.4 36.3,130.4 36.3,130.1 				"/>
				<line class="st10" x1="36.3" y1="128.3" x2="36.3" y2="41"/>
				<polyline class="st8" points="36.3,40.1 36.3,39.8 36.6,39.8 				"/>
				<line class="st9" x1="38.4" y1="39.8" x2="291.9" y2="39.8"/>
				<polyline class="st8" points="292.8,39.8 293.1,39.8 293.1,40.1 				"/>
				<line class="st10" x1="293.1" y1="41.8" x2="293.1" y2="129.2"/>
			</g>
		</g>
		<g class="st11">
			<g id="Symbols_7_">
				<g>
					<g id="Logo_x2F_White-Text_7_">
						<g id="SD-Logo_7_">
							<g id="Group-3_7_" transform="translate(0.000000, 0.633400)">
								<g id="Fill-1_7_">
									<path d="M121.5,66.8c0.8,0.3,1.4,0.8,2,1.3s1,1.2,1.3,2c0.3,0.8,0.5,1.6,0.5,2.4v1.9c0,0.5-0.2,0.8-0.6,0.9l-4.5,1.2
										c-0.4,0.1-0.6,0-0.6-0.5v-3.2c0-0.3-0.1-0.6-0.3-0.8c-0.2-0.2-0.5-0.3-0.8-0.3H118c-0.3,0-0.6,0.1-0.8,0.3
										c-0.2,0.2-0.3,0.5-0.3,0.8v4.5c0,0.4,0.1,0.7,0.2,0.9c0.1,0.3,0.3,0.5,0.5,0.8l6.4,4.9c0.5,0.5,0.9,0.9,1,1.4
										c0.2,0.5,0.3,1,0.3,1.6v8.5c0,0.9-0.2,1.7-0.5,2.4c-0.3,0.8-0.8,1.4-1.3,2c-0.6,0.6-1.2,1-2,1.3c-0.8,0.3-1.6,0.5-2.4,0.5
										h-1.9c-0.9,0-1.7-0.2-2.4-0.5c-0.8-0.3-1.4-0.8-2-1.3c-0.6-0.6-1-1.2-1.3-2c-0.3-0.8-0.5-1.6-0.5-2.4v-4.8
										c0-0.5,0.2-0.8,0.6-0.9l4.5-1.2c0.4-0.1,0.6,0,0.6,0.5v6.1c0,0.3,0.1,0.6,0.3,0.8c0.2,0.2,0.5,0.3,0.8,0.3h0.4
										c0.3,0,0.6-0.1,0.8-0.3c0.2-0.2,0.3-0.5,0.3-0.8v-6.5c0-0.4-0.1-0.8-0.2-1.1c-0.1-0.3-0.3-0.6-0.6-0.9l-6.3-4.9
										c-0.5-0.5-0.9-0.9-1.1-1.4c-0.2-0.5-0.3-1.1-0.3-1.8v-5.9c0-0.9,0.2-1.7,0.5-2.4c0.3-0.8,0.8-1.4,1.3-2s1.2-1,2-1.3
										c0.8-0.3,1.6-0.5,2.4-0.5h1.9C120,66.3,120.8,66.5,121.5,66.8"/>
								</g>
							</g>
							<g id="Fill-4_7_">
								<path d="M139.8,96.8v4.4c0,0.5-0.2,0.7-0.7,0.7h-10.7c-0.5,0-0.7-0.2-0.7-0.7V68c0-0.5,0.2-0.7,0.7-0.7h10.7
									c0.5,0,0.7,0.2,0.7,0.7v4.4c0,0.5-0.2,0.7-0.7,0.7h-5.6v7.1h4.9c0.5,0,0.7,0.2,0.7,0.7v4.4c0,0.5-0.2,0.7-0.7,0.7h-4.9v10.1
									h5.6C139.6,96.1,139.8,96.4,139.8,96.8"/>
							</g>
							<g id="Group-8_7_" transform="translate(61.000000, 0.633400)">
								<g id="Fill-6_7_">
									<path d="M91.7,66.8c0.8,0.3,1.4,0.8,2,1.3c0.6,0.6,1,1.2,1.3,2c0.3,0.8,0.5,1.6,0.5,2.4v4c0,0.5-0.2,0.8-0.6,0.9l-4.5,0.7
										c-0.4,0.1-0.6,0-0.6-0.5v-4.8c0-0.3-0.1-0.6-0.4-0.8c-0.2-0.2-0.5-0.3-0.8-0.3h-0.4c-0.3,0-0.6,0.1-0.8,0.3
										c-0.2,0.2-0.3,0.5-0.3,0.8v22.3c0,0.3,0.1,0.6,0.3,0.8c0.2,0.2,0.5,0.3,0.8,0.3h0.4c0.3,0,0.6-0.1,0.8-0.3
										c0.2-0.2,0.4-0.5,0.4-0.8v-6.9c0-0.5,0.2-0.6,0.6-0.5l4.5,0.6c0.4,0.1,0.6,0.4,0.6,0.9v6.2c0,0.9-0.2,1.7-0.5,2.4
										c-0.3,0.8-0.8,1.4-1.3,2c-0.6,0.6-1.2,1-2,1.3c-0.8,0.3-1.6,0.5-2.4,0.5h-1.9c-0.9,0-1.7-0.2-2.4-0.5
										c-0.8-0.3-1.4-0.8-2-1.3s-1-1.2-1.3-2c-0.3-0.8-0.5-1.6-0.5-2.4V72.5c0-0.9,0.2-1.7,0.5-2.4c0.3-0.8,0.8-1.4,1.3-2
										s1.2-1,2-1.3c0.8-0.3,1.6-0.5,2.4-0.5h1.9C90.2,66.3,91,66.5,91.7,66.8"/>
								</g>
							</g>
							<g id="Fill-9_7_">
								<path d="M172.7,68V96c0,0.9-0.2,1.7-0.5,2.4c-0.3,0.8-0.8,1.4-1.3,2c-0.6,0.6-1.2,1-2,1.3s-1.6,0.5-2.4,0.5h-1.9
									c-0.9,0-1.7-0.2-2.4-0.5s-1.4-0.8-2-1.3c-0.6-0.6-1-1.2-1.3-2c-0.3-0.8-0.5-1.6-0.5-2.4V68c0-0.5,0.2-0.7,0.7-0.7h4.4
									c0.5,0,0.7,0.2,0.7,0.7v27.8c0,0.3,0.1,0.6,0.3,0.8c0.2,0.2,0.5,0.3,0.8,0.3h0.4c0.3,0,0.6-0.1,0.8-0.3
									c0.2-0.2,0.3-0.5,0.3-0.8V68c0-0.5,0.2-0.7,0.7-0.7h4.4C172.5,67.3,172.7,67.5,172.7,68"/>
							</g>
							<g id="Fill-11_7_">
								<g>
									<path d="M181.2,82.5h1.6c0.3,0,0.6-0.1,0.8-0.3c0.2-0.2,0.3-0.5,0.3-0.8v-7.6c0-0.3-0.1-0.6-0.3-0.8
										c-0.2-0.2-0.5-0.4-0.8-0.4h-1.6V82.5z M190.7,101.2c0.1,0.5-0.1,0.7-0.5,0.7h-4.5c-0.2,0-0.4-0.1-0.6-0.2
										c-0.2-0.1-0.3-0.3-0.4-0.5l-3.6-12.1v12.8l-0.1-0.5c-0.1,0.3-0.3,0.5-0.6,0.5h-4.4c-0.5,0-0.7-0.2-0.7-0.7V68
										c0-0.5,0.2-0.7,0.7-0.7h7.4c0.9,0,1.7,0.2,2.4,0.5c0.8,0.3,1.4,0.8,2,1.3c0.6,0.6,1,1.2,1.3,2c0.3,0.8,0.5,1.6,0.5,2.4v8.1
										c0,1.2-0.3,2.3-0.9,3.3c-0.6,1-1.5,1.7-2.5,2.2L190.7,101.2z"/>
								</g>
							</g>
							<g id="Fill-13_7_">
								<path d="M204.7,96.8v4.4c0,0.5-0.2,0.7-0.7,0.7h-10.7c-0.5,0-0.7-0.2-0.7-0.7V68c0-0.5,0.2-0.7,0.7-0.7h10.7
									c0.5,0,0.7,0.2,0.7,0.7v4.4c0,0.5-0.2,0.7-0.7,0.7h-5.6v7.1h4.9c0.5,0,0.7,0.2,0.7,0.7v4.4c0,0.5-0.2,0.7-0.7,0.7h-4.9v10.1
									h5.6C204.5,96.1,204.7,96.4,204.7,96.8"/>
							</g>
							<path id="Fill-15_7_" d="M216.2,73.8c0-0.3-0.1-0.6-0.4-0.8c-0.2-0.2-0.5-0.4-0.8-0.4h-1.6v24h1.6c0.3,0,0.6-0.1,0.8-0.3
								c0.2-0.2,0.4-0.5,0.4-0.8V73.8z M215.7,67.3c0.9,0,1.7,0.2,2.4,0.5c0.8,0.3,1.4,0.8,2,1.3c0.6,0.6,1,1.2,1.3,2
								c0.3,0.8,0.5,1.6,0.5,2.4v22.1c0,0.9-0.2,1.7-0.5,2.4c-0.3,0.8-0.8,1.4-1.3,2s-1.2,1-2,1.3c-0.8,0.3-1.6,0.5-2.4,0.5h-7.4
								c-0.5,0-0.7-0.2-0.7-0.7V68c0-0.5,0.2-0.7,0.7-0.7H215.7z"/>
							<path id="Fill-17_7_" d="M230.4,82.5h1.6c0.3,0,0.6-0.1,0.8-0.3c0.2-0.2,0.3-0.5,0.3-0.8v-7.6c0-0.3-0.1-0.6-0.3-0.8
								c-0.2-0.2-0.5-0.4-0.8-0.4h-1.6V82.5z M239.9,101.2c0.1,0.5-0.1,0.7-0.5,0.7h-4.5c-0.2,0-0.4-0.1-0.6-0.2
								c-0.2-0.1-0.3-0.3-0.4-0.5l-3.6-12.1v12.8l-0.1-0.5c-0.1,0.3-0.3,0.5-0.6,0.5h-4.4c-0.5,0-0.7-0.2-0.7-0.7V68
								c0-0.5,0.2-0.7,0.7-0.7h7.4c0.9,0,1.7,0.2,2.4,0.5c0.8,0.3,1.4,0.8,2,1.3s1,1.2,1.3,2c0.3,0.8,0.5,1.6,0.5,2.4v8.1
								c0,1.2-0.3,2.3-0.9,3.3c-0.6,1-1.5,1.7-2.5,2.2L239.9,101.2z"/>
							<path id="Fill-19_7_" d="M249.9,73.4c0-0.3-0.1-0.6-0.3-0.8c-0.2-0.2-0.5-0.3-0.8-0.3h-0.4c-0.3,0-0.6,0.1-0.8,0.3
								c-0.2,0.2-0.3,0.5-0.3,0.8v22.3c0,0.3,0.1,0.6,0.3,0.8c0.2,0.2,0.5,0.3,0.8,0.3h0.4c0.3,0,0.6-0.1,0.8-0.3
								c0.2-0.2,0.3-0.5,0.3-0.8V73.4z M255.7,96c0,0.9-0.2,1.7-0.5,2.4c-0.3,0.8-0.8,1.4-1.3,2s-1.2,1-2,1.3
								c-0.8,0.3-1.6,0.5-2.4,0.5h-1.9c-0.9,0-1.7-0.2-2.4-0.5c-0.8-0.3-1.4-0.8-2-1.3s-1-1.2-1.3-2c-0.3-0.8-0.5-1.6-0.5-2.4V73.2
								c0-0.9,0.2-1.7,0.5-2.4c0.3-0.8,0.8-1.4,1.3-2s1.2-1,2-1.3c0.8-0.3,1.6-0.5,2.4-0.5h1.9c0.9,0,1.7,0.2,2.4,0.5
								c0.8,0.3,1.4,0.8,2,1.3s1,1.2,1.3,2c0.3,0.8,0.5,1.6,0.5,2.4V96z"/>
							<path id="Fill-21_7_" d="M266.8,73.8c0-0.3-0.1-0.6-0.3-0.8c-0.2-0.2-0.5-0.4-0.8-0.4h-1.6v9.9h1.6c0.3,0,0.6-0.1,0.8-0.3
								c0.2-0.2,0.3-0.5,0.3-0.8V73.8z M266.4,67.3c0.9,0,1.7,0.2,2.4,0.5c0.8,0.3,1.4,0.8,2,1.3c0.6,0.6,1,1.2,1.3,2
								c0.3,0.8,0.5,1.6,0.5,2.4v8.1c0,0.9-0.2,1.7-0.5,2.4c-0.3,0.8-0.8,1.4-1.3,2c-0.6,0.6-1.2,1-2,1.3c-0.8,0.3-1.6,0.5-2.4,0.5
								h-2.3v13.4c0,0.5-0.2,0.7-0.7,0.7H259c-0.5,0-0.7-0.2-0.7-0.7V68c0-0.5,0.2-0.7,0.7-0.7H266.4z"/>
						</g>
					</g>
				</g>
			</g>
		</g>
		<g class="st11">
			<polygon class="st12" points="56.9,89.6 65.8,94.8 65.8,96.8 56.9,91.6 56.9,95.8 70,103.3 70,93 60.4,87.5 60.4,85.6 70,91.1 
				70,87 56.9,79.4 			"/>
			<path class="st12" d="M95.3,70.9L73.9,59.7L52.5,70.9l21.4,12.3L95.3,70.9z M70.9,71.9c-2.6,0-4.8-1.2-4.8-2.7
				c0-1.5,2.1-2.7,4.8-2.7s4.8,1.2,4.8,2.7c0,0.3-0.1,0.6-0.2,0.8l7.9,2.2l-7,4l-4.4-4.4C71.5,71.9,71.2,71.9,70.9,71.9z"/>
			<path class="st12" d="M90.7,79.7c-0.3,0-0.7,0.1-1,0.3L78,86.8v17.1l12.7-7.3c1.2-0.7,1.9-2,1.9-3.4V81.6
				C92.6,80.6,91.7,79.7,90.7,79.7z M89.1,91.9c0,0.8-0.4,1.6-1.1,2L82,97.2l0-8.2l5.8-3.4c0.4-0.2,0.9-0.1,1.1,0.3
				c0.1,0.1,0.1,0.3,0.1,0.4V91.9z"/>
			<path d="M87.8,85.6L82,89l0,8.2l5.9-3.3c0.7-0.4,1.1-1.1,1.1-2v-5.6c0-0.1,0-0.3-0.1-0.4C88.7,85.6,88.2,85.4,87.8,85.6z"/>
			<path d="M97.1,70.7L97.1,70.7L73.9,58.5L50.5,70.7l0.1,0v26.8L73.9,111v0l0,0l0,0v0l23.3-13.4V70.7z M73.9,59.7l21.4,11.2
				L73.9,83.3L52.5,70.9L73.9,59.7z M70,91.1l-9.5-5.5v1.9L70,93v10.3l-13.1-7.6v-4.2l9,5.2v-1.9l-9-5.2V79.4L70,87V91.1z
				 M92.6,93.1c0,1.4-0.7,2.7-1.9,3.4L78,103.8V86.8L89.7,80c0.3-0.2,0.6-0.3,1-0.3c1.1,0,1.9,0.9,1.9,1.9V93.1z"/>
			<path d="M83.3,72.3l-7.9-2.2c0.2-0.3,0.2-0.5,0.2-0.8c0-1.5-2.1-2.7-4.8-2.7s-4.8,1.2-4.8,2.7c0,1.5,2.1,2.7,4.8,2.7
				c0.4,0,0.7,0,1-0.1l4.4,4.4L83.3,72.3z"/>
		</g>
		<circle class="st3" cx="57.2" cy="51.2" r="7.8"/>
		<circle class="st3" cx="120.2" cy="50" r="7.8"/>
		<circle class="st3" cx="159.2" cy="39.2" r="7.8"/>
		<text transform="matrix(1 0 0 1 54.1179 54.0593)" class="st13 st14 st5">A</text>
		<text transform="matrix(1 0 0 1 117.1179 52.8591)" class="st13 st14 st5">B</text>
		<text transform="matrix(1 0 0 1 156.1179 42.0598)" class="st13 st14 st5">C</text>
	</g>
	<text transform="matrix(1 0 0 1 324.8758 39.3327)"><tspan x="0" y="0" class="st3 st14 st15">A. Logomark</tspan><tspan x="0" y="18.6" class="st3 st14 st15">B. Logotype</tspan><tspan x="0" y="37.2" class="st3 st14 st15">C. </tspan><tspan x="11.9" y="37.2" class="st3 st14 st15">Lockup</tspan><tspan x="0" y="49.8" class="st3 st4 st15">    The logomark and logotype together, as shown. </tspan><tspan x="0" y="75" class="st3 st16 st15">Please do not use the logotype outside of the lockup.</tspan><tspan x="0" y="87.6" class="st3 st16 st15">The logomark may be used on its own.</tspan></text>
</g>
<g>
	<g>
		<g>
			<line class="st0" x1="46" y1="403" x2="46.7" y2="403"/>
			<line class="st1" x1="48.8" y1="403" x2="51.3" y2="403"/>
			<line class="st2" x1="52.3" y1="403" x2="572.4" y2="403"/>
			<line class="st0" x1="573.5" y1="403" x2="574.2" y2="403"/>
		</g>
	</g>
	<text transform="matrix(1 0 0 1 43.9268 397.1086)" class="st3 st4 st5">Lockup, for use when larger than 75px tall</text>
</g>
<g>
	<g>
		<g>
			<g>
				<line class="st0" x1="43.4" y1="670" x2="44.1" y2="670"/>
				<line class="st1" x1="46.2" y1="670" x2="48.7" y2="670"/>
				<line class="st2" x1="49.8" y1="670" x2="569.8" y2="670"/>
				<line class="st0" x1="570.9" y1="670" x2="571.6" y2="670"/>
			</g>
		</g>
		<text transform="matrix(1 0 0 1 43.4236 663.6918)" class="st3 st4 st5">Lockup, for use when smaller than 75px tall</text>
	</g>
	<text transform="matrix(1 0 0 1 46.7601 896.6898)" class="st3 st16 st5">* Tweaks have been made to this version of the mark, to help legible rendering at very small sizes</text>
</g>
<g>
	<path class="st17" d="M300,373.8v-92.2l79.9-46.1v92.2L300,373.8z M359.6,321.4c3.8-2.2,6.1-6.2,6.1-10.5V275c0-3.3-2.7-6-6-6
		c-1,0-2.1,0.3-3,0.8l-36.6,21.2v53.3L359.6,321.4z M332.5,297.9l18.2-10.4c1.3-0.7,2.9-0.2,3.6,1c0.2,0.4,0.3,0.8,0.4,1.2V307
		c0,2.6-1.4,4.9-3.6,6.1l-18.5,10.3L332.5,297.9z"/>
	<path class="st18" d="M300,281.7l-79.8-46.1l79.8-41.2l79.9,41.2L300,281.7z M306.4,254.5l24.1-13.6l-27.1-7.5
		c0.5-0.9,0.8-1.9,0.8-2.9c0-5-7.3-9.2-16.3-9.2s-16.3,4.1-16.3,9.2s7.3,9.2,16.3,9.2c1.2,0,2.3-0.1,3.5-0.2L306.4,254.5z"/>
	<g>
		<polygon class="st12" points="279.9,310.4 250.1,293.2 250.1,287.1 279.9,304.3 279.9,291.6 239,267.9 239,299.8 267,316 267,322 
			239,305.8 239,318.9 279.9,342.5 		"/>
		<path class="st19" d="M220.2,327.8l79.9,46.1v-92.2l-79.9-46.1V327.8z M239,305.8l27.9,16.2v-6L239,299.8v-31.9l40.9,23.6v12.8
			l-29.8-17.2v6.1l29.8,17.2v32.2L239,318.9V305.8z"/>
	</g>
</g>
<g>
	<g id="Symbols_13_">
		<g>
			<g id="Logo_x2F_White-Text_13_">
				<g id="SD-Logo_13_">
					<g id="Group-3_13_" transform="translate(0.000000, 0.633400)">
						<g id="Fill-1_15_">
							<path class="st19" d="M202.9,478.1c1.8,0.8,3.4,1.8,4.7,3.2c1.3,1.3,2.4,2.9,3.2,4.7c0.8,1.8,1.2,3.7,1.2,5.8v4.5
								c0,1.1-0.5,1.8-1.5,2.1l-10.7,2.8c-1,0.3-1.5-0.1-1.5-1.2v-7.7c0-0.8-0.3-1.4-0.8-2c-0.6-0.6-1.2-0.8-2-0.8h-0.9
								c-0.8,0-1.4,0.3-2,0.8c-0.6,0.6-0.8,1.3-0.8,2v10.7c0.1,0.9,0.2,1.6,0.5,2.2c0.2,0.6,0.6,1.3,1.3,1.9l15.3,11.7
								c1.3,1.1,2.1,2.2,2.4,3.4c0.4,1.1,0.6,2.4,0.8,3.9v20.4c0,2.1-0.4,3.9-1.2,5.8c-0.8,1.8-1.8,3.4-3.2,4.7
								c-1.3,1.3-2.9,2.4-4.7,3.2s-3.7,1.2-5.8,1.2h-4.5c-2.1,0-3.9-0.4-5.8-1.2s-3.4-1.8-4.7-3.2s-2.4-2.9-3.2-4.7
								c-0.8-1.8-1.2-3.7-1.2-5.8v-11.4c0-1.1,0.5-1.8,1.5-2.1l10.7-2.8c1-0.3,1.5,0.1,1.5,1.2v14.5c0,0.8,0.2,1.4,0.8,2
								s1.2,0.8,2,0.8h0.9c0.8,0,1.4-0.2,2-0.8s0.8-1.2,0.8-2v-15.6c-0.1-1-0.2-1.9-0.5-2.7c-0.2-0.8-0.7-1.5-1.4-2.1L181,513.7
								c-1.2-1.1-2.1-2.2-2.5-3.3c-0.6-1.1-0.8-2.5-0.8-4.3v-14.2c0-2.1,0.4-3.9,1.2-5.8c0.8-1.8,1.8-3.4,3.2-4.7
								c1.3-1.3,2.9-2.4,4.7-3.2c1.8-0.8,3.7-1.2,5.8-1.2h4.5C199.2,476.9,201.1,477.3,202.9,478.1"/>
						</g>
					</g>
					<g id="Fill-4_15_">
						<path class="st19" d="M246.6,548.9v10.5c0,1.1-0.6,1.7-1.7,1.7h-25.6c-1.1,0-1.7-0.6-1.7-1.7v-79.4c0-1.1,0.6-1.7,1.7-1.7
							h25.6c1.1,0,1.7,0.6,1.7,1.7v10.5c0,1.1-0.6,1.7-1.7,1.7h-13.4v17h11.7c1.1,0,1.7,0.6,1.7,1.7v10.5c0,1.1-0.6,1.7-1.7,1.7
							h-11.7v24.2H245C246,547.4,246.6,547.9,246.6,548.9"/>
					</g>
					<g id="Group-8_13_" transform="translate(61.000000, 0.633400)">
						<g id="Fill-6_15_">
							<path class="st19" d="M216.4,478.1c1.8,0.8,3.4,1.8,4.7,3.2c1.3,1.3,2.4,2.9,3.2,4.7c0.8,1.8,1.2,3.7,1.2,5.8v9.5
								c0,1.1-0.6,1.8-1.5,2.1l-10.7,1.7c-1,0.3-1.5-0.1-1.5-1.2v-11.4c0-0.8-0.3-1.4-0.9-2s-1.3-0.8-2-0.8H208
								c-0.8,0-1.4,0.3-2,0.8c-0.6,0.6-0.8,1.3-0.8,2v53.4c0,0.8,0.2,1.4,0.8,2s1.2,0.8,2,0.8h0.9c0.8,0,1.4-0.2,2-0.8
								s0.9-1.2,0.9-2v-16.6c0-1.1,0.5-1.5,1.5-1.2l10.7,1.4c1,0.3,1.5,1,1.5,2.1v14.8c0,2.1-0.4,3.9-1.2,5.8s-1.9,3.4-3.2,4.7
								c-1.3,1.3-2.9,2.4-4.7,3.2c-1.8,0.8-3.7,1.2-5.8,1.2h-4.5c-2.1,0-3.9-0.4-5.8-1.2s-3.4-1.8-4.7-3.2c-1.3-1.3-2.4-2.9-3.2-4.7
								c-0.8-1.8-1.2-3.7-1.2-5.8v-54.6c0-2.1,0.4-3.9,1.2-5.8c0.8-1.8,1.8-3.4,3.2-4.7c1.3-1.3,2.9-2.4,4.7-3.2
								c1.8-0.8,3.7-1.2,5.8-1.2h4.5C212.7,476.9,214.7,477.3,216.4,478.1"/>
						</g>
					</g>
					<g id="Fill-9_15_">
						<path class="st19" d="M325.3,480.1v67c0,2.1-0.4,3.9-1.2,5.8s-1.8,3.4-3.2,4.7c-1.3,1.3-2.9,2.4-4.7,3.2
							c-1.8,0.8-3.7,1.2-5.8,1.2H306c-2.1,0-3.9-0.4-5.8-1.2c-1.8-0.8-3.4-1.8-4.7-3.2c-1.3-1.3-2.4-2.9-3.2-4.7s-1.2-3.7-1.2-5.8
							v-67c0-1.1,0.6-1.7,1.7-1.7h10.5c1.1,0,1.7,0.6,1.7,1.7v66.4c0,0.8,0.2,1.4,0.8,2c0.6,0.6,1.2,0.8,2,0.8h0.9
							c0.8,0,1.4-0.2,2-0.8c0.6-0.6,0.8-1.2,0.8-2v-66.4c0-1.1,0.6-1.7,1.7-1.7h10.6C324.7,478.4,325.3,479,325.3,480.1"/>
					</g>
					<g id="Fill-11_15_">
						<g>
							<path class="st19" d="M345.4,514.8h3.8c0.8,0,1.4-0.2,2-0.8c0.6-0.6,0.8-1.2,0.8-2V494c0-0.8-0.3-1.4-0.8-2
								c-0.6-0.6-1.3-0.9-2-0.9h-3.8V514.8z M368.2,559.5c0.2,1.1-0.2,1.7-1.2,1.7h-10.7c-0.5,0-0.9-0.2-1.3-0.5
								c-0.5-0.3-0.7-0.7-0.9-1.2l-8.6-28.9v30.6l-0.2-1.2c-0.2,0.8-0.6,1.2-1.5,1.2h-10.5c-1.1,0-1.7-0.6-1.7-1.7v-79.4
								c0-1.1,0.6-1.7,1.7-1.7h17.7c2.1,0,3.9,0.4,5.8,1.2c1.8,0.8,3.4,1.8,4.7,3.2c1.3,1.3,2.4,2.9,3.2,4.7
								c0.8,1.8,1.2,3.7,1.2,5.8v19.2c0,2.9-0.8,5.5-2.2,7.9c-1.5,2.3-3.5,4.1-5.9,5.4L368.2,559.5z"/>
						</g>
					</g>
					<g id="Fill-13_15_">
						<path class="st19" d="M401.8,548.9v10.5c0,1.1-0.6,1.7-1.7,1.7h-25.6c-1.1,0-1.7-0.6-1.7-1.7v-79.4c0-1.1,0.6-1.7,1.7-1.7
							h25.6c1.1,0,1.7,0.6,1.7,1.7v10.5c0,1.1-0.6,1.7-1.7,1.7h-13.5v17h11.7c1.1,0,1.7,0.6,1.7,1.7v10.5c0,1.1-0.6,1.7-1.7,1.7
							h-11.7v24.2h13.5C401.3,547.4,401.8,547.9,401.8,548.9"/>
					</g>
					<path id="Fill-15_12_" class="st18" d="M429.1,493.9c0-0.8-0.3-1.4-0.9-2c-0.6-0.6-1.2-0.9-2-0.9h-3.8v57.4h3.8
						c0.8,0,1.4-0.3,2-0.8c0.6-0.6,0.9-1.2,0.9-2V493.9z M428,478.4c2.1,0,3.9,0.4,5.8,1.2c1.8,0.8,3.4,1.9,4.7,3.2
						c1.3,1.3,2.4,2.9,3.2,4.7c0.8,1.8,1.2,3.7,1.2,5.8v52.9c0,2.1-0.4,3.9-1.2,5.8s-1.8,3.4-3.2,4.7c-1.3,1.3-2.9,2.4-4.7,3.2
						c-1.8,0.8-3.7,1.2-5.8,1.2h-17.7c-1.1,0-1.7-0.6-1.7-1.7v-79.3c0-1.1,0.6-1.7,1.7-1.7H428z"/>
					<path id="Fill-17_12_" class="st18" d="M463,514.8h3.8c0.8,0,1.4-0.2,2-0.8s0.8-1.2,0.8-2V494c0-0.8-0.3-1.4-0.8-2
						c-0.6-0.6-1.3-0.9-2-0.9H463V514.8z M485.8,559.5c0.2,1.1-0.2,1.7-1.2,1.7h-10.7c-0.5,0-0.9-0.2-1.3-0.5
						c-0.5-0.3-0.7-0.7-0.9-1.2l-8.6-28.9v30.6l-0.2-1.2c-0.2,0.8-0.6,1.2-1.5,1.2H451c-1.1,0-1.7-0.6-1.7-1.7v-79.4
						c0-1.1,0.6-1.7,1.7-1.7h17.7c2.1,0,3.9,0.4,5.8,1.2c1.8,0.8,3.4,1.8,4.7,3.2c1.3,1.3,2.4,2.9,3.2,4.7c0.8,1.8,1.2,3.7,1.2,5.8
						v19.2c0,2.9-0.8,5.5-2.2,7.9c-1.5,2.3-3.5,4.1-5.9,5.4L485.8,559.5z"/>
					<path id="Fill-19_12_" class="st18" d="M509.6,493.1c0-0.8-0.3-1.4-0.8-2c-0.6-0.6-1.2-0.8-2-0.8h-0.9c-0.8,0-1.4,0.3-2,0.8
						c-0.6,0.6-0.8,1.3-0.8,2v53.4c0,0.8,0.2,1.4,0.8,2c0.6,0.6,1.2,0.8,2,0.8h0.9c0.8,0,1.4-0.2,2-0.8c0.6-0.6,0.8-1.2,0.8-2V493.1
						z M523.5,547.1c0,2.1-0.4,3.9-1.2,5.8s-1.8,3.4-3.2,4.7c-1.3,1.3-2.9,2.4-4.7,3.2c-1.8,0.8-3.7,1.2-5.8,1.2h-4.5
						c-2.1,0-3.9-0.4-5.8-1.2c-1.8-0.8-3.4-1.8-4.7-3.2c-1.3-1.3-2.4-2.9-3.2-4.7s-1.2-3.7-1.2-5.8v-54.6c0-2.1,0.4-3.9,1.2-5.8
						c0.8-1.8,1.8-3.4,3.2-4.7c1.3-1.3,2.9-2.4,4.7-3.2c1.8-0.8,3.7-1.2,5.8-1.2h4.5c2.1,0,3.9,0.4,5.8,1.2c1.8,0.8,3.4,1.8,4.7,3.2
						c1.3,1.3,2.4,2.9,3.2,4.7c0.8,1.8,1.2,3.7,1.2,5.8V547.1z"/>
					<path id="Fill-21_12_" class="st18" d="M550.2,493.9c0-0.8-0.3-1.4-0.8-2c-0.6-0.6-1.3-0.9-2-0.9h-3.8v23.7h3.8
						c0.8,0,1.4-0.2,2-0.8s0.8-1.2,0.8-2V493.9z M549.2,478.4c2.1,0,3.9,0.4,5.8,1.2c1.8,0.8,3.4,1.9,4.7,3.2
						c1.3,1.3,2.4,2.9,3.2,4.7c0.8,1.8,1.2,3.7,1.2,5.8v19.2c0,2.1-0.4,3.9-1.2,5.8c-0.8,1.8-1.8,3.4-3.2,4.7s-2.9,2.4-4.7,3.2
						s-3.7,1.2-5.8,1.2h-5.5v32c0,1.1-0.6,1.7-1.7,1.7h-10.5c-1.1,0-1.7-0.6-1.7-1.7v-79.3c0-1.1,0.6-1.7,1.7-1.7H549.2z"/>
				</g>
			</g>
		</g>
	</g>
	<g>
		<path class="st17" d="M103,583.4v-64l55.5-32v64L103,583.4z M144.4,547c2.6-1.5,4.2-4.3,4.2-7.3v-24.9c0-2.3-1.9-4.2-4.1-4.2
			c-0.7,0-1.4,0.2-2.1,0.5L117,525.9v37L144.4,547z M125.6,530.7l12.6-7.3c0.9-0.5,2-0.2,2.5,0.7c0.2,0.3,0.2,0.5,0.3,0.8v12
			c0,1.8-1,3.4-2.5,4.3l-12.8,7.2L125.6,530.7z"/>
		<path class="st18" d="M103,519.4l-55.4-32l55.4-28.6l55.5,28.6L103,519.4z M107.5,500.6l16.7-9.4l-18.8-5.2c0.4-0.6,0.6-1.3,0.6-2
			c0-3.5-5.1-6.4-11.3-6.4s-11.3,2.9-11.3,6.4c0,3.5,5.1,6.4,11.3,6.4c0.8,0,1.6,0,2.5-0.1L107.5,500.6z"/>
		<g>
			<polygon class="st12" points="89,539.3 68.4,527.4 68.4,523.2 89,535.1 89,526.3 60.6,509.9 60.6,532 80.1,543.2 80.1,547.4 
				60.6,536.2 60.6,545.3 89,561.7 			"/>
			<path class="st19" d="M47.6,551.4l55.5,32v-64l-55.5-32V551.4z M60.6,536.2L80,547.4v-4.2L60.6,532v-22.1L89,526.2v8.9
				l-20.7-11.9v4.2L89,539.3v22.4l-28.4-16.4V536.2z"/>
		</g>
	</g>
</g>
<g id="Symbols_5_">
	<g>
		<g id="Logo_x2F_White-Text_5_">
			<g id="SD-Logo_5_">
				<g id="Group-3_5_" transform="translate(0.000000, 0.633400)">
					<g id="Fill-1_5_">
						<path class="st19" d="M241.6,735c1.1,0.5,2,1.1,2.8,1.9c0.8,0.8,1.4,1.8,1.9,2.8c0.5,1.1,0.7,2.2,0.7,3.5v2.7
							c0,0.7-0.3,1.1-0.9,1.3l-6.5,1.7c-0.6,0.2-0.9,0-0.9-0.7v-4.6c0-0.5-0.2-0.9-0.5-1.2c-0.3-0.3-0.7-0.5-1.2-0.5h-0.6
							c-0.5,0-0.9,0.2-1.2,0.5c-0.3,0.3-0.5,0.8-0.5,1.2v6.5c0,0.5,0.1,0.9,0.3,1.3c0.1,0.4,0.4,0.8,0.8,1.1l9.2,7
							c0.8,0.7,1.2,1.3,1.5,2c0.2,0.7,0.4,1.5,0.5,2.3v12.2c0,1.2-0.2,2.4-0.7,3.5c-0.5,1.1-1.1,2-1.9,2.8c-0.8,0.8-1.8,1.4-2.8,1.9
							c-1.1,0.5-2.2,0.7-3.5,0.7h-2.7c-1.2,0-2.4-0.2-3.5-0.7c-1.1-0.5-2-1.1-2.8-1.9s-1.4-1.8-1.9-2.8c-0.5-1.1-0.7-2.2-0.7-3.5
							v-6.8c0-0.7,0.3-1.1,0.9-1.3l6.5-1.7c0.6-0.2,0.9,0,0.9,0.7v8.7c0,0.5,0.1,0.9,0.5,1.2c0.3,0.3,0.7,0.5,1.2,0.5h0.6
							c0.5,0,0.9-0.1,1.2-0.5c0.3-0.3,0.5-0.7,0.5-1.2v-9.4c0-0.6-0.1-1.1-0.3-1.6c-0.1-0.5-0.4-0.9-0.9-1.3l-9.1-7.1
							c-0.7-0.7-1.2-1.3-1.5-2c-0.3-0.7-0.5-1.5-0.5-2.6v-8.5c0-1.2,0.2-2.4,0.7-3.5c0.5-1.1,1.1-2,1.9-2.8c0.8-0.8,1.8-1.4,2.8-1.9
							c1.1-0.5,2.2-0.7,3.5-0.7h2.7C239.4,734.3,240.5,734.6,241.6,735"/>
					</g>
				</g>
				<g id="Fill-4_5_">
					<path class="st19" d="M267.9,777.9v6.3c0,0.7-0.3,1-1,1h-15.4c-0.7,0-1-0.3-1-1v-47.7c0-0.7,0.3-1,1-1h15.4c0.7,0,1,0.3,1,1
						v6.3c0,0.7-0.3,1-1,1h-8.1V754h7c0.7,0,1,0.3,1,1v6.3c0,0.7-0.3,1-1,1h-7v14.6h8.1C267.5,776.9,267.9,777.3,267.9,777.9"/>
				</g>
				<g id="Group-8_5_" transform="translate(61.000000, 0.633400)">
					<g id="Fill-6_5_">
						<path class="st19" d="M225.4,735c1.1,0.5,2,1.1,2.8,1.9c0.8,0.8,1.4,1.8,1.9,2.8c0.5,1.1,0.7,2.2,0.7,3.5v5.7
							c0,0.7-0.3,1.1-0.9,1.3l-6.5,1c-0.6,0.2-0.9,0-0.9-0.7v-6.9c0-0.5-0.2-0.9-0.5-1.2c-0.3-0.3-0.8-0.5-1.2-0.5h-0.6
							c-0.5,0-0.9,0.2-1.2,0.5c-0.3,0.3-0.5,0.8-0.5,1.2v32.1c0,0.5,0.1,0.9,0.5,1.2c0.3,0.3,0.7,0.5,1.2,0.5h0.6
							c0.5,0,0.9-0.1,1.2-0.5c0.3-0.3,0.5-0.7,0.5-1.2v-10c0-0.7,0.3-0.9,0.9-0.7l6.5,0.9c0.6,0.2,0.9,0.6,0.9,1.3v8.9
							c0,1.2-0.2,2.4-0.7,3.5c-0.5,1.1-1.1,2-1.9,2.8c-0.8,0.8-1.8,1.4-2.8,1.9c-1.1,0.5-2.2,0.7-3.5,0.7h-2.7
							c-1.2,0-2.4-0.2-3.5-0.7c-1.1-0.5-2-1.1-2.8-1.9c-0.8-0.8-1.4-1.8-1.9-2.8c-0.5-1.1-0.7-2.2-0.7-3.5v-32.8
							c0-1.2,0.2-2.4,0.7-3.5c0.5-1.1,1.1-2,1.9-2.8c0.8-0.8,1.8-1.4,2.8-1.9c1.1-0.5,2.2-0.7,3.5-0.7h2.7
							C223.2,734.3,224.4,734.6,225.4,735"/>
					</g>
				</g>
				<g id="Fill-9_5_">
					<path class="st19" d="M315.2,736.5v40.3c0,1.2-0.2,2.4-0.7,3.5c-0.5,1.1-1.1,2-1.9,2.8s-1.8,1.4-2.8,1.9
						c-1.1,0.5-2.2,0.7-3.5,0.7h-2.7c-1.2,0-2.4-0.2-3.5-0.7c-1.1-0.5-2-1.1-2.8-1.9s-1.4-1.8-1.9-2.8c-0.5-1.1-0.7-2.2-0.7-3.5
						v-40.3c0-0.7,0.3-1,1-1h6.3c0.7,0,1,0.3,1,1v39.9c0,0.5,0.1,0.9,0.5,1.2c0.3,0.3,0.7,0.5,1.2,0.5h0.6c0.5,0,0.9-0.1,1.2-0.5
						c0.3-0.3,0.5-0.7,0.5-1.2v-39.9c0-0.7,0.3-1,1-1h6.4C314.9,735.5,315.2,735.8,315.2,736.5"/>
				</g>
				<g id="Fill-11_5_">
					<g>
						<path class="st19" d="M327.3,757.3h2.3c0.5,0,0.9-0.1,1.2-0.5c0.3-0.3,0.5-0.7,0.5-1.2v-10.9c0-0.5-0.2-0.9-0.5-1.2
							c-0.3-0.3-0.8-0.5-1.2-0.5h-2.3V757.3z M341,784.2c0.1,0.7-0.1,1-0.7,1h-6.5c-0.3,0-0.6-0.1-0.8-0.3c-0.3-0.2-0.4-0.4-0.5-0.7
							l-5.2-17.4v18.4l-0.1-0.7c-0.1,0.5-0.4,0.7-0.9,0.7H320c-0.7,0-1-0.3-1-1v-47.8c0-0.7,0.3-1,1-1h10.7c1.2,0,2.4,0.2,3.5,0.7
							s2,1.1,2.8,1.9s1.4,1.8,1.9,2.8s0.7,2.2,0.7,3.5V756c0,1.8-0.5,3.3-1.3,4.7c-0.9,1.4-2.1,2.5-3.6,3.2L341,784.2z"/>
					</g>
				</g>
				<g id="Fill-13_5_">
					<path class="st19" d="M361.2,777.9v6.3c0,0.7-0.3,1-1,1h-15.4c-0.7,0-1-0.3-1-1v-47.7c0-0.7,0.3-1,1-1h15.4c0.7,0,1,0.3,1,1
						v6.3c0,0.7-0.3,1-1,1h-8.1V754h7c0.7,0,1,0.3,1,1v6.3c0,0.7-0.3,1-1,1h-7v14.6h8.1C360.9,776.9,361.2,777.3,361.2,777.9"/>
				</g>
				<path id="Fill-15_5_" class="st18" d="M377.6,744.8c0-0.5-0.2-0.9-0.5-1.2c-0.3-0.3-0.7-0.5-1.2-0.5h-2.3v34.5h2.3
					c0.5,0,0.9-0.2,1.2-0.5c0.3-0.3,0.5-0.7,0.5-1.2V744.8z M377,735.5c1.2,0,2.4,0.2,3.5,0.7c1.1,0.5,2,1.1,2.8,1.9
					c0.8,0.8,1.4,1.8,1.9,2.8s0.7,2.2,0.7,3.5v31.8c0,1.2-0.2,2.4-0.7,3.5c-0.5,1.1-1.1,2-1.9,2.8c-0.8,0.8-1.8,1.4-2.8,1.9
					c-1.1,0.5-2.2,0.7-3.5,0.7h-10.7c-0.7,0-1-0.3-1-1v-47.7c0-0.7,0.3-1,1-1H377z"/>
				<path id="Fill-17_5_" class="st18" d="M398,757.3h2.3c0.5,0,0.9-0.1,1.2-0.5c0.3-0.3,0.5-0.7,0.5-1.2v-10.9
					c0-0.5-0.2-0.9-0.5-1.2c-0.3-0.3-0.8-0.5-1.2-0.5H398V757.3z M411.7,784.2c0.1,0.7-0.1,1-0.7,1h-6.5c-0.3,0-0.6-0.1-0.8-0.3
					c-0.3-0.2-0.4-0.4-0.5-0.7l-5.2-17.4v18.4l-0.1-0.7c-0.1,0.5-0.4,0.7-0.9,0.7h-6.3c-0.7,0-1-0.3-1-1v-47.8c0-0.7,0.3-1,1-1h10.7
					c1.2,0,2.4,0.2,3.5,0.7s2,1.1,2.8,1.9c0.8,0.8,1.4,1.8,1.9,2.8c0.5,1.1,0.7,2.2,0.7,3.5V756c0,1.8-0.5,3.3-1.3,4.7
					c-0.9,1.4-2.1,2.5-3.6,3.2L411.7,784.2z"/>
				<path id="Fill-19_5_" class="st18" d="M426.1,744.3c0-0.5-0.2-0.9-0.5-1.2c-0.3-0.3-0.7-0.5-1.2-0.5h-0.6
					c-0.5,0-0.9,0.2-1.2,0.5c-0.3,0.3-0.5,0.8-0.5,1.2v32.1c0,0.5,0.1,0.9,0.5,1.2c0.3,0.3,0.7,0.5,1.2,0.5h0.6
					c0.5,0,0.9-0.1,1.2-0.5c0.3-0.3,0.5-0.7,0.5-1.2V744.3z M434.4,776.8c0,1.2-0.2,2.4-0.7,3.5c-0.5,1.1-1.1,2-1.9,2.8
					c-0.8,0.8-1.8,1.4-2.8,1.9c-1.1,0.5-2.2,0.7-3.5,0.7h-2.7c-1.2,0-2.4-0.2-3.5-0.7c-1.1-0.5-2-1.1-2.8-1.9
					c-0.8-0.8-1.4-1.8-1.9-2.8s-0.7-2.2-0.7-3.5V744c0-1.2,0.2-2.4,0.7-3.5c0.5-1.1,1.1-2,1.9-2.8c0.8-0.8,1.8-1.4,2.8-1.9
					c1.1-0.5,2.2-0.7,3.5-0.7h2.7c1.2,0,2.4,0.2,3.5,0.7c1.1,0.5,2,1.1,2.8,1.9c0.8,0.8,1.4,1.8,1.9,2.8c0.5,1.1,0.7,2.2,0.7,3.5
					V776.8z"/>
				<path id="Fill-21_5_" class="st18" d="M450.4,744.8c0-0.5-0.2-0.9-0.5-1.2c-0.3-0.3-0.8-0.5-1.2-0.5h-2.3v14.3h2.3
					c0.5,0,0.9-0.1,1.2-0.5c0.3-0.3,0.5-0.7,0.5-1.2V744.8z M449.8,735.5c1.2,0,2.4,0.2,3.5,0.7c1.1,0.5,2,1.1,2.8,1.9
					c0.8,0.8,1.4,1.8,1.9,2.8c0.5,1.1,0.7,2.2,0.7,3.5V756c0,1.2-0.2,2.4-0.7,3.5c-0.5,1.1-1.1,2-1.9,2.8c-0.8,0.8-1.8,1.4-2.8,1.9
					c-1.1,0.5-2.2,0.7-3.5,0.7h-3.3v19.3c0,0.7-0.3,1-1,1h-6.3c-0.7,0-1-0.3-1-1v-47.7c0-0.7,0.3-1,1-1H449.8z"/>
			</g>
		</g>
	</g>
</g>
<g>
	<path class="st17" d="M180.1,798.4v-38.5l33.4-19.3v38.5L180.1,798.4z M205.7,777.1c1.7-1,2.8-2.9,2.8-4.8v-16.5
		c0-1.5-1.2-2.8-2.7-2.8c-0.5,0-1,0.1-1.4,0.4l-16.9,9.8v24.5L205.7,777.1z M193.3,766.3l8.4-4.8c0.6-0.3,1.3-0.1,1.6,0.4
		c0.1,0.2,0.1,0.4,0.2,0.6v8c0,1.2-0.6,2.3-1.6,2.8l-8.5,4.8L193.3,766.3z"/>
	<path class="st18" d="M180.1,759.9l-33.3-19.3l33.3-17.2l33.4,17.2L180.1,759.9z M184.7,749.7l10.6-6l-11.9-3.3
		c0.2-0.4,0.4-0.8,0.4-1.3c0-2.2-3.2-4-7.1-4c-4,0-7.1,1.8-7.1,4s3.2,4,7.1,4c0.5,0,1,0,1.6-0.1L184.7,749.7z"/>
	<g>
		<path class="st19" d="M146.8,779.1l33.4,19.3v-38.5l-33.4-19.3V779.1z M153.8,770l12.9,7.4V774l-12.9-7.4v-14l18.8,10.8v5.9
			l-13.7-7.9v3.5l13.7,7.9v14.2l-18.8-10.8V770z"/>
	</g>
</g>
</svg>
