<?xml version="1.0" encoding="utf-8"?>
<!-- Generator: Adobe Illustrator 21.1.0, SVG Export Plug-In . SVG Version: 6.00 Build 0)  -->
<svg version="1.1" xmlns="http://www.w3.org/2000/svg" xmlns:xlink="http://www.w3.org/1999/xlink" x="0px" y="0px"
	 viewBox="0 0 612 792" style="enable-background:new 0 0 612 792;" xml:space="preserve">
<style type="text/css">
	.st0{fill:none;stroke:#E700C7;stroke-width:0.7;stroke-miterlimit:10;}
	.st1{fill:none;stroke:#E700C7;stroke-width:0.7;stroke-miterlimit:10;stroke-dasharray:1.4102,2.1153;}
	.st2{fill:none;stroke:#E700C7;stroke-width:0.7;stroke-miterlimit:10;stroke-dasharray:1.4102,2.1153,1.4102,2.1153;}
	.st3{fill:#E700C7;}
	.st4{font-family:'Verdana';}
	.st5{font-size:8.4px;}
	.st6{fill:none;stroke:#EC008C;stroke-width:0.5989;stroke-miterlimit:10;}
	.st7{fill:none;stroke:#EC008C;stroke-width:0.6039;stroke-miterlimit:10;}
	.st8{fill:none;stroke:#EC008C;stroke-width:0.7754;stroke-miterlimit:10;}
	.st9{fill:none;stroke:#EC008C;stroke-width:0.7754;stroke-miterlimit:10;stroke-dasharray:0.6,1.8;}
	.st10{fill:none;stroke:#EC008C;stroke-width:0.7754;stroke-miterlimit:10;stroke-dasharray:0.596,1.7881;}
	.st11{opacity:0.61;}
	.st12{fill:none;}
	.st13{fill:#EC008C;}
	.st14{fill:#FFFFFF;}
	.st15{font-family:'Verdana-Bold';}
	.st16{font-size:8px;}
	.st17{fill:#093D70;}
	.st18{fill:#2E8AE8;}
	.st19{fill:#045FB4;}
	.st20{font-size:16px;}
	.st21{font-family:'Verdana-Italic';}
</style>
<g id="Layer_1">
	<g>
		<g>
			<g>
				<line class="st0" x1="59.8" y1="345.3" x2="60.5" y2="345.3"/>
				<line class="st1" x1="62.6" y1="345.3" x2="65.1" y2="345.3"/>
				<line class="st2" x1="66.2" y1="345.3" x2="537.5" y2="345.3"/>
				<line class="st0" x1="538.6" y1="345.3" x2="539.3" y2="345.3"/>
			</g>
		</g>
		<text transform="matrix(1 0 0 1 59.8312 338.9594)" class="st3 st4 st5">Mark Only</text>
	</g>
	<g>
		<g>
			<g>
				<line class="st0" x1="54.9" y1="615.4" x2="55.6" y2="615.4"/>
				<line class="st1" x1="57.7" y1="615.4" x2="60.2" y2="615.4"/>
				<line class="st2" x1="61.3" y1="615.4" x2="532.6" y2="615.4"/>
				<line class="st0" x1="533.7" y1="615.4" x2="534.4" y2="615.4"/>
			</g>
		</g>
		<text transform="matrix(1 0 0 1 54.9274 609.1156)" class="st3 st4 st5">Larger than 75px tall</text>
	</g>
	<g>
		<g>
			<g>
				<line class="st0" x1="58.4" y1="728" x2="59.1" y2="728"/>
				<line class="st1" x1="61.2" y1="728" x2="63.7" y2="728"/>
				<line class="st2" x1="64.8" y1="728" x2="536.1" y2="728"/>
				<line class="st0" x1="537.2" y1="728" x2="537.9" y2="728"/>
			</g>
		</g>
		<text transform="matrix(1 0 0 1 58.4274 721.7)" class="st3 st4 st5">Smaller than 75px tall</text>
	</g>
	<g>
		<g>
			<rect x="104.7" y="41.2" class="st6" width="181.9" height="73.4"/>
			<rect x="41.7" y="41.2" class="st7" width="63" height="73.4"/>
			<g>
				<g>
					<polyline class="st8" points="293.1,121.1 293.1,121.4 292.8,121.4 					"/>
					<line class="st9" x1="291" y1="121.4" x2="37.5" y2="121.4"/>
					<polyline class="st8" points="36.6,121.4 36.3,121.4 36.3,121.1 					"/>
					<line class="st10" x1="36.3" y1="119.3" x2="36.3" y2="31.9"/>
					<polyline class="st8" points="36.3,31.1 36.3,30.8 36.6,30.8 					"/>
					<line class="st9" x1="38.4" y1="30.8" x2="291.9" y2="30.8"/>
					<polyline class="st8" points="292.8,30.8 293.1,30.8 293.1,31.1 					"/>
					<line class="st10" x1="293.1" y1="32.8" x2="293.1" y2="120.2"/>
				</g>
			</g>
			<g class="st11">
				<g id="Symbols_7_">
					<g>
						<g id="Logo_x2F_White-Text_7_">
							<g id="SD-Logo_7_">
								<g id="Group-3_7_" transform="translate(0.000000, 0.633400)">
									<g id="Fill-1_7_">
										<path d="M121.5,57.8c0.8,0.3,1.4,0.8,2,1.3c0.6,0.6,1,1.2,1.3,2c0.3,0.8,0.5,1.6,0.5,2.4v1.9c0,0.5-0.2,0.8-0.6,0.9
											l-4.5,1.2c-0.4,0.1-0.6,0-0.6-0.5v-3.2c0-0.3-0.1-0.6-0.3-0.8c-0.2-0.2-0.5-0.3-0.8-0.3H118c-0.3,0-0.6,0.1-0.8,0.3
											c-0.2,0.2-0.3,0.5-0.3,0.8v4.5c0,0.4,0.1,0.7,0.2,0.9c0.1,0.3,0.3,0.5,0.5,0.8l6.4,4.9c0.5,0.5,0.9,0.9,1,1.4
											c0.2,0.5,0.3,1,0.3,1.6v8.5c0,0.9-0.2,1.7-0.5,2.4c-0.3,0.8-0.8,1.4-1.3,2c-0.6,0.6-1.2,1-2,1.3c-0.8,0.3-1.6,0.5-2.4,0.5
											h-1.9c-0.9,0-1.7-0.2-2.4-0.5c-0.8-0.3-1.4-0.8-2-1.3c-0.6-0.6-1-1.2-1.3-2c-0.3-0.8-0.5-1.6-0.5-2.4v-4.8
											c0-0.5,0.2-0.8,0.6-0.9l4.5-1.2c0.4-0.1,0.6,0,0.6,0.5v6.1c0,0.3,0.1,0.6,0.3,0.8c0.2,0.2,0.5,0.3,0.8,0.3h0.4
											c0.3,0,0.6-0.1,0.8-0.3c0.2-0.2,0.3-0.5,0.3-0.8v-6.5c0-0.4-0.1-0.8-0.2-1.1c-0.1-0.3-0.3-0.6-0.6-0.9l-6.3-4.9
											c-0.5-0.5-0.9-0.9-1.1-1.4c-0.2-0.5-0.3-1.1-0.3-1.8v-5.9c0-0.9,0.2-1.7,0.5-2.4c0.3-0.8,0.8-1.4,1.3-2
											c0.6-0.6,1.2-1,2-1.3c0.8-0.3,1.6-0.5,2.4-0.5h1.9C120,57.3,120.8,57.5,121.5,57.8"/>
									</g>
								</g>
								<g id="Fill-4_7_">
									<path d="M139.8,87.8v4.4c0,0.5-0.2,0.7-0.7,0.7h-10.7c-0.5,0-0.7-0.2-0.7-0.7V59c0-0.5,0.2-0.7,0.7-0.7h10.7
										c0.5,0,0.7,0.2,0.7,0.7v4.4c0,0.5-0.2,0.7-0.7,0.7h-5.6v7.1h4.9c0.5,0,0.7,0.2,0.7,0.7v4.4c0,0.5-0.2,0.7-0.7,0.7h-4.9
										v10.1h5.6C139.6,87.1,139.8,87.4,139.8,87.8"/>
								</g>
								<g id="Group-8_7_" transform="translate(61.000000, 0.633400)">
									<g id="Fill-6_7_">
										<path d="M91.7,57.8c0.8,0.3,1.4,0.8,2,1.3c0.6,0.6,1,1.2,1.3,2c0.3,0.8,0.5,1.6,0.5,2.4v4c0,0.5-0.2,0.8-0.6,0.9l-4.5,0.7
											c-0.4,0.1-0.6,0-0.6-0.5v-4.8c0-0.3-0.1-0.6-0.4-0.8c-0.2-0.2-0.5-0.3-0.8-0.3h-0.4c-0.3,0-0.6,0.1-0.8,0.3
											c-0.2,0.2-0.3,0.5-0.3,0.8v22.3c0,0.3,0.1,0.6,0.3,0.8c0.2,0.2,0.5,0.3,0.8,0.3h0.4c0.3,0,0.6-0.1,0.8-0.3
											c0.2-0.2,0.4-0.5,0.4-0.8v-6.9c0-0.5,0.2-0.6,0.6-0.5l4.5,0.6c0.4,0.1,0.6,0.4,0.6,0.9v6.2c0,0.9-0.2,1.7-0.5,2.4
											c-0.3,0.8-0.8,1.4-1.3,2c-0.6,0.6-1.2,1-2,1.3c-0.8,0.3-1.6,0.5-2.4,0.5h-1.9c-0.9,0-1.7-0.2-2.4-0.5
											c-0.8-0.3-1.4-0.8-2-1.3s-1-1.2-1.3-2c-0.3-0.8-0.5-1.6-0.5-2.4V63.5c0-0.9,0.2-1.7,0.5-2.4c0.3-0.8,0.8-1.4,1.3-2
											c0.6-0.6,1.2-1,2-1.3s1.6-0.5,2.4-0.5h1.9C90.2,57.3,91,57.5,91.7,57.8"/>
									</g>
								</g>
								<g id="Fill-9_7_">
									<path d="M172.7,59V87c0,0.9-0.2,1.7-0.5,2.4c-0.3,0.8-0.8,1.4-1.3,2c-0.6,0.6-1.2,1-2,1.3c-0.8,0.3-1.6,0.5-2.4,0.5h-1.9
										c-0.9,0-1.7-0.2-2.4-0.5c-0.8-0.3-1.4-0.8-2-1.3c-0.6-0.6-1-1.2-1.3-2c-0.3-0.8-0.5-1.6-0.5-2.4V59c0-0.5,0.2-0.7,0.7-0.7
										h4.4c0.5,0,0.7,0.2,0.7,0.7v27.8c0,0.3,0.1,0.6,0.3,0.8s0.5,0.3,0.8,0.3h0.4c0.3,0,0.6-0.1,0.8-0.3s0.3-0.5,0.3-0.8V59
										c0-0.5,0.2-0.7,0.7-0.7h4.4C172.5,58.3,172.7,58.5,172.7,59"/>
								</g>
								<g id="Fill-11_7_">
									<g>
										<path d="M181.2,73.5h1.6c0.3,0,0.6-0.1,0.8-0.3c0.2-0.2,0.3-0.5,0.3-0.8v-7.6c0-0.3-0.1-0.6-0.3-0.8
											c-0.2-0.2-0.5-0.4-0.8-0.4h-1.6V73.5z M190.7,92.2c0.1,0.5-0.1,0.7-0.5,0.7h-4.5c-0.2,0-0.4-0.1-0.6-0.2
											c-0.2-0.1-0.3-0.3-0.4-0.5l-3.6-12.1v12.8l-0.1-0.5c-0.1,0.3-0.3,0.5-0.6,0.5h-4.4c-0.5,0-0.7-0.2-0.7-0.7V59
											c0-0.5,0.2-0.7,0.7-0.7h7.4c0.9,0,1.7,0.2,2.4,0.5c0.8,0.3,1.4,0.8,2,1.3c0.6,0.6,1,1.2,1.3,2c0.3,0.8,0.5,1.6,0.5,2.4
											v8.1c0,1.2-0.3,2.3-0.9,3.3c-0.6,1-1.5,1.7-2.5,2.2L190.7,92.2z"/>
									</g>
								</g>
								<g id="Fill-13_7_">
									<path d="M204.7,87.8v4.4c0,0.5-0.2,0.7-0.7,0.7h-10.7c-0.5,0-0.7-0.2-0.7-0.7V59c0-0.5,0.2-0.7,0.7-0.7h10.7
										c0.5,0,0.7,0.2,0.7,0.7v4.4c0,0.5-0.2,0.7-0.7,0.7h-5.6v7.1h4.9c0.5,0,0.7,0.2,0.7,0.7v4.4c0,0.5-0.2,0.7-0.7,0.7h-4.9
										v10.1h5.6C204.5,87.1,204.7,87.4,204.7,87.8"/>
								</g>
								<path id="Fill-15_7_" d="M216.2,64.8c0-0.3-0.1-0.6-0.4-0.8c-0.2-0.2-0.5-0.4-0.8-0.4h-1.6v24h1.6c0.3,0,0.6-0.1,0.8-0.3
									c0.2-0.2,0.4-0.5,0.4-0.8V64.8z M215.7,58.3c0.9,0,1.7,0.2,2.4,0.5c0.8,0.3,1.4,0.8,2,1.3c0.6,0.6,1,1.2,1.3,2
									c0.3,0.8,0.5,1.6,0.5,2.4v22.1c0,0.9-0.2,1.7-0.5,2.4c-0.3,0.8-0.8,1.4-1.3,2s-1.2,1-2,1.3c-0.8,0.3-1.6,0.5-2.4,0.5h-7.4
									c-0.5,0-0.7-0.2-0.7-0.7V59c0-0.5,0.2-0.7,0.7-0.7H215.7z"/>
								<path id="Fill-17_7_" d="M230.4,73.5h1.6c0.3,0,0.6-0.1,0.8-0.3c0.2-0.2,0.3-0.5,0.3-0.8v-7.6c0-0.3-0.1-0.6-0.3-0.8
									c-0.2-0.2-0.5-0.4-0.8-0.4h-1.6V73.5z M239.9,92.2c0.1,0.5-0.1,0.7-0.5,0.7h-4.5c-0.2,0-0.4-0.1-0.6-0.2
									c-0.2-0.1-0.3-0.3-0.4-0.5l-3.6-12.1v12.8l-0.1-0.5c-0.1,0.3-0.3,0.5-0.6,0.5h-4.4c-0.5,0-0.7-0.2-0.7-0.7V59
									c0-0.5,0.2-0.7,0.7-0.7h7.4c0.9,0,1.7,0.2,2.4,0.5c0.8,0.3,1.4,0.8,2,1.3s1,1.2,1.3,2c0.3,0.8,0.5,1.6,0.5,2.4v8.1
									c0,1.2-0.3,2.3-0.9,3.3c-0.6,1-1.5,1.7-2.5,2.2L239.9,92.2z"/>
								<path id="Fill-19_7_" d="M249.9,64.4c0-0.3-0.1-0.6-0.3-0.8c-0.2-0.2-0.5-0.3-0.8-0.3h-0.4c-0.3,0-0.6,0.1-0.8,0.3
									c-0.2,0.2-0.3,0.5-0.3,0.8v22.3c0,0.3,0.1,0.6,0.3,0.8s0.5,0.3,0.8,0.3h0.4c0.3,0,0.6-0.1,0.8-0.3c0.2-0.2,0.3-0.5,0.3-0.8
									V64.4z M255.7,87c0,0.9-0.2,1.7-0.5,2.4c-0.3,0.8-0.8,1.4-1.3,2c-0.6,0.6-1.2,1-2,1.3c-0.8,0.3-1.6,0.5-2.4,0.5h-1.9
									c-0.9,0-1.7-0.2-2.4-0.5c-0.8-0.3-1.4-0.8-2-1.3c-0.6-0.6-1-1.2-1.3-2c-0.3-0.8-0.5-1.6-0.5-2.4V64.2c0-0.9,0.2-1.7,0.5-2.4
									c0.3-0.8,0.8-1.4,1.3-2c0.6-0.6,1.2-1,2-1.3c0.8-0.3,1.6-0.5,2.4-0.5h1.9c0.9,0,1.7,0.2,2.4,0.5c0.8,0.3,1.4,0.8,2,1.3
									c0.6,0.6,1,1.2,1.3,2c0.3,0.8,0.5,1.6,0.5,2.4V87z"/>
								<path id="Fill-21_7_" d="M266.8,64.8c0-0.3-0.1-0.6-0.3-0.8c-0.2-0.2-0.5-0.4-0.8-0.4h-1.6v9.9h1.6c0.3,0,0.6-0.1,0.8-0.3
									c0.2-0.2,0.3-0.5,0.3-0.8V64.8z M266.4,58.3c0.9,0,1.7,0.2,2.4,0.5c0.8,0.3,1.4,0.8,2,1.3c0.6,0.6,1,1.2,1.3,2
									c0.3,0.8,0.5,1.6,0.5,2.4v8.1c0,0.9-0.2,1.7-0.5,2.4c-0.3,0.8-0.8,1.4-1.3,2c-0.6,0.6-1.2,1-2,1.3c-0.8,0.3-1.6,0.5-2.4,0.5
									h-2.3v13.4c0,0.5-0.2,0.7-0.7,0.7H259c-0.5,0-0.7-0.2-0.7-0.7V59c0-0.5,0.2-0.7,0.7-0.7H266.4z"/>
							</g>
						</g>
					</g>
				</g>
			</g>
			<g class="st11">
				<polygon class="st12" points="56.9,80.6 65.8,85.8 65.8,87.7 56.9,82.6 56.9,86.8 70,94.3 70,84 60.4,78.5 60.4,76.5 70,82.1 
					70,78 56.9,70.4 				"/>
				<path class="st12" d="M95.3,61.9L73.9,50.7L52.5,61.9l21.4,12.3L95.3,61.9z M70.9,62.9c-2.6,0-4.8-1.2-4.8-2.7
					c0-1.5,2.1-2.7,4.8-2.7s4.8,1.2,4.8,2.7c0,0.3-0.1,0.6-0.2,0.8l7.9,2.2l-7,4l-4.4-4.4C71.5,62.9,71.2,62.9,70.9,62.9z"/>
				<path class="st12" d="M90.7,70.7c-0.3,0-0.7,0.1-1,0.3L78,77.8v17.1l12.7-7.3c1.2-0.7,1.9-2,1.9-3.4V72.6
					C92.6,71.6,91.7,70.7,90.7,70.7z M89.1,82.9c0,0.8-0.4,1.6-1.1,2L82,88.2l0-8.2l5.8-3.4c0.4-0.2,0.9-0.1,1.1,0.3
					c0.1,0.1,0.1,0.3,0.1,0.4V82.9z"/>
				<path d="M87.8,76.6L82,80l0,8.2l5.9-3.3c0.7-0.4,1.1-1.1,1.1-2v-5.6c0-0.1,0-0.3-0.1-0.4C88.7,76.6,88.2,76.4,87.8,76.6z"/>
				<path d="M97.1,61.7L97.1,61.7L73.9,49.5L50.5,61.7l0.1,0v26.8L73.9,102v0l0,0l0,0v0l23.3-13.4V61.7z M73.9,50.7l21.4,11.2
					L73.9,74.3L52.5,61.9L73.9,50.7z M70,82.1l-9.5-5.5v1.9L70,84v10.3l-13.1-7.6v-4.2l9,5.2v-1.9l-9-5.2V70.4L70,78V82.1z
					 M92.6,84.1c0,1.4-0.7,2.7-1.9,3.4L78,94.8V77.8L89.7,71c0.3-0.2,0.6-0.3,1-0.3c1.1,0,1.9,0.9,1.9,1.9V84.1z"/>
				<path d="M83.3,63.3l-7.9-2.2c0.2-0.3,0.2-0.5,0.2-0.8c0-1.5-2.1-2.7-4.8-2.7s-4.8,1.2-4.8,2.7c0,1.5,2.1,2.7,4.8,2.7
					c0.4,0,0.7,0,1-0.1l4.4,4.4L83.3,63.3z"/>
			</g>
			<circle class="st13" cx="57.2" cy="42.2" r="7.8"/>
			<circle class="st13" cx="120.2" cy="41" r="7.8"/>
			<circle class="st13" cx="159.2" cy="30.2" r="7.8"/>
			<text transform="matrix(1 0 0 1 54.1179 45.0521)" class="st14 st15 st5">A</text>
			<text transform="matrix(1 0 0 1 117.1179 43.8519)" class="st14 st15 st5">B</text>
			<text transform="matrix(1 0 0 1 156.1179 33.0526)" class="st14 st15 st5">C</text>
		</g>
		<text transform="matrix(1 0 0 1 324.8758 30.3255)"><tspan x="0" y="0" class="st13 st15 st16">A. Logo-Mark</tspan><tspan x="0" y="18.6" class="st13 st15 st16">B. Logo-Type</tspan><tspan x="0" y="37.2" class="st13 st15 st16">C. </tspan><tspan x="11.9" y="37.2" class="st13 st15 st16">Lockup</tspan><tspan x="0" y="49.8" class="st13 st4 st16">    The logo-mark and logo-type together, as shown. </tspan><tspan x="0" y="62.4" class="st13 st4 st16">    The logo-type before the logo-mark would not qualify as an</tspan><tspan x="0" y="75" class="st13 st4 st16">    official “lockup.” We do not allow the SecureDrop logo-mark</tspan><tspan x="0" y="87.6" class="st13 st4 st16">    and logo-type to be paired by customers in any manner other </tspan><tspan x="0" y="100.2" class="st13 st4 st16">    then as shown, here.</tspan></text>
	</g>
	<g>
		<g id="Symbols_13_">
			<g>
				<g id="Logo_x2F_White-Text_13_">
					<g id="SD-Logo_13_">
						<g id="Group-3_13_" transform="translate(0.000000, 0.633400)">
							<g id="Fill-1_15_">
								<path class="st17" d="M205.9,452.1c1.8,0.8,3.4,1.8,4.7,3.2c1.3,1.3,2.4,2.9,3.2,4.7c0.8,1.8,1.2,3.7,1.2,5.8v4.5
									c0,1.1-0.5,1.8-1.5,2.1l-10.7,2.8c-1,0.3-1.5-0.1-1.5-1.2v-7.7c0-0.8-0.3-1.4-0.8-2c-0.6-0.6-1.2-0.8-2-0.8h-0.9
									c-0.8,0-1.4,0.3-2,0.8c-0.6,0.6-0.8,1.3-0.8,2v10.7c0.1,0.9,0.2,1.6,0.5,2.2c0.2,0.6,0.6,1.3,1.3,1.9l15.3,11.7
									c1.3,1.1,2.1,2.2,2.4,3.4c0.4,1.1,0.6,2.4,0.8,3.9v20.4c0,2.1-0.4,3.9-1.2,5.8c-0.8,1.8-1.8,3.4-3.2,4.7
									c-1.3,1.3-2.9,2.4-4.7,3.2s-3.7,1.2-5.8,1.2h-4.5c-2.1,0-3.9-0.4-5.8-1.2s-3.4-1.8-4.7-3.2s-2.4-2.9-3.2-4.7
									c-0.8-1.8-1.2-3.7-1.2-5.8v-11.4c0-1.1,0.5-1.8,1.5-2.1l10.7-2.8c1-0.3,1.5,0.1,1.5,1.2v14.5c0,0.8,0.2,1.4,0.8,2
									s1.2,0.8,2,0.8h0.9c0.8,0,1.4-0.2,2-0.8s0.8-1.2,0.8-2v-15.6c-0.1-1-0.2-1.9-0.5-2.7c-0.2-0.8-0.7-1.5-1.4-2.1L184,487.7
									c-1.2-1.1-2.1-2.2-2.5-3.3c-0.6-1.1-0.8-2.5-0.8-4.3v-14.2c0-2.1,0.4-3.9,1.2-5.8c0.8-1.8,1.8-3.4,3.2-4.7
									c1.3-1.3,2.9-2.4,4.7-3.2c1.8-0.8,3.7-1.2,5.8-1.2h4.5C202.2,450.9,204.1,451.3,205.9,452.1"/>
							</g>
						</g>
						<g id="Fill-4_15_">
							<path class="st17" d="M249.6,522.9v10.5c0,1.1-0.6,1.7-1.7,1.7h-25.6c-1.1,0-1.7-0.6-1.7-1.7v-79.4c0-1.1,0.6-1.7,1.7-1.7
								h25.6c1.1,0,1.7,0.6,1.7,1.7v10.5c0,1.1-0.6,1.7-1.7,1.7h-13.4v17h11.7c1.1,0,1.7,0.6,1.7,1.7v10.5c0,1.1-0.6,1.7-1.7,1.7
								h-11.7v24.2H248C249,521.4,249.6,521.9,249.6,522.9"/>
						</g>
						<g id="Group-8_13_" transform="translate(61.000000, 0.633400)">
							<g id="Fill-6_15_">
								<path class="st17" d="M219.4,452.1c1.8,0.8,3.4,1.8,4.7,3.2c1.3,1.3,2.4,2.9,3.2,4.7c0.8,1.8,1.2,3.7,1.2,5.8v9.5
									c0,1.1-0.6,1.8-1.5,2.1l-10.7,1.7c-1,0.3-1.5-0.1-1.5-1.2v-11.4c0-0.8-0.3-1.4-0.9-2s-1.3-0.8-2-0.8H211
									c-0.8,0-1.4,0.3-2,0.8c-0.6,0.6-0.8,1.3-0.8,2v53.4c0,0.8,0.2,1.4,0.8,2s1.2,0.8,2,0.8h0.9c0.8,0,1.4-0.2,2-0.8
									s0.9-1.2,0.9-2v-16.6c0-1.1,0.5-1.5,1.5-1.2l10.7,1.4c1,0.3,1.5,1,1.5,2.1v14.8c0,2.1-0.4,3.9-1.2,5.8s-1.9,3.4-3.2,4.7
									c-1.3,1.3-2.9,2.4-4.7,3.2c-1.8,0.8-3.7,1.2-5.8,1.2h-4.5c-2.1,0-3.9-0.4-5.8-1.2s-3.4-1.8-4.7-3.2
									c-1.3-1.3-2.4-2.9-3.2-4.7c-0.8-1.8-1.2-3.7-1.2-5.8v-54.6c0-2.1,0.4-3.9,1.2-5.8c0.8-1.8,1.8-3.4,3.2-4.7
									c1.3-1.3,2.9-2.4,4.7-3.2c1.8-0.8,3.7-1.2,5.8-1.2h4.5C215.7,450.9,217.7,451.3,219.4,452.1"/>
							</g>
						</g>
						<g id="Fill-9_15_">
							<path class="st17" d="M328.3,454.1v67c0,2.1-0.4,3.9-1.2,5.8s-1.8,3.4-3.2,4.7c-1.3,1.3-2.9,2.4-4.7,3.2
								c-1.8,0.8-3.7,1.2-5.8,1.2H309c-2.1,0-3.9-0.4-5.8-1.2c-1.8-0.8-3.4-1.8-4.7-3.2c-1.3-1.3-2.4-2.9-3.2-4.7s-1.2-3.7-1.2-5.8
								v-67c0-1.1,0.6-1.7,1.7-1.7h10.5c1.1,0,1.7,0.6,1.7,1.7v66.4c0,0.8,0.2,1.4,0.8,2c0.6,0.6,1.2,0.8,2,0.8h0.9
								c0.8,0,1.4-0.2,2-0.8c0.6-0.6,0.8-1.2,0.8-2v-66.4c0-1.1,0.6-1.7,1.7-1.7h10.6C327.7,452.4,328.3,453,328.3,454.1"/>
						</g>
						<g id="Fill-11_15_">
							<g>
								<path class="st17" d="M348.4,488.8h3.8c0.8,0,1.4-0.2,2-0.8c0.6-0.6,0.8-1.2,0.8-2V468c0-0.8-0.3-1.4-0.8-2
									c-0.6-0.6-1.3-0.9-2-0.9h-3.8V488.8z M371.2,533.5c0.2,1.1-0.2,1.7-1.2,1.7h-10.7c-0.5,0-0.9-0.2-1.3-0.5
									c-0.5-0.3-0.7-0.7-0.9-1.2l-8.6-28.9v30.6l-0.2-1.2c-0.2,0.8-0.6,1.2-1.5,1.2h-10.5c-1.1,0-1.7-0.6-1.7-1.7v-79.4
									c0-1.1,0.6-1.7,1.7-1.7h17.7c2.1,0,3.9,0.4,5.8,1.2c1.8,0.8,3.4,1.8,4.7,3.2c1.3,1.3,2.4,2.9,3.2,4.7
									c0.8,1.8,1.2,3.7,1.2,5.8v19.2c0,2.9-0.8,5.5-2.2,7.9c-1.5,2.3-3.5,4.1-5.9,5.4L371.2,533.5z"/>
							</g>
						</g>
						<g id="Fill-13_15_">
							<path class="st17" d="M404.8,522.9v10.5c0,1.1-0.6,1.7-1.7,1.7h-25.6c-1.1,0-1.7-0.6-1.7-1.7v-79.4c0-1.1,0.6-1.7,1.7-1.7
								h25.6c1.1,0,1.7,0.6,1.7,1.7v10.5c0,1.1-0.6,1.7-1.7,1.7h-13.5v17h11.7c1.1,0,1.7,0.6,1.7,1.7v10.5c0,1.1-0.6,1.7-1.7,1.7
								h-11.7v24.2h13.5C404.3,521.4,404.8,521.9,404.8,522.9"/>
						</g>
						<path id="Fill-15_12_" class="st18" d="M432.1,467.9c0-0.8-0.3-1.4-0.9-2c-0.6-0.6-1.2-0.9-2-0.9h-3.8v57.4h3.8
							c0.8,0,1.4-0.3,2-0.8c0.6-0.6,0.9-1.2,0.9-2V467.9z M431,452.4c2.1,0,3.9,0.4,5.8,1.2c1.8,0.8,3.4,1.9,4.7,3.2
							c1.3,1.3,2.4,2.9,3.2,4.7c0.8,1.8,1.2,3.7,1.2,5.8v52.9c0,2.1-0.4,3.9-1.2,5.8s-1.8,3.4-3.2,4.7c-1.3,1.3-2.9,2.4-4.7,3.2
							c-1.8,0.8-3.7,1.2-5.8,1.2h-17.7c-1.1,0-1.7-0.6-1.7-1.7v-79.3c0-1.1,0.6-1.7,1.7-1.7H431z"/>
						<path id="Fill-17_12_" class="st18" d="M466,488.8h3.8c0.8,0,1.4-0.2,2-0.8s0.8-1.2,0.8-2V468c0-0.8-0.3-1.4-0.8-2
							c-0.6-0.6-1.3-0.9-2-0.9H466V488.8z M488.8,533.5c0.2,1.1-0.2,1.7-1.2,1.7h-10.7c-0.5,0-0.9-0.2-1.3-0.5
							c-0.5-0.3-0.7-0.7-0.9-1.2l-8.6-28.9v30.6l-0.2-1.2c-0.2,0.8-0.6,1.2-1.5,1.2H454c-1.1,0-1.7-0.6-1.7-1.7v-79.4
							c0-1.1,0.6-1.7,1.7-1.7h17.7c2.1,0,3.9,0.4,5.8,1.2c1.8,0.8,3.4,1.8,4.7,3.2c1.3,1.3,2.4,2.9,3.2,4.7c0.8,1.8,1.2,3.7,1.2,5.8
							v19.2c0,2.9-0.8,5.5-2.2,7.9c-1.5,2.3-3.5,4.1-5.9,5.4L488.8,533.5z"/>
						<path id="Fill-19_12_" class="st18" d="M512.6,467.1c0-0.8-0.3-1.4-0.8-2c-0.6-0.6-1.2-0.8-2-0.8h-0.9c-0.8,0-1.4,0.3-2,0.8
							c-0.6,0.6-0.8,1.3-0.8,2v53.4c0,0.8,0.2,1.4,0.8,2c0.6,0.6,1.2,0.8,2,0.8h0.9c0.8,0,1.4-0.2,2-0.8c0.6-0.6,0.8-1.2,0.8-2
							V467.1z M526.5,521.1c0,2.1-0.4,3.9-1.2,5.8s-1.8,3.4-3.2,4.7c-1.3,1.3-2.9,2.4-4.7,3.2c-1.8,0.8-3.7,1.2-5.8,1.2h-4.5
							c-2.1,0-3.9-0.4-5.8-1.2c-1.8-0.8-3.4-1.8-4.7-3.2c-1.3-1.3-2.4-2.9-3.2-4.7s-1.2-3.7-1.2-5.8v-54.6c0-2.1,0.4-3.9,1.2-5.8
							c0.8-1.8,1.8-3.4,3.2-4.7c1.3-1.3,2.9-2.4,4.7-3.2c1.8-0.8,3.7-1.2,5.8-1.2h4.5c2.1,0,3.9,0.4,5.8,1.2
							c1.8,0.8,3.4,1.8,4.7,3.2c1.3,1.3,2.4,2.9,3.2,4.7c0.8,1.8,1.2,3.7,1.2,5.8V521.1z"/>
						<path id="Fill-21_12_" class="st18" d="M553.2,467.9c0-0.8-0.3-1.4-0.8-2c-0.6-0.6-1.3-0.9-2-0.9h-3.8v23.7h3.8
							c0.8,0,1.4-0.2,2-0.8s0.8-1.2,0.8-2V467.9z M552.2,452.4c2.1,0,3.9,0.4,5.8,1.2c1.8,0.8,3.4,1.9,4.7,3.2
							c1.3,1.3,2.4,2.9,3.2,4.7c0.8,1.8,1.2,3.7,1.2,5.8v19.2c0,2.1-0.4,3.9-1.2,5.8c-0.8,1.8-1.8,3.4-3.2,4.7
							c-1.3,1.3-2.9,2.4-4.7,3.2c-1.8,0.8-3.7,1.2-5.8,1.2h-5.5v32c0,1.1-0.6,1.7-1.7,1.7h-10.5c-1.1,0-1.7-0.6-1.7-1.7v-79.3
							c0-1.1,0.6-1.7,1.7-1.7H552.2z"/>
					</g>
				</g>
			</g>
		</g>
		<g>
			<path class="st19" d="M99,557.4v-64l55.5-32v64L99,557.4z"/>
			<path class="st18" d="M99,493.4l-55.4-32L99,432.8l55.5,28.6L99,493.4z"/>
			<g>
				<path class="st17" d="M43.6,525.4l55.5,32v-64l-55.5-32V525.4z"/>
			</g>
		</g>
	</g>
	<text transform="matrix(1 0 0 1 134.8758 387.3255)" class="st13 st15 st20">USE ONLY ON WHITE BACKGROUND</text>
	<g>
		<path class="st19" d="M285,324.8v-92.2l79.9-46.1v92.2L285,324.8z"/>
		<path class="st18" d="M285,232.7l-79.8-46.1l79.8-41.2l79.9,41.2L285,232.7z"/>
		<g>
			<path class="st17" d="M205.2,278.8l79.9,46.1v-92.2l-79.9-46.1V278.8z"/>
		</g>
	</g>
	<g>
		<g id="Symbols_5_">
			<g>
				<g id="Logo_x2F_White-Text_5_">
					<g id="SD-Logo_5_">
						<g id="Group-3_5_" transform="translate(0.000000, 0.633400)">
							<g id="Fill-1_5_">
								<path class="st17" d="M243.7,647.1c1.1,0.5,2,1.1,2.8,1.9c0.8,0.8,1.4,1.8,1.9,2.8c0.5,1.1,0.7,2.2,0.7,3.5v2.7
									c0,0.7-0.3,1.1-0.9,1.3l-6.5,1.7c-0.6,0.2-0.9,0-0.9-0.7v-4.6c0-0.5-0.2-0.9-0.5-1.2c-0.3-0.3-0.7-0.5-1.2-0.5h-0.6
									c-0.5,0-0.9,0.2-1.2,0.5c-0.3,0.3-0.5,0.8-0.5,1.2v6.5c0,0.5,0.1,0.9,0.3,1.3c0.1,0.4,0.4,0.8,0.8,1.1l9.2,7
									c0.8,0.7,1.2,1.3,1.5,2c0.2,0.7,0.4,1.5,0.5,2.3v12.2c0,1.2-0.2,2.4-0.7,3.5c-0.5,1.1-1.1,2-1.9,2.8
									c-0.8,0.8-1.8,1.4-2.8,1.9c-1.1,0.5-2.2,0.7-3.5,0.7h-2.7c-1.2,0-2.4-0.2-3.5-0.7c-1.1-0.5-2-1.1-2.8-1.9
									c-0.8-0.8-1.4-1.8-1.9-2.8c-0.5-1.1-0.7-2.2-0.7-3.5v-6.8c0-0.7,0.3-1.1,0.9-1.3l6.5-1.7c0.6-0.2,0.9,0,0.9,0.7v8.7
									c0,0.5,0.1,0.9,0.5,1.2c0.3,0.3,0.7,0.5,1.2,0.5h0.6c0.5,0,0.9-0.1,1.2-0.5c0.3-0.3,0.5-0.7,0.5-1.2v-9.4
									c0-0.6-0.1-1.1-0.3-1.6c-0.1-0.5-0.4-0.9-0.9-1.3l-9.1-7.1c-0.7-0.7-1.2-1.3-1.5-2c-0.3-0.7-0.5-1.5-0.5-2.6v-8.5
									c0-1.2,0.2-2.4,0.7-3.5c0.5-1.1,1.1-2,1.9-2.8c0.8-0.8,1.8-1.4,2.8-1.9c1.1-0.5,2.2-0.7,3.5-0.7h2.7
									C241.4,646.4,242.6,646.6,243.7,647.1"/>
							</g>
						</g>
						<g id="Fill-4_5_">
							<path class="st17" d="M269.9,689.9v6.3c0,0.7-0.3,1-1,1h-15.4c-0.7,0-1-0.3-1-1v-47.7c0-0.7,0.3-1,1-1h15.4c0.7,0,1,0.3,1,1
								v6.3c0,0.7-0.3,1-1,1h-8.1v10.2h7c0.7,0,1,0.3,1,1v6.3c0,0.7-0.3,1-1,1h-7V689h8.1C269.6,689,269.9,689.3,269.9,689.9"/>
						</g>
						<g id="Group-8_5_" transform="translate(61.000000, 0.633400)">
							<g id="Fill-6_5_">
								<path class="st17" d="M227.5,647.1c1.1,0.5,2,1.1,2.8,1.9s1.4,1.8,1.9,2.8c0.5,1.1,0.7,2.2,0.7,3.5v5.7
									c0,0.7-0.3,1.1-0.9,1.3l-6.5,1c-0.6,0.2-0.9,0-0.9-0.7v-6.9c0-0.5-0.2-0.9-0.5-1.2c-0.3-0.3-0.8-0.5-1.2-0.5h-0.6
									c-0.5,0-0.9,0.2-1.2,0.5c-0.3,0.3-0.5,0.8-0.5,1.2v32.1c0,0.5,0.1,0.9,0.5,1.2c0.3,0.3,0.7,0.5,1.2,0.5h0.6
									c0.5,0,0.9-0.1,1.2-0.5c0.3-0.3,0.5-0.7,0.5-1.2v-10c0-0.7,0.3-0.9,0.9-0.7l6.5,0.9c0.6,0.2,0.9,0.6,0.9,1.3v8.9
									c0,1.2-0.2,2.4-0.7,3.5c-0.5,1.1-1.1,2-1.9,2.8c-0.8,0.8-1.8,1.4-2.8,1.9s-2.2,0.7-3.5,0.7h-2.7c-1.2,0-2.4-0.2-3.5-0.7
									c-1.1-0.5-2-1.1-2.8-1.9c-0.8-0.8-1.4-1.8-1.9-2.8c-0.5-1.1-0.7-2.2-0.7-3.5v-32.8c0-1.2,0.2-2.4,0.7-3.5
									c0.5-1.1,1.1-2,1.9-2.8c0.8-0.8,1.8-1.4,2.8-1.9c1.1-0.5,2.2-0.7,3.5-0.7h2.7C225.3,646.4,226.4,646.6,227.5,647.1"/>
							</g>
						</g>
						<g id="Fill-9_5_">
							<path class="st17" d="M317.3,648.5v40.3c0,1.2-0.2,2.4-0.7,3.5c-0.5,1.1-1.1,2-1.9,2.8c-0.8,0.8-1.8,1.4-2.8,1.9
								s-2.2,0.7-3.5,0.7h-2.7c-1.2,0-2.4-0.2-3.5-0.7s-2-1.1-2.8-1.9c-0.8-0.8-1.4-1.8-1.9-2.8c-0.5-1.1-0.7-2.2-0.7-3.5v-40.3
								c0-0.7,0.3-1,1-1h6.3c0.7,0,1,0.3,1,1v39.9c0,0.5,0.1,0.9,0.5,1.2c0.3,0.3,0.7,0.5,1.2,0.5h0.6c0.5,0,0.9-0.1,1.2-0.5
								c0.3-0.3,0.5-0.7,0.5-1.2v-39.9c0-0.7,0.3-1,1-1h6.4C317,647.5,317.3,647.9,317.3,648.5"/>
						</g>
						<g id="Fill-11_5_">
							<g>
								<path class="st17" d="M329.4,669.4h2.3c0.5,0,0.9-0.1,1.2-0.5c0.3-0.3,0.5-0.7,0.5-1.2v-10.9c0-0.5-0.2-0.9-0.5-1.2
									c-0.3-0.3-0.8-0.5-1.2-0.5h-2.3V669.4z M343.1,696.3c0.1,0.7-0.1,1-0.7,1h-6.5c-0.3,0-0.6-0.1-0.8-0.3
									c-0.3-0.2-0.4-0.4-0.5-0.7l-5.2-17.4v18.4l-0.1-0.7c-0.1,0.5-0.4,0.7-0.9,0.7h-6.3c-0.7,0-1-0.3-1-1v-47.8c0-0.7,0.3-1,1-1
									h10.7c1.2,0,2.4,0.2,3.5,0.7c1.1,0.5,2,1.1,2.8,1.9c0.8,0.8,1.4,1.8,1.9,2.8s0.7,2.2,0.7,3.5V668c0,1.8-0.5,3.3-1.3,4.7
									c-0.9,1.4-2.1,2.5-3.6,3.2L343.1,696.3z"/>
							</g>
						</g>
						<g id="Fill-13_5_">
							<path class="st17" d="M363.3,689.9v6.3c0,0.7-0.3,1-1,1h-15.4c-0.7,0-1-0.3-1-1v-47.7c0-0.7,0.3-1,1-1h15.4c0.7,0,1,0.3,1,1
								v6.3c0,0.7-0.3,1-1,1h-8.1v10.2h7c0.7,0,1,0.3,1,1v6.3c0,0.7-0.3,1-1,1h-7V689h8.1C363,689,363.3,689.3,363.3,689.9"/>
						</g>
						<path id="Fill-15_5_" class="st18" d="M379.7,656.8c0-0.5-0.2-0.9-0.5-1.2c-0.3-0.3-0.7-0.5-1.2-0.5h-2.3v34.5h2.3
							c0.5,0,0.9-0.2,1.2-0.5c0.3-0.3,0.5-0.7,0.5-1.2V656.8z M379,647.5c1.2,0,2.4,0.2,3.5,0.7c1.1,0.5,2,1.1,2.8,1.9
							c0.8,0.8,1.4,1.8,1.9,2.8s0.7,2.2,0.7,3.5v31.8c0,1.2-0.2,2.4-0.7,3.5s-1.1,2-1.9,2.8c-0.8,0.8-1.8,1.4-2.8,1.9
							c-1.1,0.5-2.2,0.7-3.5,0.7h-10.7c-0.7,0-1-0.3-1-1v-47.7c0-0.7,0.3-1,1-1H379z"/>
						<path id="Fill-17_5_" class="st18" d="M400.1,669.4h2.3c0.5,0,0.9-0.1,1.2-0.5c0.3-0.3,0.5-0.7,0.5-1.2v-10.9
							c0-0.5-0.2-0.9-0.5-1.2c-0.3-0.3-0.8-0.5-1.2-0.5h-2.3V669.4z M413.8,696.3c0.1,0.7-0.1,1-0.7,1h-6.5c-0.3,0-0.6-0.1-0.8-0.3
							c-0.3-0.2-0.4-0.4-0.5-0.7l-5.2-17.4v18.4l-0.1-0.7c-0.1,0.5-0.4,0.7-0.9,0.7h-6.3c-0.7,0-1-0.3-1-1v-47.8c0-0.7,0.3-1,1-1
							h10.7c1.2,0,2.4,0.2,3.5,0.7c1.1,0.5,2,1.1,2.8,1.9c0.8,0.8,1.4,1.8,1.9,2.8c0.5,1.1,0.7,2.2,0.7,3.5V668
							c0,1.8-0.5,3.3-1.3,4.7c-0.9,1.4-2.1,2.5-3.6,3.2L413.8,696.3z"/>
						<path id="Fill-19_5_" class="st18" d="M428.1,656.4c0-0.5-0.2-0.9-0.5-1.2c-0.3-0.3-0.7-0.5-1.2-0.5h-0.6
							c-0.5,0-0.9,0.2-1.2,0.5c-0.3,0.3-0.5,0.8-0.5,1.2v32.1c0,0.5,0.1,0.9,0.5,1.2c0.3,0.3,0.7,0.5,1.2,0.5h0.6
							c0.5,0,0.9-0.1,1.2-0.5c0.3-0.3,0.5-0.7,0.5-1.2V656.4z M436.5,688.9c0,1.2-0.2,2.4-0.7,3.5c-0.5,1.1-1.1,2-1.9,2.8
							c-0.8,0.8-1.8,1.4-2.8,1.9s-2.2,0.7-3.5,0.7h-2.7c-1.2,0-2.4-0.2-3.5-0.7c-1.1-0.5-2-1.1-2.8-1.9c-0.8-0.8-1.4-1.8-1.9-2.8
							c-0.5-1.1-0.7-2.2-0.7-3.5V656c0-1.2,0.2-2.4,0.7-3.5c0.5-1.1,1.1-2,1.9-2.8c0.8-0.8,1.8-1.4,2.8-1.9c1.1-0.5,2.2-0.7,3.5-0.7
							h2.7c1.2,0,2.4,0.2,3.5,0.7s2,1.1,2.8,1.9c0.8,0.8,1.4,1.8,1.9,2.8c0.5,1.1,0.7,2.2,0.7,3.5V688.9z"/>
						<path id="Fill-21_5_" class="st18" d="M452.5,656.8c0-0.5-0.2-0.9-0.5-1.2c-0.3-0.3-0.8-0.5-1.2-0.5h-2.3v14.3h2.3
							c0.5,0,0.9-0.1,1.2-0.5c0.3-0.3,0.5-0.7,0.5-1.2V656.8z M451.9,647.5c1.2,0,2.4,0.2,3.5,0.7s2,1.1,2.8,1.9
							c0.8,0.8,1.4,1.8,1.9,2.8c0.5,1.1,0.7,2.2,0.7,3.5V668c0,1.2-0.2,2.4-0.7,3.5c-0.5,1.1-1.1,2-1.9,2.8
							c-0.8,0.8-1.8,1.4-2.8,1.9s-2.2,0.7-3.5,0.7h-3.3v19.3c0,0.7-0.3,1-1,1h-6.3c-0.7,0-1-0.3-1-1v-47.7c0-0.7,0.3-1,1-1H451.9z"
							/>
					</g>
				</g>
			</g>
		</g>
		<g>
			<path class="st19" d="M178.2,706.5V668l33.4-19.3v38.5L178.2,706.5z"/>
			<path class="st18" d="M178.2,668l-33.3-19.3l33.3-17.2l33.4,17.2L178.2,668z"/>
			<g>
				<path class="st17" d="M144.9,687.2l33.4,19.3V668l-33.4-19.3V687.2z"/>
			</g>
		</g>
	</g>
	<text transform="matrix(1 0 0 1 57.7607 741.7)" class="st3 st21 st5">* tiiny tweaks have been made to this version of the mark, to help legible rendering at very small sizes</text>
</g>
<g id="Layer_2">
	<path class="st14" d="M344.7,272.6c3.8-2.2,6.1-6.2,6.1-10.5v-35.9c0-3.3-2.7-6-6-6c-1,0-2.1,0.3-3,0.8l-36.6,21.2v53.3
		L344.7,272.6z M317.6,249.2l18.2-10.4c1.3-0.7,2.9-0.2,3.6,1c0.2,0.4,0.3,0.8,0.4,1.2v17.3c0,2.6-1.4,4.9-3.6,6.1l-18.5,10.3
		L317.6,249.2z"/>
	<polygon class="st14" points="224.3,257.2 252.3,273.3 252.3,267.3 224.3,251.1 224.3,219.3 265.2,242.8 265.2,255.6 235.4,238.4 
		235.4,244.5 265.2,261.7 265.2,293.8 224.3,270.3 	"/>
	<path class="st14" d="M291.8,205.5l24.1-13.6l-27.1-7.5c0.5-0.9,0.8-1.9,0.8-2.9c0-5-7.3-9.2-16.3-9.2s-16.3,4.1-16.3,9.2
		s7.3,9.2,16.3,9.2c1.2,0,2.3-0.1,3.5-0.2L291.8,205.5z"/>
	<path class="st14" d="M140.4,521c2.6-1.5,4.2-4.3,4.2-7.3v-24.9c0-2.3-1.9-4.2-4.1-4.2c-0.7,0-1.4,0.2-2.1,0.5L113,499.9v37
		L140.4,521z M121.6,504.7l12.6-7.3c0.9-0.5,2-0.2,2.5,0.7c0.2,0.3,0.2,0.5,0.3,0.8v12c0,1.8-1,3.4-2.5,4.3l-12.8,7.2L121.6,504.7z"
		/>
	<path class="st14" d="M103.5,474.6l16.7-9.4l-18.8-5.2c0.4-0.6,0.6-1.3,0.6-2c0-3.5-5.1-6.4-11.3-6.4s-11.3,2.9-11.3,6.4
		c0,3.5,5.1,6.4,11.3,6.4c0.8,0,1.6,0,2.5-0.1L103.5,474.6z"/>
	<polygon class="st14" points="56.6,510.2 76,521.4 76,517.2 56.6,506 56.6,483.9 85,500.2 85,509.1 64.4,497.2 64.4,501.4 
		85,513.3 85,535.7 56.6,519.3 	"/>
	<path class="st14" d="M182.1,657.4l10.6-6l-11.9-3.3c0.2-0.4,0.4-0.8,0.4-1.3c0-2.2-3.2-4-7.1-4c-4,0-7.1,1.8-7.1,4
		c0,2.2,3.2,4,7.1,4c0.5,0,1,0,1.6-0.1L182.1,657.4z"/>
	<polygon class="st14" points="151.8,678.1 164.7,685.5 164.7,682.1 151.8,674.7 151.8,660.6 170.7,671.5 170.7,677.4 157,669.5 
		157,672.9 170.7,680.8 170.7,695 151.8,684.1 	"/>
	<path class="st14" d="M203.8,685.2c1.7-1,2.8-2.9,2.8-4.8v-16.5c0-1.5-1.2-2.8-2.7-2.8c-0.5,0-1,0.1-1.4,0.4l-16.9,9.8v24.5
		L203.8,685.2z M191.4,674.4l8.4-4.8c0.6-0.3,1.3-0.1,1.6,0.4c0.1,0.2,0.1,0.4,0.2,0.6v8c0,1.2-0.6,2.3-1.6,2.8l-8.5,4.8
		L191.4,674.4z"/>
</g>
</svg>
