<?xml version="1.0" encoding="utf-8"?>
<!-- Generator: Adobe Illustrator 21.1.0, SVG Export Plug-In . SVG Version: 6.00 Build 0)  -->
<svg version="1.1" id="Layer_1" xmlns="http://www.w3.org/2000/svg" xmlns:xlink="http://www.w3.org/1999/xlink" x="0px" y="0px"
	 viewBox="0 0 612 928" style="enable-background:new 0 0 612 928;" xml:space="preserve">
<style type="text/css">
	.st0{fill:none;}
	.st1{fill:#055EB5;}
	.st2{fill:#FFFFFF;}
	.st3{fill:none;stroke:#E700C7;stroke-width:0.7;stroke-miterlimit:10;}
	.st4{fill:none;stroke:#E700C7;stroke-width:0.7;stroke-miterlimit:10;stroke-dasharray:1.4084,2.1126;}
	.st5{fill:none;stroke:#E700C7;stroke-width:0.7;stroke-miterlimit:10;stroke-dasharray:1.4084,2.1126,1.4084,2.1126;}
	.st6{fill:#EC008C;}
	.st7{font-family:'Verdana';}
	.st8{font-size:8.4px;}
	.st9{fill:none;stroke:#EC008C;stroke-width:0.5989;stroke-miterlimit:10;}
	.st10{fill:none;stroke:#EC008C;stroke-width:0.6039;stroke-miterlimit:10;}
	.st11{fill:none;stroke:#EC008C;stroke-width:0.7754;stroke-miterlimit:10;}
	.st12{fill:none;stroke:#EC008C;stroke-width:0.7754;stroke-miterlimit:10;stroke-dasharray:0.6,1.8;}
	.st13{fill:none;stroke:#EC008C;stroke-width:0.7754;stroke-miterlimit:10;stroke-dasharray:0.596,1.7881;}
	.st14{opacity:0.61;}
	.st15{font-family:'Verdana-Bold';}
	.st16{font-size:8px;}
	.st17{font-family:'Verdana-Italic';}
</style>
<g>
	<polygon class="st0" points="255,284.1 283,300.3 283,306.3 255,290.1 255,303.3 296,326.9 296,294.6 266.1,277.4 266.1,271.3 
		296,288.5 296,275.8 255,252.1 	"/>
	<path class="st0" d="M374.9,225.6l-66.8-34.9l-66.8,34.9l66.8,38.6L374.9,225.6z M298.7,228.7c-8.2,0-14.9-3.8-14.9-8.3
		c0-4.6,6.6-8.3,14.9-8.3c8.2,0,14.9,3.8,14.9,8.3c0,0.9-0.2,1.8-0.7,2.6l24.7,6.8l-22,12.4l-13.6-13.7
		C300.8,228.7,299.8,228.7,298.7,228.7z"/>
	<path class="st0" d="M360.7,253c-1,0-2.1,0.3-3,0.8L321,275.1v53.4l39.6-22.9c3.8-2.2,6.1-6.2,6.1-10.5v-36
		C366.6,255.8,364,253,360.7,253z M355.6,291.2c0,2.6-1.4,4.9-3.6,6.1l-18.5,10.4l-0.1-25.6l18.2-10.5c1.3-0.7,2.9-0.2,3.6,1
		c0.2,0.4,0.3,0.8,0.4,1.2V291.2z"/>
	<path class="st1" d="M351.6,271.6l-18.2,10.5l0.1,25.6l18.5-10.4c2.2-1.2,3.6-3.6,3.6-6.1v-17.4c-0.1-0.4-0.1-0.9-0.4-1.2
		C354.5,271.4,352.9,270.9,351.6,271.6z"/>
	<path class="st1" d="M380.8,225l0.3-0.2l-73.1-38.2l-73,38.2l0.3,0.2v83.9l72.7,42v0l0,0l0,0v0l72.7-42V225z M308.1,190.6
		l66.8,34.9l-66.8,38.6l-66.8-38.6L308.1,190.6z M296,288.5l-29.8-17.2v6.1l29.8,17.2v32.3l-41-23.6v-13.2l28,16.2v-6l-28-16.2v-32
		l41,23.6V288.5z M366.6,295.1c0,4.3-2.3,8.3-6.1,10.5L321,328.5v-53.4l36.7-21.2c0.9-0.5,1.9-0.8,3-0.8c3.3,0,6,2.7,6,6V295.1z"/>
	<path class="st1" d="M337.5,229.8l-24.7-6.8c0.5-0.8,0.7-1.7,0.7-2.6c0-4.6-6.6-8.3-14.9-8.3c-8.2,0-14.9,3.8-14.9,8.3
		c0,4.6,6.6,8.3,14.9,8.3c1.1,0,2.1-0.1,3.2-0.2l13.6,13.7L337.5,229.8z"/>
</g>
<g>
	<g>
		<g id="Symbols_8_">
			<g>
				<g id="Logo_x2F_White-Text_8_">
					<g id="SD-Logo_8_">
						<g id="Group-3_8_" transform="translate(0.000000, 0.633400)">
							<g id="Fill-1_8_">
								<path class="st1" d="M231.3,404.1c1.3,0.6,2.4,1.3,3.3,2.2c0.9,0.9,1.7,2,2.2,3.3c0.6,1.3,0.8,2.6,0.8,4v3.1
									c0,0.8-0.3,1.3-1,1.5l-7.5,2c-0.7,0.2-1-0.1-1-0.8v-5.4c0-0.6-0.2-1-0.6-1.4c-0.4-0.4-0.8-0.6-1.4-0.6h-0.7
									c-0.6,0-1,0.2-1.4,0.6c-0.4,0.4-0.6,0.9-0.6,1.4v7.5c0.1,0.6,0.2,1.1,0.3,1.5c0.2,0.4,0.4,0.9,0.9,1.3l10.7,8.2
									c0.9,0.8,1.4,1.5,1.7,2.4c0.3,0.8,0.4,1.7,0.6,2.7V452c0,1.4-0.3,2.8-0.8,4s-1.3,2.4-2.2,3.3s-2,1.7-3.3,2.2
									c-1.3,0.6-2.6,0.8-4,0.8h-3.1c-1.4,0-2.8-0.3-4-0.8c-1.3-0.6-2.4-1.3-3.3-2.2s-1.7-2-2.2-3.3s-0.8-2.6-0.8-4v-8
									c0-0.8,0.3-1.3,1-1.5l7.5-2c0.7-0.2,1,0.1,1,0.8v10.2c0,0.6,0.2,1,0.6,1.4c0.4,0.4,0.8,0.6,1.4,0.6h0.7c0.6,0,1-0.2,1.4-0.6
									c0.4-0.4,0.6-0.8,0.6-1.4v-10.9c-0.1-0.7-0.2-1.3-0.3-1.9c-0.2-0.6-0.5-1-1-1.5L216,429c-0.8-0.8-1.4-1.5-1.8-2.3
									c-0.4-0.8-0.6-1.8-0.6-3v-9.9c0-1.4,0.3-2.8,0.8-4s1.3-2.4,2.2-3.3s2-1.7,3.3-2.2c1.3-0.6,2.6-0.8,4-0.8h3.1
									C228.7,403.3,230,403.6,231.3,404.1"/>
							</g>
						</g>
						<g id="Fill-4_8_">
							<path class="st1" d="M261.9,453.9v7.3c0,0.8-0.4,1.2-1.2,1.2h-17.9c-0.8,0-1.2-0.4-1.2-1.2v-55.5c0-0.8,0.4-1.2,1.2-1.2h17.9
								c0.8,0,1.2,0.4,1.2,1.2v7.3c0,0.8-0.4,1.2-1.2,1.2h-9.4v11.9h8.2c0.8,0,1.2,0.4,1.2,1.2v7.3c0,0.8-0.4,1.2-1.2,1.2h-8.2v17
								h9.4C261.5,452.8,261.9,453.2,261.9,453.9"/>
						</g>
						<g id="Group-8_8_" transform="translate(61.000000, 0.633400)">
							<g id="Fill-6_8_">
								<path class="st1" d="M222.5,404.1c1.3,0.6,2.4,1.3,3.3,2.2c0.9,0.9,1.7,2,2.2,3.3c0.6,1.3,0.8,2.6,0.8,4v6.6
									c0,0.8-0.4,1.3-1,1.5l-7.5,1.2c-0.7,0.2-1-0.1-1-0.8v-8c0-0.6-0.2-1-0.6-1.4c-0.4-0.4-0.9-0.6-1.4-0.6h-0.7
									c-0.6,0-1,0.2-1.4,0.6c-0.4,0.4-0.6,0.9-0.6,1.4v37.4c0,0.6,0.2,1,0.6,1.4s0.8,0.6,1.4,0.6h0.7c0.6,0,1-0.2,1.4-0.6
									s0.6-0.8,0.6-1.4v-11.6c0-0.8,0.3-1,1-0.8l7.5,1c0.7,0.2,1,0.7,1,1.5v10.3c0,1.4-0.3,2.8-0.8,4s-1.3,2.4-2.2,3.3
									c-0.9,0.9-2,1.7-3.3,2.2c-1.3,0.6-2.6,0.8-4,0.8h-3.1c-1.4,0-2.8-0.3-4-0.8c-1.3-0.6-2.4-1.3-3.3-2.2
									c-0.9-0.9-1.7-2-2.2-3.3s-0.8-2.6-0.8-4v-38.2c0-1.4,0.3-2.8,0.8-4c0.6-1.3,1.3-2.4,2.2-3.3c0.9-0.9,2-1.7,3.3-2.2
									c1.3-0.6,2.6-0.8,4-0.8h3.1C219.9,403.3,221.3,403.6,222.5,404.1"/>
							</g>
						</g>
						<g id="Fill-9_8_">
							<path class="st1" d="M317,405.7v46.9c0,1.4-0.3,2.8-0.8,4c-0.6,1.3-1.3,2.4-2.2,3.3s-2,1.7-3.3,2.2c-1.3,0.6-2.6,0.8-4,0.8
								h-3.1c-1.4,0-2.8-0.3-4-0.8c-1.3-0.6-2.4-1.3-3.3-2.2c-0.9-0.9-1.7-2-2.2-3.3c-0.6-1.3-0.8-2.6-0.8-4v-46.9
								c0-0.8,0.4-1.2,1.2-1.2h7.3c0.8,0,1.2,0.4,1.2,1.2v46.5c0,0.6,0.2,1,0.6,1.4c0.4,0.4,0.8,0.6,1.4,0.6h0.7
								c0.6,0,1-0.2,1.4-0.6c0.4-0.4,0.6-0.8,0.6-1.4v-46.5c0-0.8,0.4-1.2,1.2-1.2h7.4C316.6,404.5,317,404.9,317,405.7"/>
						</g>
						<g id="Fill-11_8_">
							<g>
								<path class="st1" d="M331.1,430h2.7c0.6,0,1-0.2,1.4-0.6c0.4-0.4,0.6-0.8,0.6-1.4v-12.6c0-0.6-0.2-1-0.6-1.4
									c-0.4-0.4-0.9-0.6-1.4-0.6h-2.7V430z M347,461.3c0.2,0.8-0.1,1.2-0.8,1.2h-7.5c-0.3,0-0.7-0.1-0.9-0.3
									c-0.3-0.2-0.5-0.5-0.6-0.8l-6-20.3v21.4l-0.1-0.8c-0.1,0.6-0.4,0.8-1,0.8h-7.3c-0.8,0-1.2-0.4-1.2-1.2v-55.6
									c0-0.8,0.4-1.2,1.2-1.2H335c1.4,0,2.8,0.3,4,0.8c1.3,0.6,2.4,1.3,3.3,2.2c0.9,0.9,1.7,2,2.2,3.3c0.6,1.3,0.8,2.6,0.8,4v13.5
									c0,2-0.6,3.9-1.5,5.5c-1,1.6-2.4,2.9-4.1,3.8L347,461.3z"/>
							</g>
						</g>
						<g id="Fill-13_8_">
							<path class="st1" d="M370.6,453.9v7.3c0,0.8-0.4,1.2-1.2,1.2h-17.9c-0.8,0-1.2-0.4-1.2-1.2v-55.5c0-0.8,0.4-1.2,1.2-1.2h17.9
								c0.8,0,1.2,0.4,1.2,1.2v7.3c0,0.8-0.4,1.2-1.2,1.2H360v11.9h8.2c0.8,0,1.2,0.4,1.2,1.2v7.3c0,0.8-0.4,1.2-1.2,1.2H360v17h9.4
								C370.2,452.8,370.6,453.2,370.6,453.9"/>
						</g>
						<path id="Fill-15_8_" class="st1" d="M389.7,415.3c0-0.6-0.2-1-0.6-1.4c-0.4-0.4-0.8-0.6-1.4-0.6H385v40.2h2.7
							c0.6,0,1-0.2,1.4-0.6c0.4-0.4,0.6-0.8,0.6-1.4V415.3z M388.9,404.5c1.4,0,2.8,0.3,4,0.8c1.3,0.6,2.4,1.3,3.3,2.2
							c0.9,0.9,1.7,2,2.2,3.3c0.6,1.3,0.8,2.6,0.8,4v37.1c0,1.4-0.3,2.8-0.8,4c-0.6,1.3-1.3,2.4-2.2,3.3c-0.9,0.9-2,1.7-3.3,2.2
							c-1.3,0.6-2.6,0.8-4,0.8h-12.4c-0.8,0-1.2-0.4-1.2-1.2v-55.5c0-0.8,0.4-1.2,1.2-1.2H388.9z"/>
						<path id="Fill-17_8_" class="st1" d="M413.4,430h2.7c0.6,0,1-0.2,1.4-0.6c0.4-0.4,0.6-0.8,0.6-1.4v-12.6c0-0.6-0.2-1-0.6-1.4
							c-0.4-0.4-0.9-0.6-1.4-0.6h-2.7V430z M429.4,461.3c0.2,0.8-0.1,1.2-0.8,1.2H421c-0.3,0-0.7-0.1-0.9-0.3
							c-0.3-0.2-0.5-0.5-0.6-0.8l-6-20.3v21.4l-0.1-0.8c-0.1,0.6-0.4,0.8-1,0.8H405c-0.8,0-1.2-0.4-1.2-1.2v-55.6
							c0-0.8,0.4-1.2,1.2-1.2h12.4c1.4,0,2.8,0.3,4,0.8c1.3,0.6,2.4,1.3,3.3,2.2s1.7,2,2.2,3.3c0.6,1.3,0.8,2.6,0.8,4v13.5
							c0,2-0.6,3.9-1.5,5.5c-1,1.6-2.4,2.9-4.1,3.8L429.4,461.3z"/>
						<path id="Fill-19_8_" class="st1" d="M446,414.8c0-0.6-0.2-1-0.6-1.4c-0.4-0.4-0.8-0.6-1.4-0.6h-0.7c-0.6,0-1,0.2-1.4,0.6
							c-0.4,0.4-0.6,0.9-0.6,1.4v37.4c0,0.6,0.2,1,0.6,1.4c0.4,0.4,0.8,0.6,1.4,0.6h0.7c0.6,0,1-0.2,1.4-0.6
							c0.4-0.4,0.6-0.8,0.6-1.4V414.8z M455.8,452.6c0,1.4-0.3,2.8-0.8,4c-0.6,1.3-1.3,2.4-2.2,3.3s-2,1.7-3.3,2.2
							c-1.3,0.6-2.6,0.8-4,0.8h-3.1c-1.4,0-2.8-0.3-4-0.8c-1.3-0.6-2.4-1.3-3.3-2.2c-0.9-0.9-1.7-2-2.2-3.3c-0.6-1.3-0.8-2.6-0.8-4
							v-38.2c0-1.4,0.3-2.8,0.8-4c0.6-1.3,1.3-2.4,2.2-3.3c0.9-0.9,2-1.7,3.3-2.2c1.3-0.6,2.6-0.8,4-0.8h3.1c1.4,0,2.8,0.3,4,0.8
							c1.3,0.6,2.4,1.3,3.3,2.2s1.7,2,2.2,3.3c0.6,1.3,0.8,2.6,0.8,4V452.6z"/>
						<path id="Fill-21_8_" class="st1" d="M474.4,415.3c0-0.6-0.2-1-0.6-1.4c-0.4-0.4-0.9-0.6-1.4-0.6h-2.7V430h2.7
							c0.6,0,1-0.2,1.4-0.6c0.4-0.4,0.6-0.8,0.6-1.4V415.3z M473.7,404.5c1.4,0,2.8,0.3,4,0.8c1.3,0.6,2.4,1.3,3.3,2.2
							c0.9,0.9,1.7,2,2.2,3.3c0.6,1.3,0.8,2.6,0.8,4v13.5c0,1.4-0.3,2.8-0.8,4c-0.6,1.3-1.3,2.4-2.2,3.3s-2,1.7-3.3,2.2
							c-1.3,0.6-2.6,0.8-4,0.8h-3.9v22.4c0,0.8-0.4,1.2-1.2,1.2h-7.3c-0.8,0-1.2-0.4-1.2-1.2v-55.5c0-0.8,0.4-1.2,1.2-1.2H473.7z"/>
					</g>
				</g>
			</g>
		</g>
	</g>
</g>
<rect x="124.4" y="761.2" class="st1" width="362.1" height="94.4"/>
<g>
	<g id="Symbols_10_">
		<g>
			<g id="Logo_x2F_White-Text_10_">
				<g id="SD-Logo_10_">
					<g id="Group-3_10_" transform="translate(0.000000, 0.633400)">
						<g id="Fill-1_10_">
							<path class="st1" d="M246.9,698.8c0.8,0.4,1.6,0.8,2.2,1.5s1.1,1.4,1.5,2.2s0.5,1.7,0.5,2.7v2.1c0,0.5-0.2,0.8-0.7,1l-5,1.3
								c-0.5,0.1-0.7,0-0.7-0.5v-3.5c0-0.4-0.1-0.7-0.4-0.9c-0.3-0.3-0.5-0.4-0.9-0.4H243c-0.4,0-0.7,0.1-0.9,0.4
								c-0.3,0.3-0.4,0.6-0.4,0.9v5c0,0.4,0.1,0.7,0.2,1c0.1,0.3,0.3,0.6,0.6,0.9l7.1,5.4c0.6,0.5,1,1,1.1,1.6
								c0.2,0.5,0.3,1.1,0.4,1.8v9.4c0,1-0.2,1.8-0.5,2.7c-0.4,0.8-0.8,1.6-1.5,2.2c-0.6,0.6-1.4,1.1-2.2,1.5s-1.7,0.5-2.7,0.5h-2.1
								c-1,0-1.8-0.2-2.7-0.5s-1.6-0.8-2.2-1.5c-0.6-0.6-1.1-1.4-1.5-2.2c-0.4-0.8-0.5-1.7-0.5-2.7v-5.3c0-0.5,0.2-0.8,0.7-1l5-1.3
								c0.5-0.1,0.7,0,0.7,0.5v6.7c0,0.4,0.1,0.7,0.4,0.9s0.5,0.4,0.9,0.4h0.4c0.4,0,0.7-0.1,0.9-0.4c0.3-0.3,0.4-0.5,0.4-0.9V723
								c0-0.5-0.1-0.9-0.2-1.2s-0.3-0.7-0.7-1l-7-5.5c-0.5-0.5-1-1-1.2-1.5c-0.3-0.5-0.4-1.2-0.4-2v-6.6c0-1,0.2-1.8,0.5-2.7
								c0.4-0.8,0.8-1.6,1.5-2.2c0.6-0.6,1.4-1.1,2.2-1.5s1.7-0.5,2.7-0.5h2.1C245.2,698.2,246,698.4,246.9,698.8"/>
						</g>
					</g>
					<g id="Fill-4_10_">
						<path class="st1" d="M268.4,732v4.9c0,0.5-0.3,0.8-0.8,0.8h-11.9c-0.5,0-0.8-0.3-0.8-0.8V700c0-0.5,0.3-0.8,0.8-0.8h11.9
							c0.5,0,0.8,0.3,0.8,0.8v4.9c0,0.5-0.3,0.8-0.8,0.8h-6.2v7.9h5.4c0.5,0,0.8,0.3,0.8,0.8v4.9c0,0.5-0.3,0.8-0.8,0.8h-5.4v11.2
							h6.3C268.2,731.2,268.4,731.5,268.4,732"/>
					</g>
					<g id="Group-8_10_" transform="translate(61.000000, 0.633400)">
						<g id="Fill-6_10_">
							<path class="st1" d="M223,698.8c0.8,0.4,1.6,0.8,2.2,1.5c0.6,0.6,1.1,1.4,1.5,2.2c0.4,0.8,0.5,1.7,0.5,2.7v4.4
								c0,0.5-0.3,0.8-0.7,1l-5,0.8c-0.5,0.1-0.7,0-0.7-0.5v-5.3c0-0.4-0.1-0.7-0.4-0.9c-0.3-0.3-0.6-0.4-0.9-0.4h-0.4
								c-0.4,0-0.7,0.1-0.9,0.4c-0.3,0.3-0.4,0.6-0.4,0.9v24.8c0,0.4,0.1,0.7,0.4,0.9c0.3,0.3,0.5,0.4,0.9,0.4h0.4
								c0.4,0,0.7-0.1,0.9-0.4c0.3-0.3,0.4-0.5,0.4-0.9v-7.7c0-0.5,0.2-0.7,0.7-0.5l5,0.7c0.5,0.1,0.7,0.5,0.7,1v6.8
								c0,1-0.2,1.8-0.5,2.7c-0.4,0.8-0.9,1.6-1.5,2.2c-0.6,0.6-1.4,1.1-2.2,1.5s-1.7,0.5-2.7,0.5h-2.1c-1,0-1.8-0.2-2.7-0.5
								s-1.6-0.8-2.2-1.5c-0.6-0.6-1.1-1.4-1.5-2.2c-0.4-0.8-0.5-1.7-0.5-2.7v-25.3c0-1,0.2-1.8,0.5-2.7s0.8-1.6,1.5-2.2
								c0.6-0.6,1.4-1.1,2.2-1.5s1.7-0.5,2.7-0.5h2.1C221.3,698.2,222.2,698.4,223,698.8"/>
						</g>
					</g>
					<g id="Fill-9_10_">
						<path class="st1" d="M307.5,700v31.1c0,1-0.2,1.8-0.5,2.7s-0.8,1.6-1.5,2.2c-0.6,0.6-1.4,1.1-2.2,1.5
							c-0.8,0.4-1.7,0.5-2.7,0.5h-2.1c-1,0-1.8-0.2-2.7-0.5c-0.8-0.4-1.6-0.8-2.2-1.5c-0.6-0.6-1.1-1.4-1.5-2.2s-0.5-1.7-0.5-2.7
							V700c0-0.5,0.3-0.8,0.8-0.8h4.9c0.5,0,0.8,0.3,0.8,0.8v30.8c0,0.4,0.1,0.7,0.4,0.9c0.3,0.3,0.5,0.4,0.9,0.4h0.4
							c0.4,0,0.7-0.1,0.9-0.4c0.3-0.3,0.4-0.5,0.4-0.9V700c0-0.5,0.3-0.8,0.8-0.8h4.9C307.2,699.3,307.5,699.5,307.5,700"/>
					</g>
					<g id="Fill-11_10_">
						<g>
							<path class="st1" d="M318.1,716.1h1.8c0.4,0,0.7-0.1,0.9-0.4s0.4-0.5,0.4-0.9v-8.4c0-0.4-0.1-0.7-0.4-0.9
								c-0.3-0.3-0.6-0.4-0.9-0.4h-1.8V716.1z M328.7,736.9c0.1,0.5-0.1,0.8-0.5,0.8h-5c-0.2,0-0.4-0.1-0.6-0.2
								c-0.2-0.1-0.3-0.3-0.4-0.5l-4-13.4v14.2l-0.1-0.5c-0.1,0.4-0.3,0.5-0.7,0.5h-4.9c-0.5,0-0.8-0.3-0.8-0.8V700
								c0-0.5,0.3-0.8,0.8-0.8h8.2c1,0,1.8,0.2,2.7,0.5c0.8,0.4,1.6,0.8,2.2,1.5s1.1,1.4,1.5,2.2s0.5,1.7,0.5,2.7v8.9
								c0,1.4-0.4,2.6-1,3.7c-0.7,1.1-1.6,1.9-2.7,2.5L328.7,736.9z"/>
						</g>
					</g>
					<g id="Fill-13_10_">
						<path class="st1" d="M344.3,732v4.9c0,0.5-0.3,0.8-0.8,0.8h-11.9c-0.5,0-0.8-0.3-0.8-0.8V700c0-0.5,0.3-0.8,0.8-0.8h11.9
							c0.5,0,0.8,0.3,0.8,0.8v4.9c0,0.5-0.3,0.8-0.8,0.8h-6.3v7.9h5.4c0.5,0,0.8,0.3,0.8,0.8v4.9c0,0.5-0.3,0.8-0.8,0.8h-5.4v11.2
							h6.3C344,731.2,344.3,731.5,344.3,732"/>
					</g>
					<path id="Fill-15_10_" class="st1" d="M356.9,706.4c0-0.4-0.1-0.7-0.4-0.9c-0.3-0.3-0.5-0.4-0.9-0.4h-1.8v26.6h1.8
						c0.4,0,0.7-0.1,0.9-0.4c0.3-0.3,0.4-0.5,0.4-0.9V706.4z M356.4,699.3c1,0,1.8,0.2,2.7,0.5c0.8,0.4,1.6,0.9,2.2,1.5
						c0.6,0.6,1.1,1.4,1.5,2.2s0.5,1.7,0.5,2.7v24.6c0,1-0.2,1.8-0.5,2.7c-0.4,0.8-0.8,1.6-1.5,2.2c-0.6,0.6-1.4,1.1-2.2,1.5
						c-0.8,0.4-1.7,0.5-2.7,0.5h-8.2c-0.5,0-0.8-0.3-0.8-0.8V700c0-0.5,0.3-0.8,0.8-0.8H356.4z"/>
					<path id="Fill-17_10_" class="st1" d="M373.9,716.1h1.8c0.4,0,0.7-0.1,0.9-0.4c0.3-0.3,0.4-0.5,0.4-0.9v-8.4
						c0-0.4-0.1-0.7-0.4-0.9c-0.3-0.3-0.6-0.4-0.9-0.4h-1.8V716.1z M384.5,736.9c0.1,0.5-0.1,0.8-0.5,0.8h-5c-0.2,0-0.4-0.1-0.6-0.2
						c-0.2-0.1-0.3-0.3-0.4-0.5l-4-13.4v14.2l-0.1-0.5c-0.1,0.4-0.3,0.5-0.7,0.5h-4.9c-0.5,0-0.8-0.3-0.8-0.8V700
						c0-0.5,0.3-0.8,0.8-0.8h8.2c1,0,1.8,0.2,2.7,0.5c0.8,0.4,1.6,0.8,2.2,1.5c0.6,0.6,1.1,1.4,1.5,2.2s0.5,1.7,0.5,2.7v8.9
						c0,1.4-0.4,2.6-1,3.7c-0.7,1.1-1.6,1.9-2.7,2.5L384.5,736.9z"/>
					<path id="Fill-19_10_" class="st1" d="M396.8,706.1c0-0.4-0.1-0.7-0.4-0.9c-0.3-0.3-0.5-0.4-0.9-0.4h-0.4
						c-0.4,0-0.7,0.1-0.9,0.4c-0.3,0.3-0.4,0.6-0.4,0.9v24.8c0,0.4,0.1,0.7,0.4,0.9c0.3,0.3,0.5,0.4,0.9,0.4h0.4
						c0.4,0,0.7-0.1,0.9-0.4c0.3-0.3,0.4-0.5,0.4-0.9V706.1z M403.3,731.1c0,1-0.2,1.8-0.5,2.7s-0.8,1.6-1.5,2.2
						c-0.6,0.6-1.4,1.1-2.2,1.5c-0.8,0.4-1.7,0.5-2.7,0.5h-2.1c-1,0-1.8-0.2-2.7-0.5c-0.8-0.4-1.6-0.8-2.2-1.5
						c-0.6-0.6-1.1-1.4-1.5-2.2s-0.5-1.7-0.5-2.7v-25.3c0-1,0.2-1.8,0.5-2.7c0.4-0.8,0.8-1.6,1.5-2.2c0.6-0.6,1.4-1.1,2.2-1.5
						c0.8-0.4,1.7-0.5,2.7-0.5h2.1c1,0,1.8,0.2,2.7,0.5c0.8,0.4,1.6,0.8,2.2,1.5c0.6,0.6,1.1,1.4,1.5,2.2c0.4,0.8,0.5,1.7,0.5,2.7
						V731.1z"/>
					<path id="Fill-21_10_" class="st1" d="M416.9,706.4c0-0.4-0.1-0.7-0.4-0.9c-0.3-0.3-0.6-0.4-0.9-0.4h-1.8v11h1.8
						c0.4,0,0.7-0.1,0.9-0.4c0.3-0.3,0.4-0.5,0.4-0.9V706.4z M416.4,699.3c1,0,1.8,0.2,2.7,0.5c0.8,0.4,1.6,0.9,2.2,1.5
						c0.6,0.6,1.1,1.4,1.5,2.2s0.5,1.7,0.5,2.7v8.9c0,1-0.2,1.8-0.5,2.7s-0.8,1.6-1.5,2.2c-0.6,0.6-1.4,1.1-2.2,1.5
						c-0.8,0.4-1.7,0.5-2.7,0.5h-2.6v14.9c0,0.5-0.3,0.8-0.8,0.8h-4.9c-0.5,0-0.8-0.3-0.8-0.8V700c0-0.5,0.3-0.8,0.8-0.8H416.4z"/>
				</g>
			</g>
		</g>
	</g>
</g>
<g>
	<path class="st1" d="M214,718.5l-7.1,4.1l0,10l7.2-4c0.9-0.5,1.4-1.4,1.4-2.4v-6.8c0-0.2,0-0.3-0.1-0.5
		C215.2,718.4,214.5,718.2,214,718.5z"/>
	<path class="st1" d="M224.1,703.1L224.1,703.1l-25.8-13.6L172.4,703l0.1,0.1v29.8l25.8,14.9v0l0,0l0,0v0l25.8-14.9V703.1z
		 M198.3,692.3l21.3,11.2l-21.3,12.3L177,703.5L198.3,692.3z M193.9,724.6l-11.6-6.7v2.9l11.6,6.7v12.6l-16-9.2v-5.1l11.1,6.7
		l0.1-2.9l-11.4-6.8l0.2-12.5l16,9.2V724.6z M219.9,727.6c0,1.7-0.9,3.3-2.4,4.1l-15.4,8.9v-20.8l14.3-8.3c0.4-0.2,0.8-0.3,1.2-0.3
		c1.3,0,2.3,1.1,2.3,2.4V727.6z"/>
	<path class="st1" d="M207.8,704.7l-7.9-2.2c0.2-0.3,0.2-0.5,0.2-0.8c0-1.5-2.1-2.7-4.7-2.7s-4.7,1.2-4.7,2.7s2.1,2.7,4.7,2.7
		c0.3,0,0.7,0,1-0.1l4.4,4.4L207.8,704.7z"/>
</g>
<g>
	<g id="Symbols_9_">
		<g>
			<g id="Logo_x2F_White-Text_9_">
				<g id="SD-Logo_9_">
					<g id="Group-3_9_" transform="translate(0.000000, 0.633400)">
						<g id="Fill-1_9_">
							<path class="st2" d="M249.1,786.8c0.8,0.4,1.6,0.8,2.2,1.5c0.6,0.6,1.1,1.4,1.5,2.2c0.4,0.8,0.5,1.7,0.5,2.7v2.1
								c0,0.5-0.2,0.8-0.7,1l-5,1.3c-0.5,0.1-0.7,0-0.7-0.5v-3.5c0-0.4-0.1-0.7-0.4-0.9c-0.3-0.3-0.5-0.4-0.9-0.4h-0.4
								c-0.4,0-0.7,0.1-0.9,0.4c-0.3,0.3-0.4,0.6-0.4,0.9v5c0,0.4,0.1,0.7,0.2,1s0.3,0.6,0.6,0.9l7.1,5.4c0.6,0.5,1,1,1.1,1.6
								c0.2,0.5,0.3,1.1,0.4,1.8v9.4c0,1-0.2,1.8-0.5,2.7s-0.8,1.6-1.5,2.2s-1.4,1.1-2.2,1.5c-0.8,0.4-1.7,0.5-2.7,0.5h-2.1
								c-1,0-1.8-0.2-2.7-0.5s-1.6-0.8-2.2-1.5s-1.1-1.4-1.5-2.2s-0.5-1.7-0.5-2.7v-5.3c0-0.5,0.2-0.8,0.7-1l5-1.3
								c0.5-0.1,0.7,0,0.7,0.5v6.7c0,0.4,0.1,0.7,0.4,0.9c0.3,0.3,0.5,0.4,0.9,0.4h0.4c0.4,0,0.7-0.1,0.9-0.4
								c0.3-0.3,0.4-0.5,0.4-0.9V811c0-0.5-0.1-0.9-0.2-1.2s-0.3-0.7-0.7-1l-7-5.5c-0.5-0.5-1-1-1.2-1.5c-0.3-0.5-0.4-1.2-0.4-2
								v-6.6c0-1,0.2-1.8,0.5-2.7s0.8-1.6,1.5-2.2s1.4-1.1,2.2-1.5s1.7-0.5,2.7-0.5h2.1C247.4,786.2,248.3,786.4,249.1,786.8"/>
						</g>
					</g>
					<g id="Fill-4_9_">
						<path class="st2" d="M270.7,820v4.9c0,0.5-0.3,0.8-0.8,0.8H258c-0.5,0-0.8-0.3-0.8-0.8V788c0-0.5,0.3-0.8,0.8-0.8h11.9
							c0.5,0,0.8,0.3,0.8,0.8v4.9c0,0.5-0.3,0.8-0.8,0.8h-6.2v7.9h5.4c0.5,0,0.8,0.3,0.8,0.8v4.9c0,0.5-0.3,0.8-0.8,0.8h-5.4v11.2
							h6.3C270.4,819.3,270.7,819.5,270.7,820"/>
					</g>
					<g id="Group-8_9_" transform="translate(61.000000, 0.633400)">
						<g id="Fill-6_9_">
							<path class="st2" d="M225.3,786.8c0.8,0.4,1.6,0.8,2.2,1.5c0.6,0.6,1.1,1.4,1.5,2.2c0.4,0.8,0.5,1.7,0.5,2.7v4.4
								c0,0.5-0.3,0.8-0.7,1l-5,0.8c-0.5,0.1-0.7,0-0.7-0.5v-5.3c0-0.4-0.1-0.7-0.4-0.9s-0.6-0.4-0.9-0.4h-0.4
								c-0.4,0-0.7,0.1-0.9,0.4c-0.3,0.3-0.4,0.6-0.4,0.9v24.8c0,0.4,0.1,0.7,0.4,0.9c0.3,0.3,0.5,0.4,0.9,0.4h0.4
								c0.4,0,0.7-0.1,0.9-0.4s0.4-0.5,0.4-0.9v-7.7c0-0.5,0.2-0.7,0.7-0.5l5,0.7c0.5,0.1,0.7,0.5,0.7,1v6.8c0,1-0.2,1.8-0.5,2.7
								s-0.9,1.6-1.5,2.2c-0.6,0.6-1.4,1.1-2.2,1.5s-1.7,0.5-2.7,0.5h-2.1c-1,0-1.8-0.2-2.7-0.5s-1.6-0.8-2.2-1.5s-1.1-1.4-1.5-2.2
								s-0.5-1.7-0.5-2.7v-25.3c0-1,0.2-1.8,0.5-2.7c0.4-0.8,0.8-1.6,1.5-2.2c0.6-0.6,1.4-1.1,2.2-1.5s1.7-0.5,2.7-0.5h2.1
								C223.5,786.2,224.5,786.4,225.3,786.8"/>
						</g>
					</g>
					<g id="Fill-9_9_">
						<path class="st2" d="M309.8,788v31.1c0,1-0.2,1.8-0.5,2.7c-0.4,0.8-0.8,1.6-1.5,2.2c-0.6,0.6-1.4,1.1-2.2,1.5
							c-0.8,0.4-1.7,0.5-2.7,0.5h-2.1c-1,0-1.8-0.2-2.7-0.5c-0.8-0.4-1.6-0.8-2.2-1.5c-0.6-0.6-1.1-1.4-1.5-2.2
							c-0.4-0.8-0.5-1.7-0.5-2.7V788c0-0.5,0.3-0.8,0.8-0.8h4.9c0.5,0,0.8,0.3,0.8,0.8v30.8c0,0.4,0.1,0.7,0.4,0.9
							c0.3,0.3,0.5,0.4,0.9,0.4h0.4c0.4,0,0.7-0.1,0.9-0.4c0.3-0.3,0.4-0.5,0.4-0.9V788c0-0.5,0.3-0.8,0.8-0.8h4.9
							C309.5,787.3,309.8,787.5,309.8,788"/>
					</g>
					<g id="Fill-11_9_">
						<g>
							<path class="st2" d="M320.4,804.1h1.8c0.4,0,0.7-0.1,0.9-0.4c0.3-0.3,0.4-0.5,0.4-0.9v-8.4c0-0.4-0.1-0.7-0.4-0.9
								c-0.3-0.3-0.6-0.4-0.9-0.4h-1.8V804.1z M330.9,824.9c0.1,0.5-0.1,0.8-0.5,0.8h-5c-0.2,0-0.4-0.1-0.6-0.2
								c-0.2-0.1-0.3-0.3-0.4-0.5l-4-13.4v14.2l-0.1-0.5c-0.1,0.4-0.3,0.5-0.7,0.5h-4.9c-0.5,0-0.8-0.3-0.8-0.8V788
								c0-0.5,0.3-0.8,0.8-0.8h8.2c1,0,1.8,0.2,2.7,0.5c0.8,0.4,1.6,0.8,2.2,1.5c0.6,0.6,1.1,1.4,1.5,2.2c0.4,0.8,0.5,1.7,0.5,2.7
								v8.9c0,1.4-0.4,2.6-1,3.7c-0.7,1.1-1.6,1.9-2.7,2.5L330.9,824.9z"/>
						</g>
					</g>
					<g id="Fill-13_9_">
						<path class="st2" d="M346.5,820v4.9c0,0.5-0.3,0.8-0.8,0.8h-11.9c-0.5,0-0.8-0.3-0.8-0.8V788c0-0.5,0.3-0.8,0.8-0.8h11.9
							c0.5,0,0.8,0.3,0.8,0.8v4.9c0,0.5-0.3,0.8-0.8,0.8h-6.3v7.9h5.4c0.5,0,0.8,0.3,0.8,0.8v4.9c0,0.5-0.3,0.8-0.8,0.8h-5.4v11.2
							h6.3C346.3,819.3,346.5,819.5,346.5,820"/>
					</g>
					<path id="Fill-15_9_" class="st2" d="M359.2,794.4c0-0.4-0.1-0.7-0.4-0.9c-0.3-0.3-0.5-0.4-0.9-0.4h-1.8v26.6h1.8
						c0.4,0,0.7-0.1,0.9-0.4c0.3-0.3,0.4-0.5,0.4-0.9V794.4z M358.7,787.3c1,0,1.8,0.2,2.7,0.5c0.8,0.4,1.6,0.9,2.2,1.5
						c0.6,0.6,1.1,1.4,1.5,2.2c0.4,0.8,0.5,1.7,0.5,2.7v24.6c0,1-0.2,1.8-0.5,2.7c-0.4,0.8-0.8,1.6-1.5,2.2
						c-0.6,0.6-1.4,1.1-2.2,1.5c-0.8,0.4-1.7,0.5-2.7,0.5h-8.2c-0.5,0-0.8-0.3-0.8-0.8V788c0-0.5,0.3-0.8,0.8-0.8H358.7z"/>
					<path id="Fill-17_9_" class="st2" d="M376.2,804.1h1.8c0.4,0,0.7-0.1,0.9-0.4c0.3-0.3,0.4-0.5,0.4-0.9v-8.4
						c0-0.4-0.1-0.7-0.4-0.9c-0.3-0.3-0.6-0.4-0.9-0.4h-1.8V804.1z M386.8,824.9c0.1,0.5-0.1,0.8-0.5,0.8h-5c-0.2,0-0.4-0.1-0.6-0.2
						c-0.2-0.1-0.3-0.3-0.4-0.5l-4-13.4v14.2l-0.1-0.5c-0.1,0.4-0.3,0.5-0.7,0.5h-4.9c-0.5,0-0.8-0.3-0.8-0.8V788
						c0-0.5,0.3-0.8,0.8-0.8h8.2c1,0,1.8,0.2,2.7,0.5c0.8,0.4,1.6,0.8,2.2,1.5c0.6,0.6,1.1,1.4,1.5,2.2c0.4,0.8,0.5,1.7,0.5,2.7v8.9
						c0,1.4-0.4,2.6-1,3.7c-0.7,1.1-1.6,1.9-2.7,2.5L386.8,824.9z"/>
					<path id="Fill-19_9_" class="st2" d="M399.1,794.1c0-0.4-0.1-0.7-0.4-0.9c-0.3-0.3-0.5-0.4-0.9-0.4h-0.4
						c-0.4,0-0.7,0.1-0.9,0.4c-0.3,0.3-0.4,0.6-0.4,0.9v24.8c0,0.4,0.1,0.7,0.4,0.9c0.3,0.3,0.5,0.4,0.9,0.4h0.4
						c0.4,0,0.7-0.1,0.9-0.4c0.3-0.3,0.4-0.5,0.4-0.9V794.1z M405.5,819.1c0,1-0.2,1.8-0.5,2.7c-0.4,0.8-0.8,1.6-1.5,2.2
						c-0.6,0.6-1.4,1.1-2.2,1.5c-0.8,0.4-1.7,0.5-2.7,0.5h-2.1c-1,0-1.8-0.2-2.7-0.5c-0.8-0.4-1.6-0.8-2.2-1.5
						c-0.6-0.6-1.1-1.4-1.5-2.2c-0.4-0.8-0.5-1.7-0.5-2.7v-25.3c0-1,0.2-1.8,0.5-2.7c0.4-0.8,0.8-1.6,1.5-2.2
						c0.6-0.6,1.4-1.1,2.2-1.5c0.8-0.4,1.7-0.5,2.7-0.5h2.1c1,0,1.8,0.2,2.7,0.5c0.8,0.4,1.6,0.8,2.2,1.5c0.6,0.6,1.1,1.4,1.5,2.2
						c0.4,0.8,0.5,1.7,0.5,2.7V819.1z"/>
					<path id="Fill-21_9_" class="st2" d="M419.2,794.9c0-0.4-0.1-0.7-0.4-0.9c-0.3-0.3-0.6-0.4-0.9-0.4h-1.8v11h1.8
						c0.4,0,0.7-0.1,0.9-0.4c0.3-0.3,0.4-0.5,0.4-0.9V794.9z M418.7,787.3c1,0,1.8,0.2,2.7,0.5c0.8,0.4,1.6,0.9,2.2,1.5
						c0.6,0.6,1.1,1.4,1.5,2.2c0.4,0.8,0.5,1.7,0.5,2.7v8.9c0,1-0.2,1.8-0.5,2.7c-0.4,0.8-0.8,1.6-1.5,2.2c-0.6,0.6-1.4,1.1-2.2,1.5
						c-0.8,0.4-1.7,0.5-2.7,0.5h-2.6v14.9c0,0.5-0.3,0.8-0.8,0.8h-4.9c-0.5,0-0.8-0.3-0.8-0.8V788c0-0.5,0.3-0.8,0.8-0.8H418.7z"/>
				</g>
			</g>
		</g>
	</g>
</g>
<g>
	<g>
		<g>
			<line class="st3" x1="42.8" y1="176.3" x2="43.5" y2="176.3"/>
			<line class="st4" x1="45.6" y1="176.3" x2="48.1" y2="176.3"/>
			<line class="st5" x1="49.2" y1="176.3" x2="569.2" y2="176.3"/>
			<line class="st3" x1="570.3" y1="176.3" x2="571" y2="176.3"/>
		</g>
	</g>
	<text transform="matrix(1 0 0 1 42.8312 169.9583)" class="st6 st7 st8">Mark only</text>
</g>
<rect x="68.5" y="496.9" class="st1" width="477.8" height="115.4"/>
<g>
	<g id="Symbols_11_">
		<g>
			<g id="Logo_x2F_White-Text_11_">
				<g id="SD-Logo_11_">
					<g id="Group-3_11_" transform="translate(0.000000, 0.633400)">
						<g id="Fill-1_11_">
							<path class="st2" d="M231.8,524.2c1.3,0.6,2.4,1.3,3.3,2.2c0.9,0.9,1.7,2,2.2,3.3c0.6,1.3,0.8,2.6,0.8,4v3.1
								c0,0.8-0.3,1.3-1,1.5l-7.5,2c-0.7,0.2-1-0.1-1-0.8v-5.4c0-0.6-0.2-1-0.6-1.4c-0.4-0.4-0.8-0.6-1.4-0.6h-0.7
								c-0.6,0-1,0.2-1.4,0.6c-0.4,0.4-0.6,0.9-0.6,1.4v7.5c0.1,0.6,0.2,1.1,0.3,1.5c0.2,0.4,0.4,0.9,0.9,1.3l10.7,8.2
								c0.9,0.8,1.4,1.5,1.7,2.4c0.3,0.8,0.4,1.7,0.6,2.7V572c0,1.4-0.3,2.8-0.8,4c-0.6,1.3-1.3,2.4-2.2,3.3c-0.9,0.9-2,1.7-3.3,2.2
								s-2.6,0.8-4,0.8h-3.1c-1.4,0-2.8-0.3-4-0.8s-2.4-1.3-3.3-2.2c-0.9-0.9-1.7-2-2.2-3.3c-0.6-1.3-0.8-2.6-0.8-4v-8
								c0-0.8,0.3-1.3,1-1.5l7.5-2c0.7-0.2,1,0.1,1,0.8v10.2c0,0.6,0.2,1,0.6,1.4c0.4,0.4,0.8,0.6,1.4,0.6h0.7c0.6,0,1-0.2,1.4-0.6
								c0.4-0.4,0.6-0.8,0.6-1.4v-10.9c-0.1-0.7-0.2-1.3-0.3-1.9c-0.2-0.6-0.5-1-1-1.5l-10.6-8.2c-0.8-0.8-1.4-1.5-1.8-2.3
								c-0.4-0.8-0.6-1.8-0.6-3v-9.9c0-1.4,0.3-2.8,0.8-4s1.3-2.4,2.2-3.3c0.9-0.9,2-1.7,3.3-2.2c1.3-0.6,2.6-0.8,4-0.8h3.1
								C229.2,523.3,230.5,523.6,231.8,524.2"/>
						</g>
					</g>
					<g id="Fill-4_11_">
						<path class="st2" d="M262.3,573.9v7.3c0,0.8-0.4,1.2-1.2,1.2h-17.9c-0.8,0-1.2-0.4-1.2-1.2v-55.5c0-0.8,0.4-1.2,1.2-1.2h17.9
							c0.8,0,1.2,0.4,1.2,1.2v7.3c0,0.8-0.4,1.2-1.2,1.2h-9.4v11.9h8.2c0.8,0,1.2,0.4,1.2,1.2v7.3c0,0.8-0.4,1.2-1.2,1.2h-8.2v17
							h9.4C262,572.8,262.3,573.2,262.3,573.9"/>
					</g>
					<g id="Group-8_11_" transform="translate(61.000000, 0.633400)">
						<g id="Fill-6_11_">
							<path class="st2" d="M222.9,524.2c1.3,0.6,2.4,1.3,3.3,2.2c0.9,0.9,1.7,2,2.2,3.3c0.6,1.3,0.8,2.6,0.8,4v6.6
								c0,0.8-0.4,1.3-1,1.5l-7.5,1.2c-0.7,0.2-1-0.1-1-0.8v-8c0-0.6-0.2-1-0.6-1.4s-0.9-0.6-1.4-0.6H217c-0.6,0-1,0.2-1.4,0.6
								c-0.4,0.4-0.6,0.9-0.6,1.4v37.4c0,0.6,0.2,1,0.6,1.4s0.8,0.6,1.4,0.6h0.7c0.6,0,1-0.2,1.4-0.6s0.6-0.8,0.6-1.4V560
								c0-0.8,0.3-1,1-0.8l7.5,1c0.7,0.2,1,0.7,1,1.5v10.3c0,1.4-0.3,2.8-0.8,4s-1.3,2.4-2.2,3.3c-0.9,0.9-2,1.7-3.3,2.2
								c-1.3,0.6-2.6,0.8-4,0.8h-3.1c-1.4,0-2.8-0.3-4-0.8c-1.3-0.6-2.4-1.3-3.3-2.2c-0.9-0.9-1.7-2-2.2-3.3s-0.8-2.6-0.8-4v-38.2
								c0-1.4,0.3-2.8,0.8-4c0.6-1.3,1.3-2.4,2.2-3.3c0.9-0.9,2-1.7,3.3-2.2s2.6-0.8,4-0.8h3.1C220.3,523.3,221.7,523.6,222.9,524.2
								"/>
						</g>
					</g>
					<g id="Fill-9_11_">
						<path class="st2" d="M317.5,525.7v46.9c0,1.4-0.3,2.8-0.8,4c-0.6,1.3-1.3,2.4-2.2,3.3c-0.9,0.9-2,1.7-3.3,2.2
							c-1.3,0.6-2.6,0.8-4,0.8h-3.1c-1.4,0-2.8-0.3-4-0.8c-1.3-0.6-2.4-1.3-3.3-2.2c-0.9-0.9-1.7-2-2.2-3.3c-0.6-1.3-0.8-2.6-0.8-4
							v-46.9c0-0.8,0.4-1.2,1.2-1.2h7.3c0.8,0,1.2,0.4,1.2,1.2v46.5c0,0.6,0.2,1,0.6,1.4c0.4,0.4,0.8,0.6,1.4,0.6h0.7
							c0.6,0,1-0.2,1.4-0.6c0.4-0.4,0.6-0.8,0.6-1.4v-46.5c0-0.8,0.4-1.2,1.2-1.2h7.4C317.1,524.6,317.5,525,317.5,525.7"/>
					</g>
					<g id="Fill-11_11_">
						<g>
							<path class="st2" d="M331.5,550h2.7c0.6,0,1-0.2,1.4-0.6c0.4-0.4,0.6-0.8,0.6-1.4v-12.6c0-0.6-0.2-1-0.6-1.4
								c-0.4-0.4-0.9-0.6-1.4-0.6h-2.7V550z M347.5,581.3c0.2,0.8-0.1,1.2-0.8,1.2h-7.5c-0.3,0-0.7-0.1-0.9-0.3
								c-0.3-0.2-0.5-0.5-0.6-0.8l-6-20.3v21.4l-0.1-0.8c-0.1,0.6-0.4,0.8-1,0.8h-7.3c-0.8,0-1.2-0.4-1.2-1.2v-55.6
								c0-0.8,0.4-1.2,1.2-1.2h12.4c1.4,0,2.8,0.3,4,0.8s2.4,1.3,3.3,2.2c0.9,0.9,1.7,2,2.2,3.3c0.6,1.3,0.8,2.6,0.8,4v13.5
								c0,2-0.6,3.9-1.5,5.5c-1,1.6-2.4,2.9-4.1,3.8L347.5,581.3z"/>
						</g>
					</g>
					<g id="Fill-13_11_">
						<path class="st2" d="M371,573.9v7.3c0,0.8-0.4,1.2-1.2,1.2h-17.9c-0.8,0-1.2-0.4-1.2-1.2v-55.5c0-0.8,0.4-1.2,1.2-1.2h17.9
							c0.8,0,1.2,0.4,1.2,1.2v7.3c0,0.8-0.4,1.2-1.2,1.2h-9.4v11.9h8.2c0.8,0,1.2,0.4,1.2,1.2v7.3c0,0.8-0.4,1.2-1.2,1.2h-8.2v17
							h9.4C370.6,572.8,371,573.2,371,573.9"/>
					</g>
					<path id="Fill-15_11_" class="st2" d="M390.1,535.4c0-0.6-0.2-1-0.6-1.4c-0.4-0.4-0.8-0.6-1.4-0.6h-2.7v40.2h2.7
						c0.6,0,1-0.2,1.4-0.6c0.4-0.4,0.6-0.8,0.6-1.4V535.4z M389.3,524.6c1.4,0,2.8,0.3,4,0.8s2.4,1.3,3.3,2.2c0.9,0.9,1.7,2,2.2,3.3
						c0.6,1.3,0.8,2.6,0.8,4V572c0,1.4-0.3,2.8-0.8,4c-0.6,1.3-1.3,2.4-2.2,3.3c-0.9,0.9-2,1.7-3.3,2.2s-2.6,0.8-4,0.8h-12.4
						c-0.8,0-1.2-0.4-1.2-1.2v-55.5c0-0.8,0.4-1.2,1.2-1.2H389.3z"/>
					<path id="Fill-17_11_" class="st2" d="M413.9,550h2.7c0.6,0,1-0.2,1.4-0.6s0.6-0.8,0.6-1.4v-12.6c0-0.6-0.2-1-0.6-1.4
						c-0.4-0.4-0.9-0.6-1.4-0.6h-2.7V550z M429.8,581.3c0.2,0.8-0.1,1.2-0.8,1.2h-7.5c-0.3,0-0.7-0.1-0.9-0.3
						c-0.3-0.2-0.5-0.5-0.6-0.8l-6-20.3v21.4l-0.1-0.8c-0.1,0.6-0.4,0.8-1,0.8h-7.3c-0.8,0-1.2-0.4-1.2-1.2v-55.6
						c0-0.8,0.4-1.2,1.2-1.2h12.4c1.4,0,2.8,0.3,4,0.8s2.4,1.3,3.3,2.2c0.9,0.9,1.7,2,2.2,3.3c0.6,1.3,0.8,2.6,0.8,4v13.5
						c0,2-0.6,3.9-1.5,5.5c-1,1.6-2.4,2.9-4.1,3.8L429.8,581.3z"/>
					<path id="Fill-19_11_" class="st2" d="M446.5,534.8c0-0.6-0.2-1-0.6-1.4c-0.4-0.4-0.8-0.6-1.4-0.6h-0.7c-0.6,0-1,0.2-1.4,0.6
						c-0.4,0.4-0.6,0.9-0.6,1.4v37.4c0,0.6,0.2,1,0.6,1.4s0.8,0.6,1.4,0.6h0.7c0.6,0,1-0.2,1.4-0.6c0.4-0.4,0.6-0.8,0.6-1.4V534.8z
						 M456.2,572.7c0,1.4-0.3,2.8-0.8,4c-0.6,1.3-1.3,2.4-2.2,3.3c-0.9,0.9-2,1.7-3.3,2.2c-1.3,0.6-2.6,0.8-4,0.8h-3.1
						c-1.4,0-2.8-0.3-4-0.8c-1.3-0.6-2.4-1.3-3.3-2.2c-0.9-0.9-1.7-2-2.2-3.3c-0.6-1.3-0.8-2.6-0.8-4v-38.2c0-1.4,0.3-2.8,0.8-4
						c0.6-1.3,1.3-2.4,2.2-3.3s2-1.7,3.3-2.2s2.6-0.8,4-0.8h3.1c1.4,0,2.8,0.3,4,0.8c1.3,0.6,2.4,1.3,3.3,2.2c0.9,0.9,1.7,2,2.2,3.3
						c0.6,1.3,0.8,2.6,0.8,4V572.7z"/>
					<path id="Fill-21_11_" class="st2" d="M474.9,535.4c0-0.6-0.2-1-0.6-1.4c-0.4-0.4-0.9-0.6-1.4-0.6h-2.7V550h2.7
						c0.6,0,1-0.2,1.4-0.6s0.6-0.8,0.6-1.4V535.4z M474.2,524.6c1.4,0,2.8,0.3,4,0.8s2.4,1.3,3.3,2.2c0.9,0.9,1.7,2,2.2,3.3
						c0.6,1.3,0.8,2.6,0.8,4v13.5c0,1.4-0.3,2.8-0.8,4c-0.6,1.3-1.3,2.4-2.2,3.3c-0.9,0.9-2,1.7-3.3,2.2s-2.6,0.8-4,0.8h-3.9v22.4
						c0,0.8-0.4,1.2-1.2,1.2h-7.3c-0.8,0-1.2-0.4-1.2-1.2v-55.5c0-0.8,0.4-1.2,1.2-1.2H474.2z"/>
				</g>
			</g>
		</g>
	</g>
</g>
<g>
	<g>
		<path class="st2" d="M184.2,546.1c-0.5,0-1.1,0.2-1.6,0.4l-19.1,11v27.8l20.6-11.9c2-1.1,3.2-3.2,3.2-5.5v-18.7
			C187.3,547.6,185.9,546.1,184.2,546.1z M181.5,565.9c0,1.3-0.7,2.6-1.9,3.2l-9.6,5.4l0-13.3l9.5-5.4c0.7-0.4,1.5-0.1,1.9,0.5
			c0.1,0.2,0.2,0.4,0.2,0.6V565.9z"/>
		<polygon class="st2" points="130.4,561.8 145.4,570.5 145.4,573.7 130.4,565 130.4,572.1 152.4,584.8 152.4,567.5 136.4,558.2 
			136.4,554.9 152.4,564.2 152.4,557.3 130.4,544.7 		"/>
	</g>
	<path class="st2" d="M196.7,529.4L196.7,529.4l-38.2-19.2l-38.3,18.9v47.6l38.6,22.6l38.1-23.2L196.7,529.4z M153.6,522.7
		c4.5,0,8.2,2.1,8.2,4.6c0,0.5-0.1,1-0.4,1.4l13.6,3.8l-12.1,6.9l-7.5-7.6c-0.6,0.1-1.2,0.1-1.8,0.1c-4.5,0-8.2-2.1-8.2-4.6
		C145.3,524.8,149,522.7,153.6,522.7z M158.7,596.1l-36.1-20.8v-43.1l35.8,19.8l35.7-19.7l0.1,42.4L158.7,596.1z"/>
</g>
<g>
	<g>
		<rect x="104.7" y="50.3" class="st9" width="181.9" height="73.4"/>
		<rect x="41.7" y="50.3" class="st10" width="63" height="73.4"/>
		<g>
			<g>
				<polyline class="st11" points="293.1,130.1 293.1,130.4 292.8,130.4 				"/>
				<line class="st12" x1="291" y1="130.4" x2="37.5" y2="130.4"/>
				<polyline class="st11" points="36.6,130.4 36.3,130.4 36.3,130.1 				"/>
				<line class="st13" x1="36.3" y1="128.3" x2="36.3" y2="41"/>
				<polyline class="st11" points="36.3,40.1 36.3,39.8 36.6,39.8 				"/>
				<line class="st12" x1="38.4" y1="39.8" x2="291.9" y2="39.8"/>
				<polyline class="st11" points="292.8,39.8 293.1,39.8 293.1,40.1 				"/>
				<line class="st13" x1="293.1" y1="41.8" x2="293.1" y2="129.2"/>
			</g>
		</g>
		<g class="st14">
			<g id="Symbols_7_">
				<g>
					<g id="Logo_x2F_White-Text_7_">
						<g id="SD-Logo_7_">
							<g id="Group-3_7_" transform="translate(0.000000, 0.633400)">
								<g id="Fill-1_7_">
									<path d="M121.5,66.8c0.8,0.3,1.4,0.8,2,1.3s1,1.2,1.3,2c0.3,0.8,0.5,1.6,0.5,2.4v1.9c0,0.5-0.2,0.8-0.6,0.9l-4.5,1.2
										c-0.4,0.1-0.6,0-0.6-0.5v-3.2c0-0.3-0.1-0.6-0.3-0.8c-0.2-0.2-0.5-0.3-0.8-0.3H118c-0.3,0-0.6,0.1-0.8,0.3
										c-0.2,0.2-0.3,0.5-0.3,0.8v4.5c0,0.4,0.1,0.7,0.2,0.9c0.1,0.3,0.3,0.5,0.5,0.8l6.4,4.9c0.5,0.5,0.9,0.9,1,1.4
										c0.2,0.5,0.3,1,0.3,1.6v8.5c0,0.9-0.2,1.7-0.5,2.4c-0.3,0.8-0.8,1.4-1.3,2c-0.6,0.6-1.2,1-2,1.3c-0.8,0.3-1.6,0.5-2.4,0.5
										h-1.9c-0.9,0-1.7-0.2-2.4-0.5c-0.8-0.3-1.4-0.8-2-1.3c-0.6-0.6-1-1.2-1.3-2c-0.3-0.8-0.5-1.6-0.5-2.4v-4.8
										c0-0.5,0.2-0.8,0.6-0.9l4.5-1.2c0.4-0.1,0.6,0,0.6,0.5v6.1c0,0.3,0.1,0.6,0.3,0.8c0.2,0.2,0.5,0.3,0.8,0.3h0.4
										c0.3,0,0.6-0.1,0.8-0.3c0.2-0.2,0.3-0.5,0.3-0.8v-6.5c0-0.4-0.1-0.8-0.2-1.1c-0.1-0.3-0.3-0.6-0.6-0.9l-6.3-4.9
										c-0.5-0.5-0.9-0.9-1.1-1.4c-0.2-0.5-0.3-1.1-0.3-1.8v-5.9c0-0.9,0.2-1.7,0.5-2.4c0.3-0.8,0.8-1.4,1.3-2s1.2-1,2-1.3
										c0.8-0.3,1.6-0.5,2.4-0.5h1.9C120,66.3,120.8,66.5,121.5,66.8"/>
								</g>
							</g>
							<g id="Fill-4_7_">
								<path d="M139.8,96.8v4.4c0,0.5-0.2,0.7-0.7,0.7h-10.7c-0.5,0-0.7-0.2-0.7-0.7V68c0-0.5,0.2-0.7,0.7-0.7h10.7
									c0.5,0,0.7,0.2,0.7,0.7v4.4c0,0.5-0.2,0.7-0.7,0.7h-5.6v7.1h4.9c0.5,0,0.7,0.2,0.7,0.7v4.4c0,0.5-0.2,0.7-0.7,0.7h-4.9v10.1
									h5.6C139.6,96.1,139.8,96.4,139.8,96.8"/>
							</g>
							<g id="Group-8_7_" transform="translate(61.000000, 0.633400)">
								<g id="Fill-6_7_">
									<path d="M91.7,66.8c0.8,0.3,1.4,0.8,2,1.3c0.6,0.6,1,1.2,1.3,2c0.3,0.8,0.5,1.6,0.5,2.4v4c0,0.5-0.2,0.8-0.6,0.9l-4.5,0.7
										c-0.4,0.1-0.6,0-0.6-0.5v-4.8c0-0.3-0.1-0.6-0.4-0.8c-0.2-0.2-0.5-0.3-0.8-0.3h-0.4c-0.3,0-0.6,0.1-0.8,0.3
										c-0.2,0.2-0.3,0.5-0.3,0.8v22.3c0,0.3,0.1,0.6,0.3,0.8c0.2,0.2,0.5,0.3,0.8,0.3h0.4c0.3,0,0.6-0.1,0.8-0.3
										c0.2-0.2,0.4-0.5,0.4-0.8v-6.9c0-0.5,0.2-0.6,0.6-0.5l4.5,0.6c0.4,0.1,0.6,0.4,0.6,0.9v6.2c0,0.9-0.2,1.7-0.5,2.4
										c-0.3,0.8-0.8,1.4-1.3,2c-0.6,0.6-1.2,1-2,1.3c-0.8,0.3-1.6,0.5-2.4,0.5h-1.9c-0.9,0-1.7-0.2-2.4-0.5
										c-0.8-0.3-1.4-0.8-2-1.3s-1-1.2-1.3-2c-0.3-0.8-0.5-1.6-0.5-2.4V72.5c0-0.9,0.2-1.7,0.5-2.4c0.3-0.8,0.8-1.4,1.3-2
										s1.2-1,2-1.3c0.8-0.3,1.6-0.5,2.4-0.5h1.9C90.2,66.3,91,66.5,91.7,66.8"/>
								</g>
							</g>
							<g id="Fill-9_7_">
								<path d="M172.7,68V96c0,0.9-0.2,1.7-0.5,2.4c-0.3,0.8-0.8,1.4-1.3,2c-0.6,0.6-1.2,1-2,1.3s-1.6,0.5-2.4,0.5h-1.9
									c-0.9,0-1.7-0.2-2.4-0.5s-1.4-0.8-2-1.3c-0.6-0.6-1-1.2-1.3-2c-0.3-0.8-0.5-1.6-0.5-2.4V68c0-0.5,0.2-0.7,0.7-0.7h4.4
									c0.5,0,0.7,0.2,0.7,0.7v27.8c0,0.3,0.1,0.6,0.3,0.8c0.2,0.2,0.5,0.3,0.8,0.3h0.4c0.3,0,0.6-0.1,0.8-0.3
									c0.2-0.2,0.3-0.5,0.3-0.8V68c0-0.5,0.2-0.7,0.7-0.7h4.4C172.5,67.3,172.7,67.5,172.7,68"/>
							</g>
							<g id="Fill-11_7_">
								<g>
									<path d="M181.2,82.5h1.6c0.3,0,0.6-0.1,0.8-0.3c0.2-0.2,0.3-0.5,0.3-0.8v-7.6c0-0.3-0.1-0.6-0.3-0.8
										c-0.2-0.2-0.5-0.4-0.8-0.4h-1.6V82.5z M190.7,101.2c0.1,0.5-0.1,0.7-0.5,0.7h-4.5c-0.2,0-0.4-0.1-0.6-0.2
										c-0.2-0.1-0.3-0.3-0.4-0.5l-3.6-12.1v12.8l-0.1-0.5c-0.1,0.3-0.3,0.5-0.6,0.5h-4.4c-0.5,0-0.7-0.2-0.7-0.7V68
										c0-0.5,0.2-0.7,0.7-0.7h7.4c0.9,0,1.7,0.2,2.4,0.5c0.8,0.3,1.4,0.8,2,1.3c0.6,0.6,1,1.2,1.3,2c0.3,0.8,0.5,1.6,0.5,2.4v8.1
										c0,1.2-0.3,2.3-0.9,3.3c-0.6,1-1.5,1.7-2.5,2.2L190.7,101.2z"/>
								</g>
							</g>
							<g id="Fill-13_7_">
								<path d="M204.7,96.8v4.4c0,0.5-0.2,0.7-0.7,0.7h-10.7c-0.5,0-0.7-0.2-0.7-0.7V68c0-0.5,0.2-0.7,0.7-0.7h10.7
									c0.5,0,0.7,0.2,0.7,0.7v4.4c0,0.5-0.2,0.7-0.7,0.7h-5.6v7.1h4.9c0.5,0,0.7,0.2,0.7,0.7v4.4c0,0.5-0.2,0.7-0.7,0.7h-4.9v10.1
									h5.6C204.5,96.1,204.7,96.4,204.7,96.8"/>
							</g>
							<path id="Fill-15_7_" d="M216.2,73.8c0-0.3-0.1-0.6-0.4-0.8c-0.2-0.2-0.5-0.4-0.8-0.4h-1.6v24h1.6c0.3,0,0.6-0.1,0.8-0.3
								c0.2-0.2,0.4-0.5,0.4-0.8V73.8z M215.7,67.3c0.9,0,1.7,0.2,2.4,0.5c0.8,0.3,1.4,0.8,2,1.3c0.6,0.6,1,1.2,1.3,2
								c0.3,0.8,0.5,1.6,0.5,2.4v22.1c0,0.9-0.2,1.7-0.5,2.4c-0.3,0.8-0.8,1.4-1.3,2s-1.2,1-2,1.3c-0.8,0.3-1.6,0.5-2.4,0.5h-7.4
								c-0.5,0-0.7-0.2-0.7-0.7V68c0-0.5,0.2-0.7,0.7-0.7H215.7z"/>
							<path id="Fill-17_7_" d="M230.4,82.5h1.6c0.3,0,0.6-0.1,0.8-0.3c0.2-0.2,0.3-0.5,0.3-0.8v-7.6c0-0.3-0.1-0.6-0.3-0.8
								c-0.2-0.2-0.5-0.4-0.8-0.4h-1.6V82.5z M239.9,101.2c0.1,0.5-0.1,0.7-0.5,0.7h-4.5c-0.2,0-0.4-0.1-0.6-0.2
								c-0.2-0.1-0.3-0.3-0.4-0.5l-3.6-12.1v12.8l-0.1-0.5c-0.1,0.3-0.3,0.5-0.6,0.5h-4.4c-0.5,0-0.7-0.2-0.7-0.7V68
								c0-0.5,0.2-0.7,0.7-0.7h7.4c0.9,0,1.7,0.2,2.4,0.5c0.8,0.3,1.4,0.8,2,1.3s1,1.2,1.3,2c0.3,0.8,0.5,1.6,0.5,2.4v8.1
								c0,1.2-0.3,2.3-0.9,3.3c-0.6,1-1.5,1.7-2.5,2.2L239.9,101.2z"/>
							<path id="Fill-19_7_" d="M249.9,73.4c0-0.3-0.1-0.6-0.3-0.8c-0.2-0.2-0.5-0.3-0.8-0.3h-0.4c-0.3,0-0.6,0.1-0.8,0.3
								c-0.2,0.2-0.3,0.5-0.3,0.8v22.3c0,0.3,0.1,0.6,0.3,0.8c0.2,0.2,0.5,0.3,0.8,0.3h0.4c0.3,0,0.6-0.1,0.8-0.3
								c0.2-0.2,0.3-0.5,0.3-0.8V73.4z M255.7,96c0,0.9-0.2,1.7-0.5,2.4c-0.3,0.8-0.8,1.4-1.3,2s-1.2,1-2,1.3
								c-0.8,0.3-1.6,0.5-2.4,0.5h-1.9c-0.9,0-1.7-0.2-2.4-0.5c-0.8-0.3-1.4-0.8-2-1.3s-1-1.2-1.3-2c-0.3-0.8-0.5-1.6-0.5-2.4V73.2
								c0-0.9,0.2-1.7,0.5-2.4c0.3-0.8,0.8-1.4,1.3-2s1.2-1,2-1.3c0.8-0.3,1.6-0.5,2.4-0.5h1.9c0.9,0,1.7,0.2,2.4,0.5
								c0.8,0.3,1.4,0.8,2,1.3s1,1.2,1.3,2c0.3,0.8,0.5,1.6,0.5,2.4V96z"/>
							<path id="Fill-21_7_" d="M266.8,73.8c0-0.3-0.1-0.6-0.3-0.8c-0.2-0.2-0.5-0.4-0.8-0.4h-1.6v9.9h1.6c0.3,0,0.6-0.1,0.8-0.3
								c0.2-0.2,0.3-0.5,0.3-0.8V73.8z M266.4,67.3c0.9,0,1.7,0.2,2.4,0.5c0.8,0.3,1.4,0.8,2,1.3c0.6,0.6,1,1.2,1.3,2
								c0.3,0.8,0.5,1.6,0.5,2.4v8.1c0,0.9-0.2,1.7-0.5,2.4c-0.3,0.8-0.8,1.4-1.3,2c-0.6,0.6-1.2,1-2,1.3c-0.8,0.3-1.6,0.5-2.4,0.5
								h-2.3v13.4c0,0.5-0.2,0.7-0.7,0.7H259c-0.5,0-0.7-0.2-0.7-0.7V68c0-0.5,0.2-0.7,0.7-0.7H266.4z"/>
						</g>
					</g>
				</g>
			</g>
		</g>
		<g class="st14">
			<polygon class="st0" points="56.9,89.6 65.8,94.8 65.8,96.8 56.9,91.6 56.9,95.8 70,103.3 70,93 60.4,87.5 60.4,85.6 70,91.1 
				70,87 56.9,79.4 			"/>
			<path class="st0" d="M95.3,70.9L73.9,59.7L52.5,70.9l21.4,12.3L95.3,70.9z M70.9,71.9c-2.6,0-4.8-1.2-4.8-2.7
				c0-1.5,2.1-2.7,4.8-2.7s4.8,1.2,4.8,2.7c0,0.3-0.1,0.6-0.2,0.8l7.9,2.2l-7,4l-4.4-4.4C71.5,71.9,71.2,71.9,70.9,71.9z"/>
			<path class="st0" d="M90.7,79.7c-0.3,0-0.7,0.1-1,0.3L78,86.8v17.1l12.7-7.3c1.2-0.7,1.9-2,1.9-3.4V81.6
				C92.6,80.6,91.7,79.7,90.7,79.7z M89.1,91.9c0,0.8-0.4,1.6-1.1,2L82,97.2l0-8.2l5.8-3.4c0.4-0.2,0.9-0.1,1.1,0.3
				c0.1,0.1,0.1,0.3,0.1,0.4V91.9z"/>
			<path d="M87.8,85.6L82,89l0,8.2l5.9-3.3c0.7-0.4,1.1-1.1,1.1-2v-5.6c0-0.1,0-0.3-0.1-0.4C88.7,85.6,88.2,85.4,87.8,85.6z"/>
			<path d="M97.1,70.7L97.1,70.7L73.9,58.5L50.5,70.7l0.1,0v26.8L73.9,111v0l0,0l0,0v0l23.3-13.4V70.7z M73.9,59.7l21.4,11.2
				L73.9,83.3L52.5,70.9L73.9,59.7z M70,91.1l-9.5-5.5v1.9L70,93v10.3l-13.1-7.6v-4.2l9,5.2v-1.9l-9-5.2V79.4L70,87V91.1z
				 M92.6,93.1c0,1.4-0.7,2.7-1.9,3.4L78,103.8V86.8L89.7,80c0.3-0.2,0.6-0.3,1-0.3c1.1,0,1.9,0.9,1.9,1.9V93.1z"/>
			<path d="M83.3,72.3l-7.9-2.2c0.2-0.3,0.2-0.5,0.2-0.8c0-1.5-2.1-2.7-4.8-2.7s-4.8,1.2-4.8,2.7c0,1.5,2.1,2.7,4.8,2.7
				c0.4,0,0.7,0,1-0.1l4.4,4.4L83.3,72.3z"/>
		</g>
		<circle class="st6" cx="57.2" cy="51.2" r="7.8"/>
		<circle class="st6" cx="120.2" cy="50" r="7.8"/>
		<circle class="st6" cx="159.2" cy="39.2" r="7.8"/>
		<text transform="matrix(1 0 0 1 54.1179 54.0593)" class="st2 st15 st8">A</text>
		<text transform="matrix(1 0 0 1 117.1179 52.8591)" class="st2 st15 st8">B</text>
		<text transform="matrix(1 0 0 1 156.1179 42.0598)" class="st2 st15 st8">C</text>
	</g>
	<text transform="matrix(1 0 0 1 324.8758 39.3327)"><tspan x="0" y="0" class="st6 st15 st16">A. Logomark</tspan><tspan x="0" y="18.6" class="st6 st15 st16">B. Logotype</tspan><tspan x="0" y="37.2" class="st6 st15 st16">C. </tspan><tspan x="11.9" y="37.2" class="st6 st15 st16">Lockup</tspan><tspan x="0" y="49.8" class="st6 st7 st16">    The logomark and logotype together, as shown. </tspan><tspan x="0" y="75" class="st6 st17 st16">Please do not use the logotype outside of the lockup.</tspan><tspan x="0" y="87.6" class="st6 st17 st16">The logomark may be used on its own.</tspan></text>
</g>
<g>
	<g>
		<g>
			<line class="st3" x1="46" y1="368" x2="46.7" y2="368"/>
			<line class="st4" x1="48.8" y1="368" x2="51.3" y2="368"/>
			<line class="st5" x1="52.3" y1="368" x2="572.4" y2="368"/>
			<line class="st3" x1="573.5" y1="368" x2="574.2" y2="368"/>
		</g>
	</g>
	<text transform="matrix(1 0 0 1 43.9268 362.1086)" class="st6 st7 st8">Lockup, for use when larger than 75px tall</text>
</g>
<g>
	<g>
		<g>
			<g>
				<line class="st3" x1="43.4" y1="670" x2="44.1" y2="670"/>
				<line class="st4" x1="46.2" y1="670" x2="48.7" y2="670"/>
				<line class="st5" x1="49.8" y1="670" x2="569.8" y2="670"/>
				<line class="st3" x1="570.9" y1="670" x2="571.6" y2="670"/>
			</g>
		</g>
		<text transform="matrix(1 0 0 1 43.4236 663.6918)" class="st6 st7 st8">Lockup, for use when smaller than 75px tall</text>
	</g>
	<text transform="matrix(1 0 0 1 46.7601 896.6898)" class="st6 st17 st8">* Tweaks have been made to this version of the mark, to help legible rendering at very small sizes</text>
</g>
<g>
	<polygon class="st0" points="128.5,442.1 143.8,451 143.8,454.3 128.5,445.4 128.5,452.6 150.9,465.6 150.9,447.9 134.6,438.5 
		134.6,435.1 150.9,444.6 150.9,437.6 128.5,424.6 	"/>
	<path class="st0" d="M194.1,410.1L157.5,391l-36.6,19.1l36.6,21.1L194.1,410.1z M152.4,411.8c-4.5,0-8.1-2.1-8.1-4.6
		c0-2.5,3.6-4.6,8.1-4.6c4.5,0,8.1,2.1,8.1,4.6c0,0.5-0.1,1-0.4,1.4l13.5,3.7l-12,6.8l-7.5-7.5C153.5,411.8,153,411.8,152.4,411.8z"
		/>
	<path class="st0" d="M186.3,425.1c-0.6,0-1.1,0.2-1.6,0.4l-20.1,11.6v29.2l21.7-12.5c2.1-1.2,3.3-3.4,3.3-5.8v-19.7
		C189.6,426.6,188.1,425.1,186.3,425.1z M183.5,446c0,1.4-0.8,2.7-2,3.4l-10.1,5.7l0-14l10-5.7c0.7-0.4,1.6-0.1,2,0.5
		c0.1,0.2,0.2,0.4,0.2,0.7V446z"/>
	<path class="st1" d="M181.3,435.3l-10,5.7l0,14l10.1-5.7c1.2-0.7,2-2,2-3.4v-9.5c0-0.2-0.1-0.5-0.2-0.7
		C182.9,435.2,182,434.9,181.3,435.3z"/>
	<path class="st1" d="M197.4,409.8l0.1-0.1l-40-20.9l-40,20.9l0.1,0.1v45.9l39.8,23v0l0,0l0,0v0l39.8-23V409.8z M157.5,391
		l36.6,19.1l-36.6,21.1l-36.6-21.1L157.5,391z M150.9,444.6l-16.3-9.4v3.3l16.3,9.4v17.7l-22.4-12.9v-7.2l15.3,8.9V451l-15.3-8.9
		v-17.5l22.4,12.9V444.6z M189.6,448.1c0,2.4-1.3,4.6-3.3,5.8l-21.7,12.5v-29.2l20.1-11.6c0.5-0.3,1.1-0.4,1.6-0.4
		c1.8,0,3.3,1.5,3.3,3.3V448.1z"/>
	<path class="st1" d="M173.6,412.4l-13.5-3.7c0.3-0.4,0.4-0.9,0.4-1.4c0-2.5-3.6-4.6-8.1-4.6c-4.5,0-8.1,2.1-8.1,4.6
		c0,2.5,3.6,4.6,8.1,4.6c0.6,0,1.2,0,1.8-0.1l7.5,7.5L173.6,412.4z"/>
</g>
<g>
	<path class="st2" d="M207.2,792.9l-7.9-2.2c0.2-0.3,0.2-0.5,0.2-0.8c0-1.5-2.1-2.7-4.7-2.7s-4.7,1.2-4.7,2.7s2.1,2.7,4.7,2.7
		c0.3,0,0.7,0,1-0.1l4.4,4.4L207.2,792.9z"/>
	<g>
		<path class="st2" d="M212.7,807l-7.1,4.1l0,10l7.2-4c0.9-0.5,1.4-1.4,1.4-2.4v-6.8c0-0.2,0-0.3-0.1-0.5
			C213.8,806.9,213.2,806.7,212.7,807z"/>
		<path class="st2" d="M197.6,777.5L171.7,791l0.1,0.1v29.8l25.8,14.9v0l0,0l0,0v0l25.8-14.9v-29.8l0.1-0.1L197.6,777.5z
			 M193.7,812.7l-11.6-6.7v2.9l11.6,6.7v12.6l-16-9.2v-5.1l11.1,6.7l0.1-2.9l-11.4-6.8l0.2-12.5l16,9.2V812.7z M218.5,815.9
			c0,1.7-0.9,3.3-2.4,4.1l-15.4,8.9v-20.8l14.3-8.3c0.4-0.2,0.8-0.3,1.2-0.3c1.3,0,2.3,1.1,2.3,2.4V815.9z M197.7,804l-21.3-12.3
			l21.3-11.2l21.3,11.2L197.7,804z"/>
	</g>
</g>
</svg>
